SplineFontDB: 1.0
FontName: AkrutiMal2Bold
FullName: AkrutiMal2 Bold
FamilyName: AkrutiMal2
Weight: Bold
Copyright: Copyright (C) Cyberscape Multimedia Limited, Bangalore, INDIA.YContact: mssridhar@vsnl.comYThis program is free software; you can redistribute it and/orYmodify it under the terms of the GNU General Public LicenseYas published by the Free Software Fou
Version: Macromedia Fontographer 4.1 10/3/02
ItalicAngle: 0
UnderlinePosition: -133
UnderlineWidth: 20
Ascent: 684
Descent: 316
NeedsXUIDChange: 1
FSType: 1
PfmFamily: 81
TTFWeight: 700
TTFWidth: 5
Panose: 0 0 0 0 0 0 0 0 0 0
LineGap: 0
VLineGap: 0

LangName: 1033 "Copyright (C) Cyberscape Multimedia Limited, Bangalore, INDIA.+//8A-Contact: mssridhar@vsnl.com+//8A-This program is free software; you can redistribute it and/or+//8A-modify it under the terms of the GNU General Public License+//8A-as published by the Free Software Fou" "" "" "Macromedia Fontographer 4.1 AkrutiMal2 Bold" "" "Macromedia Fontographer 4.1 10/3/02" 
Encoding: unicode
DisplaySize: -24
BeginChars: 65938 189
StartChar: .notdef
Encoding: 0 -1
Width: 500
Flags: W
Fore
63 0 m 1
 63 684 l 1
 438 684 l 1
 438 0 l 1
 63 0 l 1
125 63 m 1
 375 63 l 1
 375 622 l 1
 125 622 l 1
 125 63 l 1
EndSplineSet
EndChar
StartChar: exclam
Encoding: 33 33
Width: 157
Flags: W
Fore
135 138 m 1
 125 138 l 1
 125 128 l 1
 53 128 l 1
 53 460 l 1
 135 460 l 1
 135 138 l 1
160 41 m 0
 160.667 25.6667 155.167 13.5 143.5 4.5 c 0
 131.833 -4.5 118 -9.33333 102 -10 c 0
 86 -10.6667 72.5 -6 61.5 4 c 0
 50.5 14 44.6667 26.3333 44 41 c 0
 43.3333 55.6667 49 68 61 78 c 0
 73 88 86.6667 93.3333 102 94 c 0
 117.333 94.6667 130.667 89.8333 142 79.5 c 0
 153.333 69.1667 159.333 56.3333 160 41 c 0
EndSplineSet
EndChar
StartChar: dollar
Encoding: 36 36
Width: 550
Flags: W
Fore
538 29 m 1
 492 -21 l 1
 308 162 l 1
 121 -27 l 1
 71 21 l 1
 260 210 l 1
 77 392 l 1
 127 442 l 1
 308 257 l 1
 486 437 l 1
 536 390 l 1
 357 210 l 1
 538 29 l 1
EndSplineSet
EndChar
StartChar: quotesingle
Encoding: 39 39
Width: 179
Flags: W
Fore
180 527 m 0
 180 497 170.667 468 152 440 c 0
 132 410 108.333 390.667 81 382 c 1
 54 421 l 1
 88 437.667 110.667 460.333 122 489 c 0
 125.333 501 127.667 512.333 129 523 c 1
 123 519 114.333 517 103 517 c 0
 87.6667 517 75.3333 522.833 66 534.5 c 0
 56.6667 546.167 51.6667 560 51 576 c 0
 50.3333 591.333 55.3333 604.833 66 616.5 c 0
 76.6667 628.167 89.6667 634.333 105 635 c 0
 126.333 635.667 144.167 627.333 158.5 610 c 0
 172.833 592.667 180 565 180 527 c 0
EndSplineSet
EndChar
StartChar: parenleft
Encoding: 40 40
Width: 315
Flags: W
Fore
326 -160 m 1
 222 -158 l 1
 166 -123.333 122.667 -64.6667 92 18 c 0
 66 88 53 161.333 53 238 c 0
 53 310 68.6667 383.667 100 459 c 0
 135.333 542.333 180.667 601 236 635 c 1
 315 625 l 1
 253 563 208.667 504.667 182 450 c 0
 151.333 388 135.667 317.333 135 238 c 0
 134.333 156 150.667 82.6667 184 18 c 0
 213.333 -38.6667 260.667 -98 326 -160 c 1
EndSplineSet
EndChar
StartChar: parenright
Encoding: 41 41
Width: 301
Flags: W
Fore
297 238 m 0
 297.667 160.667 284.667 87.3333 258 18 c 0
 227.333 -63.3333 183.667 -122 127 -158 c 1
 25 -160 l 1
 99 -89.3333 150 -21.6667 178 43 c 0
 202 98.3333 214.333 163.333 215 238 c 0
 215.667 306.667 204 369 180 425 c 0
 153.333 487 105.333 553.667 36 625 c 1
 114 635 l 1
 168.667 601 213.667 542 249 458 c 0
 280.333 383.333 296.333 310 297 238 c 0
EndSplineSet
EndChar
StartChar: comma
Encoding: 44 44
Width: 197
Flags: W
Fore
196 2 m 0
 196 -27.3333 184.5 -55.1667 161.5 -81.5 c 0
 138.5 -107.833 112 -126 82 -136 c 1
 60 -95 l 1
 79.3333 -85.6667 97 -74.3333 113 -61 c 0
 123 -52.3333 130.333 -42 135 -30 c 1
 142 -3 l 1
 134 -6.33333 124 -8.66667 112 -10 c 0
 96.6667 -10 83 -3.66667 71 9 c 0
 59 21.6667 52.6667 35.6667 52 51 c 0
 51.3333 67.6667 57.1667 81.6667 69.5 93 c 0
 81.8333 104.333 96.3333 110 113 110 c 0
 138.333 110 158.5 101.167 173.5 83.5 c 0
 188.5 65.8333 196 38.6667 196 2 c 0
EndSplineSet
EndChar
StartChar: hyphen
Encoding: 45 45
Width: 359
Flags: W
Fore
298 174 m 1
 72 174 l 1
 60 254 l 1
 289 254 l 1
 298 174 l 1
EndSplineSet
EndChar
StartChar: period
Encoding: 46 46
Width: 171
Flags: W
Fore
173 46 m 0
 173.667 30.6667 168 17.6667 156 7 c 0
 144 -3.66667 130.333 -9.33333 115 -10 c 0
 98.3333 -10.6667 84.6667 -5.66667 74 5 c 0
 63.3333 15.6667 57.6667 29.3333 57 46 c 0
 56.3333 62 61.8333 75.5 73.5 86.5 c 0
 85.1667 97.5 99 103.333 115 104 c 0
 131 104.667 144.5 99.1667 155.5 87.5 c 0
 166.5 75.8333 172.333 62 173 46 c 0
EndSplineSet
EndChar
StartChar: slash
Encoding: 47 47
Width: 381
Flags: W
Fore
377 635 m 1
 133 -159 l 1
 49 -159 l 1
 292 635 l 1
 377 635 l 1
EndSplineSet
EndChar
StartChar: zero
Encoding: 48 48
Width: 393
Flags: W
Fore
303 225 m 0
 303.667 283 297 325.333 283 352 c 0
 270.333 376.667 251 389.333 225 390 c 0
 187.667 390.667 162 371 148 331 c 0
 140 307.667 135.667 272.333 135 225 c 0
 134.333 167 140.5 125.167 153.5 99.5 c 0
 166.5 73.8333 186.333 60.6667 213 60 c 0
 272.333 58.6667 302.333 113.667 303 225 c 0
385 225 m 0
 385 68.3333 327.667 -10 213 -10 c 0
 107 -10 53.6667 72.6667 53 238 c 0
 52.3333 385.333 109.667 459.333 225 460 c 0
 331.667 460.667 385 382.333 385 225 c 0
EndSplineSet
EndChar
StartChar: one
Encoding: 49 49
Width: 249
Flags: W
Fore
248 -10 m 1
 165 -10 l 1
 165 345 l 1
 153 337.667 134.667 329.333 110 320 c 2
 53 298 l 1
 53 381 l 1
 86 396 l 2
 127.333 414.667 160 436 184 460 c 1
 248 460 l 1
 248 -10 l 1
EndSplineSet
EndChar
StartChar: two
Encoding: 50 50
Width: 381
Flags: W
Fore
373 -10 m 1
 53 -10 l 1
 53 42 l 1
 166 150 l 2
 218 199.333 250.667 243 264 281 c 0
 268 293 270.333 305.333 271 318 c 0
 271.667 339.333 264.833 356.5 250.5 369.5 c 0
 236.167 382.5 218 389.333 196 390 c 0
 155.333 390.667 135 361.667 135 303 c 1
 53 303 l 1
 53 351.667 66.8333 389.833 94.5 417.5 c 0
 122.167 445.167 160.333 459.333 209 460 c 0
 253.667 460.667 289.5 448 316.5 422 c 0
 343.5 396 357 360.667 357 316 c 0
 357 284.667 351 256 339 230 c 0
 318.333 184 272 127.333 200 60 c 1
 373 60 l 1
 373 -10 l 1
EndSplineSet
EndChar
StartChar: three
Encoding: 51 51
Width: 381
Flags: W
Fore
373 125 m 0
 373 80.3333 357 46 325 22 c 0
 296.333 0.666667 259 -10 213 -10 c 0
 108.333 -10 55 38.3333 53 135 c 1
 135 135 l 1
 135 112.333 142.333 93.6667 157 79 c 1
 172.333 67 191.333 61 214 61 c 0
 235.333 61 253.333 66.3333 268 77 c 0
 282.667 87.6667 290.333 103.333 291 124 c 0
 292.333 168 266.333 190 213 190 c 2
 165 190 l 1
 165 260 l 1
 213 260 l 2
 263 260 288.667 281.667 290 325 c 0
 290.667 345.667 282.667 362 266 374 c 0
 252 384 234.333 389.333 213 390 c 0
 166.333 391.333 142 368.333 140 321 c 1
 57 321 l 1
 57 365.667 72 400.333 102 425 c 0
 130 447.667 167 459.333 213 460 c 0
 259.667 460.667 297 450 325 428 c 0
 356.333 404.667 372.333 370.333 373 325 c 0
 373.667 281.667 353.333 249 312 227 c 1
 352.667 209 373 175 373 125 c 0
EndSplineSet
EndChar
StartChar: four
Encoding: 52 52
Width: 407
Flags: W
Fore
398 88 m 1
 388 88 l 1
 388 78 l 1
 335 78 l 1
 335 -10 l 1
 253 -10 l 1
 253 78 l 1
 53 78 l 1
 54 141 l 1
 258 460 l 1
 335 460 l 1
 335 148 l 1
 398 148 l 1
 398 88 l 1
253 148 m 1
 253 327 l 1
 143 148 l 1
 253 148 l 1
EndSplineSet
EndChar
StartChar: five
Encoding: 53 53
Width: 367
Flags: W
Fore
360 150 m 0
 360.667 44 307.333 -9.33333 200 -10 c 0
 156 -10 120.333 5.66667 93 37 c 0
 67.6667 66.3333 54.3333 103.333 53 148 c 1
 135 148 l 1
 135 89.3333 156.667 60 200 60 c 0
 251.333 60 277.333 89.6667 278 149 c 0
 278.667 211.667 254.333 243.333 205 244 c 0
 185 244 167.333 236.333 152 221 c 1
 135 198 l 1
 62 198 l 1
 84 460 l 1
 341 460 l 1
 341 390 l 1
 165 390 l 1
 156 300 l 1
 171.333 310.667 192 316.333 218 317 c 0
 262 317.667 297.333 300.667 324 266 c 0
 348 234 360 195.333 360 150 c 0
EndSplineSet
EndChar
StartChar: six
Encoding: 54 54
Width: 381
Flags: W
Fore
376 330 m 1
 294 321 l 1
 285.333 367 262.333 390 225 390 c 0
 200.333 390 180.333 379 165 357 c 0
 153 339 143.667 310 137 270 c 1
 161.667 288.667 191 298 225 298 c 0
 272.333 298 308.667 283.5 334 254.5 c 0
 359.333 225.5 372.333 186.667 373 138 c 1
 373 138 l 1
 373 90 359.833 53.3333 333.5 28 c 0
 307.167 2.66667 270 -10 222 -10 c 0
 163.333 -10 119.333 14.3333 90 63 c 0
 66 103 53.6667 154.333 53 217 c 0
 52.3333 281 65.6667 335.333 93 380 c 0
 125 433.333 171 460 231 460 c 0
 308.333 460 356.667 416.667 376 330 c 1
290 138 m 0
 290.667 160.667 285.667 180.667 275 198 c 0
 263 218 246.333 228 225 228 c 0
 205.667 228 188.833 221.5 174.5 208.5 c 0
 160.167 195.5 153 176 153 150 c 0
 153 91.3333 177 61.3333 225 60 c 0
 267.667 58.6667 289.333 84.6667 290 138 c 0
EndSplineSet
EndChar
StartChar: seven
Encoding: 55 55
Width: 354
Flags: W
Fore
348 460 m 1
 347 398 l 1
 169 -10 l 1
 85 -10 l 1
 260 390 l 1
 53 390 l 1
 53 460 l 1
 348 460 l 1
EndSplineSet
EndChar
StartChar: eight
Encoding: 56 56
Width: 367
Flags: W
Fore
360 125 m 1
 360 125 l 1
 360 35.6667 311 -9.33333 213 -10 c 0
 166.333 -10.6667 128.667 0.333333 100 23 c 0
 68.6667 47 53 82 53 128 c 0
 53 174.667 74.3333 209.333 117 232 c 1
 83 251.333 65.6667 282.333 65 325 c 0
 64.3333 366.333 78.3333 399.333 107 424 c 0
 133.667 447.333 168 459.333 210 460 c 0
 254 460.667 290 449.167 318 425.5 c 0
 346 401.833 360 368.333 360 325 c 0
 360 301.667 354.333 281.333 343 264 c 0
 336.333 254.667 325.667 244 311 232 c 1
 323 224.667 334.167 211.667 344.5 193 c 0
 354.833 174.333 360 151.667 360 125 c 1
278 325 m 0
 278 347 271.833 363.167 259.5 373.5 c 0
 247.167 383.833 231.667 389.333 213 390 c 0
 193.667 390.667 178.167 385.5 166.5 374.5 c 0
 154.833 363.5 148.667 348.667 148 330 c 0
 147.333 293.333 169 274.333 213 273 c 0
 232.333 272.333 247 275 257 281 c 0
 271 289 278 303.667 278 325 c 0
278 125 m 0
 278 149.667 271.667 168.667 259 182 c 0
 246.333 195.333 231 202.333 213 203 c 0
 193 203.667 175.167 195.833 159.5 179.5 c 0
 143.833 163.167 135.667 145 135 125 c 0
 133.667 83 159.667 61.3333 213 60 c 0
 256.333 58.6667 278 80.3333 278 125 c 0
EndSplineSet
EndChar
StartChar: nine
Encoding: 57 57
Width: 391
Flags: W
Fore
383 233 m 1
 383 233 l 1
 383 71.6667 326.333 -9.33333 213 -10 c 0
 131 -10.6667 81.3333 28.6667 64 108 c 1
 146 126 l 1
 150 106 158 89.3333 170 76 c 1
 182.667 65.3333 196 60 210 60 c 0
 240 59.3333 262.333 72.6667 277 100 c 0
 289 121.333 295 148.333 295 181 c 1
 268.333 163 239 154 207 154 c 0
 160.333 154 123.167 167.5 95.5 194.5 c 0
 67.8333 221.5 53.6667 258 53 304 c 0
 52.3333 336.667 60.1667 366 76.5 392 c 0
 92.8333 418 116 436.667 146 448 c 0
 166 456 189 460 215 460 c 0
 325 461.333 381 385.667 383 233 c 1
284 304 m 0
 284.667 326.667 278.5 346.5 265.5 363.5 c 0
 252.5 380.5 235 389.333 213 390 c 0
 189.667 390.667 171.5 382.833 158.5 366.5 c 0
 145.5 350.167 139 330 139 306 c 0
 139 282.667 145.5 263 158.5 247 c 0
 171.5 231 189.333 223 212 223 c 0
 259.333 223 283.333 250 284 304 c 0
EndSplineSet
EndChar
StartChar: colon
Encoding: 58 58
Width: 166
Flags: W
Fore
169 271 m 1
 169 271 l 1
 169 254.333 163.5 240.667 152.5 230 c 0
 141.5 219.333 127.667 213.667 111 213 c 0
 93.6667 212.333 79.8333 217.5 69.5 228.5 c 0
 59.1667 239.5 53.6667 253.667 53 271 c 0
 52.3333 287.667 57.6667 301.5 69 312.5 c 0
 80.3333 323.5 94.3333 329.333 111 330 c 0
 127.667 330.667 141.333 325.167 152 313.5 c 0
 162.667 301.833 168.333 287.667 169 271 c 1
169 48 m 0
 169.667 32 164.167 18.5 152.5 7.5 c 0
 140.833 -3.5 127 -9.33333 111 -10 c 0
 93.6667 -10.6667 79.8333 -5.5 69.5 5.5 c 0
 59.1667 16.5 53.6667 30.6667 53 48 c 0
 52.3333 64.6667 57.6667 78.5 69 89.5 c 0
 80.3333 100.5 94.3333 106.333 111 107 c 0
 127.667 107.667 141.333 102.167 152 90.5 c 0
 162.667 78.8333 168.333 64.6667 169 48 c 0
EndSplineSet
EndChar
StartChar: semicolon
Encoding: 59 59
Width: 217
Flags: W
Fore
187 276 m 1
 187 276 l 1
 187 259.333 181.5 245.667 170.5 235 c 0
 159.5 224.333 145.667 218.667 129 218 c 0
 111.667 217.333 97.8333 222.5 87.5 233.5 c 0
 77.1667 244.5 71.6667 258.667 71 276 c 0
 70.3333 292.667 75.6667 306.5 87 317.5 c 0
 98.3333 328.5 112.333 334.333 129 335 c 0
 145.667 335.667 159.333 330.167 170 318.5 c 0
 180.667 306.833 186.333 292.667 187 276 c 1
211 3 m 0
 211.667 -26.3333 200.667 -55.6667 178 -85 c 0
 155.333 -114.333 130 -133.667 102 -143 c 1
 69 -104 l 1
 109 -86.6667 136 -61.6667 150 -29 c 1
 157 0 l 1
 146.333 -4 135.667 -6.33333 125 -7 c 0
 109 -7.66667 95.3333 -1.83333 84 10.5 c 0
 72.6667 22.8333 67 37 67 53 c 0
 67 70.3333 72.8333 84.6667 84.5 96 c 0
 96.1667 107.333 110.667 113 128 113 c 0
 182 113 209.667 76.3333 211 3 c 0
EndSplineSet
EndChar
StartChar: less
Encoding: 60 60
Width: 558
Flags: W
Fore
542 -53 m 1
 81 151 l 1
 81 214 l 1
 542 416 l 1
 542 336 l 1
 200 182 l 1
 542 24 l 1
 542 -53 l 1
EndSplineSet
EndChar
StartChar: greater
Encoding: 62 62
Width: 547
Flags: W
Fore
531 150 m 1
 69 -51 l 1
 69 27 l 1
 411 181 l 1
 69 340 l 1
 69 418 l 1
 531 213 l 1
 531 150 l 1
EndSplineSet
EndChar
StartChar: question
Encoding: 63 63
Width: 370
Flags: W
Fore
370 413 m 1
 370 413 l 1
 370 374.333 345.667 335.333 297 296 c 0
 235.667 246.667 199.333 214.333 188 199 c 1
 185 187 l 1
 185 167 197 150.667 221 138 c 1
 216 119 l 1
 148 119 l 1
 122 145 109 170.333 109 195 c 1
 113 217 l 1
 119 235.667 137.667 257.667 169 283 c 2
 247 347 l 2
 273.667 369 287.333 395 288 425 c 0
 288.667 447 279 465.667 259 481 c 0
 241.667 495 221.667 502.333 199 503 c 0
 189.667 503 179 499.667 167 493 c 0
 157.667 489 149.333 483 142 475 c 1
 157.333 475 170.167 469.167 180.5 457.5 c 0
 190.833 445.833 196.333 432 197 416 c 0
 197.667 400.667 191.833 387.167 179.5 375.5 c 0
 167.167 363.833 153.333 357.667 138 357 c 0
 120 356.333 102.333 363.333 85 378 c 1
 71 392 63.6667 410.667 63 434 c 0
 62.3333 473.333 76.6667 506.167 106 532.5 c 0
 135.333 558.833 170 572.333 210 573 c 0
 256.667 573.667 294.833 559 324.5 529 c 0
 354.167 499 369.333 460.333 370 413 c 1
251 48 m 0
 251.667 32 246.167 18.5 234.5 7.5 c 0
 222.833 -3.5 209 -9.33333 193 -10 c 0
 175.667 -10.6667 161.833 -5.5 151.5 5.5 c 0
 141.167 16.5 135.667 30.6667 135 48 c 0
 134.333 64 139.833 77.5 151.5 88.5 c 0
 163.167 99.5 177 105.333 193 106 c 0
 209 106.667 222.5 101.167 233.5 89.5 c 0
 244.5 77.8333 250.333 64 251 48 c 0
EndSplineSet
EndChar
StartChar: at
Encoding: 64 64
Width: 691
Flags: W
Fore
669 293 m 1
 669 293 l 1
 669 239.667 652 190 618 144 c 0
 580.667 93.3333 536 67.6667 484 67 c 0
 470 67 457.333 69.6667 446 75 c 0
 437.333 79.6667 427.667 87.6667 417 99 c 1
 391 79 362.333 68.6667 331 68 c 0
 295.667 67.3333 267.833 78.8333 247.5 102.5 c 0
 227.167 126.167 216.667 155.333 216 190 c 0
 215.333 246.667 233.667 299 271 347 c 0
 311 398.333 358.333 424.333 413 425 c 0
 447 425.667 474 413.667 494 389 c 1
 502 410 l 1
 571 410 l 1
 481 136 l 1
 481 128 485.667 124 495 124 c 0
 526.333 124 553 145.667 575 189 c 0
 593.667 225 603.333 260.333 604 295 c 0
 604.667 351 585 396.667 545 432 c 0
 507 464.667 459.333 481.333 402 482 c 0
 336 482.667 281.667 459.667 239 413 c 0
 196.333 366.333 174.667 309.667 174 243 c 0
 173.333 178.333 195.333 123.833 240 79.5 c 0
 284.667 35.1667 339.333 12.6667 404 12 c 0
 484.667 11.3333 549.333 45.3333 598 114 c 1
 663 114 l 1
 637.667 66 601.167 27.6667 553.5 -1 c 0
 505.833 -29.6667 456 -44 404 -44 c 0
 320.667 -44 250.833 -15.5 194.5 41.5 c 0
 138.167 98.5 109.667 167.667 109 249 c 0
 108.333 328.333 137 396.333 195 453 c 0
 253 509.667 321.667 538.333 401 539 c 0
 475.667 539.667 538.333 517.667 589 473 c 0
 641 426.333 667.667 366.333 669 293 c 1
455 317 m 0
 455 345.667 441.333 360.333 414 361 c 0
 379.333 361.667 350 341.667 326 301 c 0
 305.333 266.333 294.667 230.333 294 193 c 0
 294 180.333 298 166.667 306 152 c 1
 314 141.333 326 135.667 342 135 c 0
 370 134.333 396.667 156.667 422 202 c 0
 444 240.667 455 279 455 317 c 0
EndSplineSet
EndChar
StartChar: grave
Encoding: 96 96
Width: 179
Flags: W
Fore
181 441 m 0
 181.667 425 176.667 411.5 166 400.5 c 0
 155.333 389.5 142 383.667 126 383 c 0
 78.6667 381.667 54.3333 416.667 53 488 c 0
 52.3333 516.667 61.8333 546.167 81.5 576.5 c 0
 101.167 606.833 124.333 627 151 637 c 1
 178 598 l 1
 144 580 120.667 556 108 526 c 0
 104 513.333 102 503 102 495 c 1
 110 499 118.667 501 128 501 c 0
 143.333 501 155.833 494.833 165.5 482.5 c 0
 175.167 470.167 180.333 456.333 181 441 c 0
EndSplineSet
EndChar
StartChar: otilde
Encoding: 245 245
Width: 949
Flags: W
Fore
75 174 m 1
 946 174 l 1
 946 254 l 1
 65 254 l 1
 65 184 l 1
 75 174 l 1
EndSplineSet
EndChar
StartChar: odieresis
Encoding: 246 246
Width: 506
Flags: W
Fore
36 244 m 1
 36 174 l 1
 486 174 l 1
 486 254 l 1
 46 254 l 1
 36 244 l 1
EndSplineSet
EndChar
StartChar: uni0D02
Encoding: 3330 3330
Width: 426
Flags: HW
Fore
207 -10 m 0
 153 -10 108.833 5.83333 74.5 37.5 c 0
 40.1667 69.1667 23 111.667 23 165 c 0
 23 219 40.1667 262.833 74.5 296.5 c 0
 108.833 330.167 153 347 207 347 c 0
 261 347 305 329.833 339 295.5 c 0
 373 261.167 390.333 217.333 391 164 c 0
 391.667 111.333 374.5 69.1667 339.5 37.5 c 0
 304.5 5.83333 260.333 -10 207 -10 c 0
207 60 m 0
 239 60 264.667 70.5 284 91.5 c 0
 303.333 112.5 313.333 139.333 314 172 c 0
 314.667 203.333 304.833 228.667 284.5 248 c 0
 264.167 267.333 238.333 277 207 277 c 0
 175 277 149.167 267.5 129.5 248.5 c 0
 109.833 229.5 100 204 100 172 c 0
 100 139.333 109.667 112.5 129 91.5 c 0
 148.333 70.5 174.333 60 207 60 c 0
EndSplineSet
EndChar
StartChar: uni0D03
Encoding: 3331 3331
Width: 315
Flags: HW
Fore
163 228 m 0
 129 227.333 101.833 238 81.5 260 c 0
 61.1667 282 50.6667 310 50 344 c 0
 49.3333 378 59.5 405.667 80.5 427 c 0
 101.5 448.333 129 459.333 163 460 c 1
 163 460 l 1
 198.333 460 226.667 448 248 424 c 0
 266 403.333 275.333 376.667 276 344 c 0
 276.667 309.333 266.667 281.5 246 260.5 c 0
 225.333 239.5 197.667 228.667 163 228 c 0
163 -10 m 0
 128.333 -10.6667 100.667 0.666667 80 24 c 0
 61.3333 45.3333 51.6667 72.6667 51 106 c 0
 50.3333 140.667 60.1667 168.667 80.5 190 c 0
 100.833 211.333 128.333 222.333 163 223 c 0
 197 223.667 224.167 213 244.5 191 c 0
 264.833 169 275.333 140.667 276 106 c 0
 276.667 71.3333 266.667 43.5 246 22.5 c 0
 225.333 1.5 197.667 -9.33333 163 -10 c 0
163 298 m 0
 187.667 297.333 200.667 312.667 202 344 c 0
 203.333 373.333 190.333 388.667 163 390 c 0
 138.333 390.667 125.333 375.333 124 344 c 0
 122.667 314.667 135.667 299.333 163 298 c 0
163 60 m 0
 187 59.3333 199.667 74.6667 201 106 c 0
 202.333 135.333 189.667 151 163 153 c 1
 163 153 l 1
 138.333 153 125.333 137.333 124 106 c 0
 122.667 76.6667 135.667 61.3333 163 60 c 0
EndSplineSet
EndChar
StartChar: uni0D05
Encoding: 3333 3333
Width: 1041
Flags: HW
Fore
885 335 m 1
 876.333 352.333 860.667 366.333 838 377 c 0
 818 385.667 797 390 775 390 c 0
 738.333 390 710 378.333 690 355 c 0
 670 331.667 660 301 660 263 c 1
 661 -10 l 1
 578 -10 l 1
 578 263 l 2
 578 346.333 545 389 479 391 c 1
 465 390 l 1
 450 385 l 1
 480.667 364.333 496.667 327.667 498 275 c 0
 498 263.667 493.667 250.833 485 236.5 c 0
 476.333 222.167 464.667 210.333 450 201 c 1
 482 185 498 155.667 498 113 c 0
 498 75.6667 482 45.6667 450 23 c 0
 422 3 388.667 -7.33333 350 -8 c 0
 292.667 -8.66667 247.333 12 214 54 c 0
 183.333 92.6667 167.667 141.333 167 200 c 0
 166.333 237.333 174.833 273.5 192.5 308.5 c 0
 210.167 343.5 234.333 370.333 265 389 c 1
 240 390 l 2
 213.333 391.333 184 373.667 152 337 c 0
 118 298.333 100.667 257 100 213 c 0
 98.6667 127 131.667 65 199 27 c 1
 125 -13 l 1
 53 49 17 124.333 17 213 c 0
 17 286.333 43.3333 347 96 395 c 0
 142.667 437.667 198.333 459.333 263 460 c 0
 277 460 285.667 459.667 289 459 c 0
 295.667 459 303.667 457 313 453 c 0
 315.667 452.333 320.667 450.333 328 447 c 0
 332.667 445.667 340.667 442 352 436 c 1
 402 453 l 2
 408 454.333 417 455.833 429 457.5 c 0
 441 459.167 452.333 460 463 460 c 0
 501 460.667 534.333 454 563 440 c 0
 589.667 426.667 610.667 407.333 626 382 c 1
 642 404.667 663.833 423.333 691.5 438 c 0
 719.167 452.667 747 460 775 460 c 0
 847 460 905.333 432 950 376 c 0
 988 328 1007.33 268.667 1008 198 c 0
 1008.67 140.667 995 93 967 55 c 0
 935.667 12.3333 892.333 -9 837 -9 c 1
 796.333 -5 764.667 9.33333 742 34 c 0
 719.333 58.6667 708 91.3333 708 132 c 0
 708 182.667 724.667 228.333 758 269 c 0
 792.667 312.333 835 334.333 885 335 c 1
909 267 m 1
 875.667 269 847.333 256 824 228 c 0
 800.667 200 788.667 167.333 788 130 c 0
 787.333 85.3333 808 62 850 60 c 1
 850 60 l 1
 885.333 60 910.667 87.6667 926 143 c 0
 930 157.667 932 174 932 192 c 0
 932 210.667 930.667 225.333 928 236 c 0
 925.333 246.667 919 257 909 267 c 1
415 113 m 0
 415 123 409.167 134.167 397.5 146.5 c 0
 385.833 158.833 370 165 350 165 c 2
 305 165 l 1
 305 235 l 1
 350 235 l 2
 392 235 413.667 252.667 415 288 c 0
 415.667 303.333 409.833 318.333 397.5 333 c 0
 385.167 347.667 366.333 358 341 364 c 1
 321 358 302.333 340 285 310 c 0
 264.333 274.667 252.667 237.667 250 199 c 2
 249 185 l 2
 247 157 256.333 128.667 277 100 c 0
 295.667 74 320 60.6667 350 60 c 0
 366 60 380.833 65 394.5 75 c 0
 408.167 85 415 97.6667 415 113 c 0
EndSplineSet
EndChar
StartChar: uni0D06
Encoding: 3334 3334
Width: 1220
Flags: HW
Fore
1166 88 m 0
 1166.67 13.3333 1140.67 -47.6667 1088 -95 c 0
 1038 -140.333 981 -161.667 917 -159 c 2
 892 -158 l 2
 858 -156.667 811.667 -147.333 753 -130 c 1
 790 -59 l 1
 809.333 -70.3333 837.667 -79 875 -85 c 1
 919 -88 l 2
 961.667 -90.6667 997.333 -75.6667 1026 -43 c 0
 1052 -13 1071 31.3333 1083 90 c 1
 1083 129.333 1078.33 160.667 1069 184 c 0
 1057.67 212 1037.33 235.333 1008 254 c 1
 1011 229 l 1
 1012 204 l 1
 1014 148.667 998.333 98.5 965 53.5 c 0
 931.667 8.5 895.333 -12.6667 856 -10 c 2
 842 -9 l 2
 803.333 -6.33333 772.667 7 750 31 c 0
 727.333 55 715.667 86.3333 715 125 c 0
 714.333 170.333 729.667 215.667 761 261 c 0
 795.667 310.333 834.667 335 878 335 c 1
 860 371.667 827.667 390 781 390 c 0
 744.333 390 716 378.333 696 355 c 0
 676 331.667 666 301 666 263 c 2
 666 -10 l 1
 583 -10 l 1
 583 263 l 2
 583 302.333 574.833 333.5 558.5 356.5 c 0
 542.167 379.5 517.333 391.333 484 392 c 2
 470 391 l 1
 454 386 l 1
 486.667 364.667 503 327.667 503 275 c 0
 503 245 487.333 220.667 456 202 c 1
 472 194 483.833 182 491.5 166 c 0
 499.167 150 503 132.333 503 113 c 0
 503 72.3333 484 39.6667 446 15 c 0
 421.333 -1 391.333 -9.33333 356 -10 c 0
 298 -10.6667 252 10 218 52 c 0
 187.333 91.3333 171.667 140.667 171 200 c 0
 170.333 237.333 178.833 273.5 196.5 308.5 c 0
 214.167 343.5 238.333 370.333 269 389 c 1
 244 390 l 2
 217.333 391.333 188 373.667 156 337 c 0
 122 298.333 104.667 257 104 213 c 0
 103.333 171.667 111 136 127 106 c 0
 141.667 79.3333 166 52.3333 200 25 c 1
 130 -13 l 1
 57.3333 49 21 124.333 21 213 c 0
 21 286.333 47.3333 347 100 395 c 0
 146.667 437.667 203 459.333 269 460 c 0
 297.667 460.667 327.333 452.667 358 436 c 1
 408 453 l 1
 427.333 457 447.333 459.333 468 460 c 0
 544 461.333 598.667 435.667 632 383 c 1
 669.333 433 719 458.667 781 460 c 0
 827 460.667 868 450 904 428 c 0
 937.333 407.333 961.333 376.333 976 335 c 1
 1040 335 1088.67 308.667 1122 256 c 0
 1150.67 212 1165.33 156 1166 88 c 0
913 267 m 1
 895 269 l 1
 865 269 840 255.167 820 227.5 c 0
 800 199.833 789.667 170.667 789 140 c 0
 788.333 94 811 67.3333 857 60 c 1
 857 60 l 1
 882.333 60 901.833 72.6667 915.5 98 c 0
 929.167 123.333 936.333 153.333 937 188 c 0
 937.667 222 929.667 248.333 913 267 c 1
421 113 m 0
 421 123 415.167 134.167 403.5 146.5 c 0
 391.833 158.833 376 165 356 165 c 2
 309 165 l 1
 309 235 l 1
 356 235 l 2
 372 235 386.833 240 400.5 250 c 0
 414.167 260 421 272.667 421 288 c 0
 421 327.333 395.667 352.667 345 364 c 1
 325 358 306.333 340 289 310 c 0
 268.333 274.667 256.667 237.667 254 199 c 2
 253 185 l 2
 251 154.333 260.167 125.833 280.5 99.5 c 0
 300.833 73.1667 326 60 356 60 c 0
 372 60 386.833 65 400.5 75 c 0
 414.167 85 421 97.6667 421 113 c 0
EndSplineSet
EndChar
StartChar: uni0D07
Encoding: 3335 3335
Width: 771
Flags: HW
Fore
732 236 m 0
 732.667 163.333 710 106.167 664 64.5 c 0
 618 22.8333 558.333 2 485 2 c 2
 185 2 l 2
 167 2 152.667 -2.83333 142 -12.5 c 0
 131.333 -22.1667 126 -34 126 -48 c 0
 126 -64 131.667 -77 143 -87 c 0
 154.333 -97 168.333 -102 185 -102 c 2
 707 -102 l 1
 707 -172 l 1
 184 -172 l 2
 145.333 -172 112 -160 84 -136 c 0
 56 -112 42 -81 42 -43 c 0
 42 -12.3333 53.3333 14 76 36 c 0
 101.333 60 137.333 72 184 72 c 2
 521 72 l 1
 559 76 590.333 95 615 129 c 0
 637.667 161 649.333 196.667 650 236 c 0
 650.667 277.333 642.167 313.167 624.5 343.5 c 0
 606.833 373.833 581 389 547 389 c 0
 521.667 389 501 381.333 485 366 c 0
 466.333 347.333 457 320.333 457 285 c 1
 458 114 l 1
 375 114 l 1
 375 286 l 2
 375 318.667 361.333 344.333 334 363 c 0
 310 379.667 281 388.333 247 389 c 0
 203 389.667 167.667 377.667 141 353 c 1
 156.333 357 175 359 197 359 c 1
 229 355 255.167 340.833 275.5 316.5 c 0
 295.833 292.167 306 263.667 306 231 c 0
 306 191.667 293.667 160.5 269 137.5 c 0
 244.333 114.5 212 102.667 172 102 c 0
 126 101.333 90 116.667 64 148 c 0
 38.6667 176.667 26 214.333 26 261 c 0
 26 316.333 47 363.167 89 401.5 c 0
 131 439.833 179.667 459 235 459 c 0
 273.667 459 303.667 455.333 325 448 c 0
 355.667 437.333 384 418 410 390 c 1
 424.667 406.667 442 422.333 462 437 c 1
 487.333 451 515.667 458.333 547 459 c 0
 605 459.667 651.333 436.667 686 390 c 0
 716 350 731.333 298.667 732 236 c 0
172 171 m 0
 189.333 170.333 204 175.5 216 186.5 c 0
 228 197.5 234.333 211.667 235 229 c 0
 235.667 247 229.667 261.5 217 272.5 c 0
 204.333 283.5 189 289 171 289 c 0
 153 289 137.333 283 124 271 c 1
 114 259 108.667 245.333 108 230 c 0
 106.667 192 128 172.333 172 171 c 0
EndSplineSet
EndChar
StartChar: uni0D08
Encoding: 3336 3336
Width: 1366
Flags: HW
Fore
1168 460 m 0
 1224.67 460 1271.33 436.333 1308 389 c 0
 1340.67 346.333 1357.33 293.667 1358 231 c 0
 1358.67 159 1337 101 1293 57 c 0
 1249 13 1190.67 -9.33301 1118 -10 c 0
 1066 -10.667 1023.33 1 990 25 c 0
 953.333 51.667 934.333 90 933 140 c 1
 1015 140 l 1
 1015 84.667 1053.33 57 1130 57 c 0
 1177.33 57 1214.67 76 1242 114 c 0
 1266.67 148 1279.33 189.333 1280 238 c 0
 1280.67 280.667 1270.67 316 1250 344 c 0
 1227.33 376 1195.67 392.333 1155 393 c 0
 1130.33 393.667 1111.33 386 1098 370 c 0
 1084.67 354 1078 333.333 1078 308 c 2
 1078 190 l 1
 995 190 l 1
 995 308 l 2
 995 332.667 988.167 353 974.5 369 c 0
 960.833 385 942 393 918 393 c 0
 892 393 871.667 380.667 857 356 c 1
 842.333 326 836 291.333 838 252 c 1
 841 190 l 1
 759 190 l 1
 755 229 l 1
 754 254 l 1
 751.333 314 767.333 364 802 404 c 0
 833.333 440.667 876 459.333 930 460 c 0
 975.333 460.667 1009.33 440.667 1032 400 c 1
 1064 440 1109.33 460 1168 460 c 0
732 236 m 0
 732.667 163.333 710 106.167 664 64.5 c 0
 618 22.8333 558.333 2 485 2 c 2
 185 2 l 2
 167 2 152.667 -2.83333 142 -12.5 c 0
 131.333 -22.1667 126 -34 126 -48 c 0
 126 -64 131.667 -77 143 -87 c 0
 154.333 -97 168.333 -102 185 -102 c 2
 707 -102 l 1
 707 -172 l 1
 184 -172 l 2
 145.333 -172 112 -160 84 -136 c 0
 56 -112 42 -81 42 -43 c 0
 42 -12.3333 53.3333 14 76 36 c 0
 101.333 60 137.333 72 184 72 c 2
 521 72 l 1
 559 76 590.333 95 615 129 c 0
 637.667 161 649.333 196.667 650 236 c 0
 650.667 277.333 642.167 313.167 624.5 343.5 c 0
 606.833 373.833 581 389 547 389 c 0
 521.667 389 501 381.333 485 366 c 0
 466.333 347.333 457 320.333 457 285 c 1
 458 114 l 1
 375 114 l 1
 375 286 l 2
 375 318.667 361.333 344.333 334 363 c 0
 310 379.667 281 388.333 247 389 c 0
 203 389.667 167.667 377.667 141 353 c 1
 156.333 357 175 359 197 359 c 1
 229 355 255.167 340.833 275.5 316.5 c 0
 295.833 292.167 306 263.667 306 231 c 0
 306 191.667 293.667 160.5 269 137.5 c 0
 244.333 114.5 212 102.667 172 102 c 0
 126 101.333 90 116.667 64 148 c 0
 38.6667 176.667 26 214.333 26 261 c 0
 26 316.333 47 363.167 89 401.5 c 0
 131 439.833 179.667 459 235 459 c 0
 273.667 459 303.667 455.333 325 448 c 0
 355.667 437.333 384 418 410 390 c 1
 424.667 406.667 442 422.333 462 437 c 1
 487.333 451 515.667 458.333 547 459 c 0
 605 459.667 651.333 436.667 686 390 c 0
 716 350 731.333 298.667 732 236 c 0
172 171 m 0
 189.333 170.333 204 175.5 216 186.5 c 0
 228 197.5 234.333 211.667 235 229 c 0
 235.667 247 229.667 261.5 217 272.5 c 0
 204.333 283.5 189 289 171 289 c 0
 153 289 137.333 283 124 271 c 1
 114 259 108.667 245.333 108 230 c 0
 106.667 192 128 172.333 172 171 c 0
EndSplineSet
EndChar
StartChar: uni0D09
Encoding: 3337 3337
Width: 563
Flags: HW
Fore
520 -171 m 1
 222 -171 l 2
 108 -171 46.6667 -134.333 38 -61 c 1
 38 -20.3333 50.1667 12.3333 74.5 37 c 0
 98.8333 61.6667 131.333 74 172 74 c 2
 322 74 l 2
 397.333 74 435.667 128.667 437 238 c 0
 437.667 284 419.333 321.333 382 350 c 0
 348 376 307.333 389.333 260 390 c 0
 235.333 390.667 212.333 386 191 376 c 1
 167 368 148 356.333 134 341 c 1
 159 347 l 1
 185 348 l 2
 221 349.333 250.667 336 274 308 c 0
 295.333 282 306.333 250.333 307 213 c 0
 307.667 179 293.333 151.667 264 131 c 0
 238 112.333 207.333 103 172 103 c 0
 122 103 82.6667 119 54 151 c 0
 34.6667 173.667 25 202.667 25 238 c 0
 25 308.667 49 364 97 404 c 0
 141.667 440.667 200 459.333 272 460 c 0
 349.333 460.667 410 440.833 454 400.5 c 0
 498 360.167 520 301.667 520 225 c 0
 520 77 450 3 310 3 c 2
 185 3 l 2
 143 3 121.667 -14 121 -48 c 0
 120.333 -66 131.333 -80 154 -90 c 0
 170.667 -97.3333 189.333 -101 210 -101 c 2
 520 -101 l 1
 520 -171 l 1
225 226 m 0
 225 240.667 219.833 252.833 209.5 262.5 c 0
 199.167 272.167 186.667 277.333 172 278 c 1
 172 278 l 1
 155.333 278 140.5 273.167 127.5 263.5 c 0
 114.5 253.833 107.667 241 107 225 c 0
 106.333 211.667 112.667 199 126 187 c 1
 138.667 178.333 154 173.667 172 173 c 0
 188 172.333 200.833 177 210.5 187 c 0
 220.167 197 225 210 225 226 c 0
EndSplineSet
EndChar
StartChar: uni0D0A
Encoding: 3338 3338
Width: 1161
Flags: HW
Fore
963 460 m 0
 1019.67 460 1066.33 436.333 1103 389 c 0
 1135.67 346.333 1152.33 293.667 1153 231 c 0
 1153.67 159 1132 101 1088 57 c 0
 1044 13 985.667 -9.33301 913 -10 c 0
 861 -10.667 818.333 1 785 25 c 0
 748.333 51.667 729.333 90 728 140 c 1
 810 140 l 1
 810 84.667 848.333 57 925 57 c 0
 972.333 57 1009.67 76 1037 114 c 0
 1061.67 148 1074.33 189.333 1075 238 c 0
 1075.67 280.667 1065.67 316 1045 344 c 0
 1022.33 376 990.667 392.333 950 393 c 0
 925.333 393.667 906.333 386 893 370 c 0
 879.667 354 873 333.333 873 308 c 2
 873 190 l 1
 790 190 l 1
 790 308 l 2
 790 332.667 783.167 353 769.5 369 c 0
 755.833 385 737 393 713 393 c 0
 687 393 666.667 380.667 652 356 c 1
 637.333 326 631 291.333 633 252 c 1
 636 190 l 1
 554 190 l 1
 550 229 l 1
 549 254 l 1
 546.333 314 562.333 364 597 404 c 0
 628.333 440.667 671 459.333 725 460 c 0
 770.333 460.667 804.333 440.667 827 400 c 1
 859 440 904.333 460 963 460 c 0
520 -171 m 1
 222 -171 l 2
 108 -171 46.6667 -134.333 38 -61 c 1
 38 -20.3333 50.1667 12.3333 74.5 37 c 0
 98.8333 61.6667 131.333 74 172 74 c 2
 322 74 l 2
 397.333 74 435.667 128.667 437 238 c 0
 437.667 284 419.333 321.333 382 350 c 0
 348 376 307.333 389.333 260 390 c 0
 235.333 390.667 212.333 386 191 376 c 1
 167 368 148 356.333 134 341 c 1
 159 347 l 1
 185 348 l 2
 221 349.333 250.667 336 274 308 c 0
 295.333 282 306.333 250.333 307 213 c 0
 307.667 179 293.333 151.667 264 131 c 0
 238 112.333 207.333 103 172 103 c 0
 122 103 82.6667 119 54 151 c 0
 34.6667 173.667 25 202.667 25 238 c 0
 25 308.667 49 364 97 404 c 0
 141.667 440.667 200 459.333 272 460 c 0
 349.333 460.667 410 440.833 454 400.5 c 0
 498 360.167 520 301.667 520 225 c 0
 520 77 450 3 310 3 c 2
 185 3 l 2
 143 3 121.667 -14 121 -48 c 0
 120.333 -66 131.333 -80 154 -90 c 0
 170.667 -97.3333 189.333 -101 210 -101 c 2
 520 -101 l 1
 520 -171 l 1
225 226 m 0
 225 240.667 219.833 252.833 209.5 262.5 c 0
 199.167 272.167 186.667 277.333 172 278 c 1
 172 278 l 1
 155.333 278 140.5 273.167 127.5 263.5 c 0
 114.5 253.833 107.667 241 107 225 c 0
 106.333 211.667 112.667 199 126 187 c 1
 138.667 178.333 154 173.667 172 173 c 0
 188 172.333 200.833 177 210.5 187 c 0
 220.167 197 225 210 225 226 c 0
EndSplineSet
EndChar
StartChar: uni0D0B
Encoding: 3339 3339
Width: 722
Flags: HW
Fore
688 301 m 2
 689 287 l 1
 689 274 l 2
 689 190 650.333 129 573 91 c 1
 633 76.3333 663 29.6667 663 -49 c 0
 663 -99.6667 625.333 -136.667 550 -160 c 0
 500 -176 442.667 -184 378 -184 c 0
 172.667 -185.333 69.3333 -132 68 -24 c 0
 67.3333 6 77.3333 31.6667 98 53 c 0
 110 65.6667 132.333 78.3333 165 91 c 1
 92.3333 131.667 56 193 56 275 c 0
 56 341 75 390.667 113 424 c 0
 140.333 447.333 174.667 459.333 216 460 c 0
 260.667 460.667 295 444.667 319 412 c 0
 339.667 384 350.333 346.667 351 300 c 0
 351.667 272.667 343.667 248.5 327 227.5 c 0
 310.333 206.5 289 192.333 263 185 c 0
 249 180.333 233.333 178 216 178 c 0
 191.333 177.333 168.667 186 148 204 c 1
 168 174.667 195.667 151.833 231 135.5 c 0
 266.333 119.167 311.333 110.667 366 110 c 0
 409.333 109.333 452.333 117 495 133 c 0
 535.667 148.333 566 168.667 586 194 c 1
 560 182 l 1
 528 178 l 1
 487.333 178 454.333 192.667 429 222 c 0
 405.667 249.333 393.667 283.667 393 325 c 0
 392.333 366.333 404.5 399 429.5 423 c 0
 454.5 447 487.333 459.333 528 460 c 0
 572 460.667 608.333 446.667 637 418 c 0
 667.667 387.333 684.667 348.333 688 301 c 2
581 325 m 0
 581 367.667 563.333 389.333 528 390 c 0
 509.333 390.667 494.667 380.667 484 360 c 0
 478.667 350.667 476 339 476 325 c 0
 474.667 274.333 492 248.667 528 248 c 0
 562.667 247.333 580.333 273 581 325 c 0
268 325 m 0
 268.667 344.333 262.833 359.833 250.5 371.5 c 0
 238.167 383.167 222.333 389.333 203 390 c 0
 169 390.667 151.667 369 151 325 c 0
 150.333 275.667 167.667 250 203 248 c 1
 203 248 l 1
 245 248 266.667 273.667 268 325 c 0
581 -36 m 0
 581.667 -5.33333 560 16 516 28 c 0
 487.333 36 433 40 353 40 c 1
 353 40 l 1
 290.333 40 252.333 38.3333 239 35 c 1
 181 27 151.667 7.66667 151 -23 c 0
 150.333 -56.3333 179.667 -81 239 -97 c 0
 278.333 -107.667 320.667 -113.333 366 -114 c 0
 430.667 -114.667 483 -107.333 523 -92 c 0
 561 -77.3333 580.333 -58.6667 581 -36 c 0
EndSplineSet
EndChar
StartChar: uni0D0C
Encoding: 3340 3340
Width: 912
Flags: HW
Fore
231 147 m 0
 231.667 165 226 180.167 214 192.5 c 0
 202 204.833 190 211 178 211 c 2
 100 211 l 1
 99 187 l 2
 97.6667 156.333 102.667 130 114 108 c 0
 128 82 149.333 68.6667 178 68 c 0
 212 67.3333 229.667 93.6667 231 147 c 0
792 187 m 2
 791 211 l 1
 713 211 l 2
 693.667 211 678.667 200.667 668 180 c 0
 662.667 171.333 660 160.333 660 147 c 0
 658.667 94.3333 676.333 68 713 68 c 0
 741 68 761 79.3333 773 102 c 0
 787 128 793.333 156.333 792 187 c 2
555 464 m 0
 568.333 466.667 583.667 468 601 468 c 0
 635.667 468.667 670 463 704 451 c 0
 736 439.667 761.667 424.333 781 405 c 1
 797 393 812.5 375.167 827.5 351.5 c 0
 842.5 327.833 854.667 301.333 864 272 c 1
 874 212 l 1
 874 151.333 862.667 102.667 840 66 c 0
 812 21.3333 769.667 -1 713 -1 c 0
 671 -1 637.667 13.3333 613 42 c 0
 589.667 68.6667 578 103.333 578 146 c 0
 578 186.667 592.333 219.333 621 244 c 0
 649.667 268.667 684.333 281 725 281 c 2
 776 281 l 1
 764.667 317 749.667 340.667 731 352 c 1
 703 382.667 661.333 398.333 606 399 c 0
 572 399.667 544 391.333 522 374 c 0
 498 355.333 486 329.333 486 296 c 2
 486 -1 l 1
 405 -1 l 1
 405 296 l 2
 405 330 393 356 369 374 c 0
 347.667 390.667 319.667 399 285 399 c 0
 261 399 237.333 394.5 214 385.5 c 0
 190.667 376.5 172.667 365.333 160 352 c 1
 142.667 341.333 127.667 317.667 115 281 c 1
 166 281 l 2
 207.333 281 242.167 268.667 270.5 244 c 0
 298.833 219.333 313 186.667 313 146 c 0
 313 103.333 301.333 68.6667 278 42 c 0
 253.333 13.3333 220 -1 178 -1 c 0
 72.6667 -1 19 70 17 212 c 1
 27 272 l 1
 36.3333 300.667 48.3333 327 63 351 c 0
 80.3333 379 96 397 110 405 c 1
 126 423 151.667 438.333 187 451 c 0
 217.667 461.667 252 467.333 290 468 c 0
 359.333 469.333 411.333 448.333 446 405 c 1
 470.667 435.667 507 455.333 555 464 c 0
EndSplineSet
EndChar
StartChar: uni0D0E
Encoding: 3342 3342
Width: 971
Flags: HW
Fore
815 -186 m 1
 780 -135 l 1
 830.667 -88.3333 856.333 -7.66667 857 107 c 0
 857.667 171 847.667 229.333 827 282 c 0
 799.667 353.333 759 389.333 705 390 c 0
 588.333 391.333 529 281.333 527 60 c 1
 658 60 l 1
 658 348 l 1
 740 348 l 1
 740 -35 l 2
 740 -79.6667 729 -115 707 -141 c 0
 683.667 -169 650 -183.333 606 -184 c 0
 556 -184.667 516.333 -168 487 -134 c 0
 459.667 -102 446 -60.6667 446 -10 c 1
 246 -10 l 1
 246 46 l 1
 287.333 54 308.333 80.3333 309 125 c 0
 309.667 155 300 181.5 280 204.5 c 0
 260 227.5 235.333 239.333 206 240 c 0
 176 240.667 151.667 230.833 133 210.5 c 0
 114.333 190.167 105 164.667 105 134 c 0
 105 94.6667 122.333 64 157 42 c 1
 122 -12 l 1
 90.6667 -3.33333 66 16 48 46 c 0
 31.3333 74 23 105 23 139 c 0
 23 193.667 42 236.333 80 267 c 0
 115.333 295.667 161.333 310 218 310 c 0
 264.667 310 304.5 291.333 337.5 254 c 0
 370.5 216.667 387 174.667 387 128 c 0
 387 103.333 382.333 80.6667 373 60 c 1
 445 60 l 1
 445 174.667 460 263.667 490 327 c 0
 531.333 415 603 459.333 705 460 c 0
 781 460.667 840.333 423.333 883 348 c 0
 919 284 937.333 204 938 108 c 0
 938.667 48.6667 930.667 -7.33333 914 -60 c 0
 892 -130 859 -172 815 -186 c 1
658 -10 m 1
 528 -10 l 1
 528 -78.6667 549.667 -113.333 593 -114 c 0
 636.333 -114.667 658 -80 658 -10 c 1
EndSplineSet
EndChar
StartChar: uni0D0F
Encoding: 3343 3343
Width: 978
Flags: HW
Fore
934 263 m 0
 934.667 209.667 914.333 171.667 873 149 c 1
 913.667 125 934.333 74 935 -4 c 0
 935.667 -50.6667 924.667 -91.6667 902 -127 c 0
 878 -165 843.667 -184 799 -184 c 0
 784.333 -184 772.333 -180.333 763 -173 c 1
 751 -161 l 1
 751 -99 l 1
 770 -96 l 1
 776 -107 l 2
 778 -111 781.333 -113.333 786 -114 c 0
 808 -114 825 -100.667 837 -74 c 0
 846.333 -52.6667 851 -29.6667 851 -5 c 0
 851 23 847 48 839 70 c 0
 827 100 809.333 115 786 115 c 2
 751 115 l 1
 751 185 l 1
 786 185 l 2
 828.667 185 850.333 211 851 263 c 0
 851.667 304.333 836.333 336.333 805 359 c 0
 777 379 741.667 389.333 699 390 c 0
 581.667 391.333 522 281.333 520 60 c 1
 651 60 l 1
 651 348 l 1
 734 348 l 1
 734 -36 l 2
 734 -134.667 689 -184 599 -184 c 0
 547.667 -184 508 -167.667 480 -135 c 0
 453.333 -104.333 439.667 -62.6667 439 -10 c 1
 239 -10 l 1
 239 58 l 1
 259 62 274.167 71.6667 284.5 87 c 0
 294.833 102.333 300 119.667 300 139 c 0
 300 168.333 290.5 192.333 271.5 211 c 0
 252.5 229.667 228.333 239.333 199 240 c 0
 169 240.667 144.333 231.167 125 211.5 c 0
 105.667 191.833 96 166.667 96 136 c 0
 96 96.6667 114 65.3333 150 42 c 1
 115 -12 l 1
 83.6667 0.666667 59.1667 21.1667 41.5 49.5 c 0
 23.8333 77.8333 15 109.333 15 144 c 0
 15 190.667 30 228.667 60 258 c 0
 94.6667 292 145 309.333 211 310 c 0
 258.333 310.667 299.333 293 334 257 c 0
 368.667 221 386.333 179.333 387 132 c 0
 387.667 107.333 381.333 83.3333 368 60 c 1
 439 60 l 1
 439 167.333 455.667 255 489 323 c 0
 533 414.333 603 460 699 460 c 0
 767 460 821.667 444.333 863 413 c 0
 909.667 378.333 933.333 328.333 934 263 c 0
651 -10 m 1
 521 -10 l 1
 521 -78.6667 542.667 -113 586 -113 c 0
 613.333 -113 632 -101.667 642 -79 c 0
 648 -65 651 -42 651 -10 c 1
EndSplineSet
EndChar
StartChar: uni0D10
Encoding: 3344 3344
Width: 1736
Flags: HW
Fore
397 -14 m 1
 330 38 l 1
 356 58 377 87 393 125 c 0
 408.333 160.333 416 195.667 416 231 c 0
 416 278.333 404 316.333 380 345 c 0
 354 375 317.667 390 271 390 c 0
 187 390 131 342.667 103 248 c 1
 126.333 268.667 153 279.333 183 280 c 0
 226.333 280.667 261.667 266.5 289 237.5 c 0
 316.333 208.5 330.333 172.333 331 129 c 0
 331.667 86.3333 318 52.6667 290 28 c 0
 262 3.33333 226.333 -9.33333 183 -10 c 0
 131 -10.6667 90.6667 9.33333 62 50 c 0
 36.6667 86 23.6667 131 23 185 c 0
 22.3333 256.333 43 318.333 85 371 c 0
 131.667 429.667 193.667 459.333 271 460 c 0
 340.333 460.667 396 438 438 392 c 0
 478 348 498.333 291 499 221 c 0
 499.667 180.333 491.167 139 473.5 97 c 0
 455.833 55 430.333 18 397 -14 c 1
183 60 m 0
 203 60 218.833 67.1667 230.5 81.5 c 0
 242.167 95.8333 248 113.333 248 134 c 0
 248 154.667 242.167 172.167 230.5 186.5 c 0
 218.833 200.833 203 208.333 183 209 c 0
 162.333 209.667 146.5 202.667 135.5 188 c 0
 124.5 173.333 118.667 155.333 118 134 c 0
 117.333 112.667 122.833 95 134.5 81 c 0
 146.167 67 162.333 60 183 60 c 0
1308 -186 m 1
 1273 -135 l 1
 1323.67 -88.333 1349.33 -7.66699 1350 107 c 0
 1350.67 171 1340.67 229.333 1320 282 c 0
 1292.67 353.333 1252 389.333 1198 390 c 0
 1081.33 391.333 1022 281.333 1020 60 c 1
 1151 60 l 1
 1151 348 l 1
 1233 348 l 1
 1233 -35 l 2
 1233 -79.667 1222 -115 1200 -141 c 0
 1176.67 -169 1143 -183.333 1099 -184 c 0
 1049 -184.667 1009.33 -168 980 -134 c 0
 952.667 -102 939 -60.667 939 -10 c 1
 739 -10 l 1
 739 46 l 1
 780.333 54 801.333 80.333 802 125 c 0
 802.667 155 793 181.5 773 204.5 c 0
 753 227.5 728.333 239.333 699 240 c 0
 669 240.667 644.667 230.833 626 210.5 c 0
 607.333 190.167 598 164.667 598 134 c 0
 598 94.667 615.333 64 650 42 c 1
 615 -12 l 1
 583.667 -3.33301 559 16 541 46 c 0
 524.333 74 516 105 516 139 c 0
 516 193.667 535 236.333 573 267 c 0
 608.333 295.667 654.333 310 711 310 c 0
 757.667 310 797.5 291.333 830.5 254 c 0
 863.5 216.667 880 174.667 880 128 c 0
 880 103.333 875.333 80.667 866 60 c 1
 938 60 l 1
 938 174.667 953 263.667 983 327 c 0
 1024.33 415 1096 459.333 1198 460 c 0
 1274 460.667 1333.33 423.333 1376 348 c 0
 1412 284 1430.33 204 1431 108 c 0
 1431.67 48.667 1423.67 -7.33301 1407 -60 c 0
 1385 -130 1352 -172 1308 -186 c 1
1151 -10 m 1
 1021 -10 l 1
 1021 -78.667 1042.67 -113.333 1086 -114 c 0
 1129.33 -114.667 1151 -80 1151 -10 c 1
EndSplineSet
EndChar
StartChar: uni0D12
Encoding: 3346 3346
Width: 568
Flags: HW
Fore
487 225 m 1
 517 205.667 532 171 532 121 c 0
 532 83 521.667 52.3333 501 29 c 0
 479.667 3.66667 450.333 -9 413 -9 c 2
 393 -9 l 2
 368.333 -9 346.667 -3.66667 328 7 c 1
 328 80 l 1
 349 70 l 2
 361 65.3333 374 62 388 60 c 1
 426 60 445.667 79.3333 447 118 c 0
 447.667 134.667 441.5 150.667 428.5 166 c 0
 415.5 181.333 398 189.333 376 190 c 2
 328 191 l 1
 328 260 l 1
 376 260 l 2
 422.667 260 446 276.333 446 309 c 0
 446 337 427.667 358.333 391 373 c 0
 363.667 384.333 333.667 390 301 390 c 0
 195 390 129.333 346 104 258 c 1
 118 268 142 273 176 273 c 0
 216 273 248.333 259.5 273 232.5 c 0
 297.667 205.5 310.333 171.667 311 131 c 0
 311.667 88.3333 298 54.5 270 29.5 c 0
 242 4.5 206.333 -8.33333 163 -9 c 0
 111 -9.66667 72.3333 11 47 53 c 0
 27 87 16.6667 132 16 188 c 0
 15.3333 268.667 42.6667 334.333 98 385 c 0
 151.333 434.333 219 459.333 301 460 c 0
 358.333 460.667 407.667 449.667 449 427 c 0
 499.667 399.667 525 359.333 525 306 c 0
 525 270.667 512.333 243.667 487 225 c 1
163 61 m 0
 203 59.6667 223.667 82 225 128 c 0
 225.667 148 220.333 165.167 209 179.5 c 0
 197.667 193.833 182.333 201.667 163 203 c 1
 163 203 l 1
 123 203 102.333 180.667 101 136 c 0
 100.333 116 105.667 98.6667 117 84 c 0
 128.333 69.3333 143.667 61.6667 163 61 c 0
EndSplineSet
EndChar
StartChar: uni0D13
Encoding: 3347 3347
Width: 928
Flags: HW
Fore
748 460 m 0
 798 460.667 839.667 435 873 383 c 0
 903 336.333 918 280.333 918 215 c 0
 918 152.333 903.667 100.667 875 60 c 0
 843 14 796.667 -9.33301 736 -10 c 0
 679.333 -10.667 635.667 8.66699 605 48 c 0
 577.667 82.667 564 128.333 564 185 c 1
 646 185 l 1
 646 146.333 651.333 117.333 662 98 c 0
 676 73.333 700.667 60.667 736 60 c 0
 785.333 59.333 818.333 93 835 161 c 0
 839 177.667 841.333 199 842 225 c 0
 842.667 267 833.667 304.833 815 338.5 c 0
 796.333 372.167 770 389.333 736 390 c 0
 704.667 390.667 680.333 373.667 663 339 c 0
 653 317.667 647.333 289 646 253 c 1
 564 253 l 1
 564 307.667 576.333 353.333 601 390 c 0
 632.333 436 681.333 459.333 748 460 c 0
487 225 m 1
 517 205.667 532 171 532 121 c 0
 532 83 521.667 52.3333 501 29 c 0
 479.667 3.66667 450.333 -9 413 -9 c 2
 393 -9 l 2
 368.333 -9 346.667 -3.66667 328 7 c 1
 328 80 l 1
 349 70 l 2
 361 65.3333 374 62 388 60 c 1
 426 60 445.667 79.3333 447 118 c 0
 447.667 134.667 441.5 150.667 428.5 166 c 0
 415.5 181.333 398 189.333 376 190 c 2
 328 191 l 1
 328 260 l 1
 376 260 l 2
 422.667 260 446 276.333 446 309 c 0
 446 337 427.667 358.333 391 373 c 0
 363.667 384.333 333.667 390 301 390 c 0
 195 390 129.333 346 104 258 c 1
 118 268 142 273 176 273 c 0
 216 273 248.333 259.5 273 232.5 c 0
 297.667 205.5 310.333 171.667 311 131 c 0
 311.667 88.3333 298 54.5 270 29.5 c 0
 242 4.5 206.333 -8.33333 163 -9 c 0
 111 -9.66667 72.3333 11 47 53 c 0
 27 87 16.6667 132 16 188 c 0
 15.3333 268.667 42.6667 334.333 98 385 c 0
 151.333 434.333 219 459.333 301 460 c 0
 358.333 460.667 407.667 449.667 449 427 c 0
 499.667 399.667 525 359.333 525 306 c 0
 525 270.667 512.333 243.667 487 225 c 1
163 61 m 0
 203 59.6667 223.667 82 225 128 c 0
 225.667 148 220.333 165.167 209 179.5 c 0
 197.667 193.833 182.333 201.667 163 203 c 1
 163 203 l 1
 123 203 102.333 180.667 101 136 c 0
 100.333 116 105.667 98.6667 117 84 c 0
 128.333 69.3333 143.667 61.6667 163 61 c 0
EndSplineSet
EndChar
StartChar: uni0D14
Encoding: 3348 3348
Width: 568
Flags: HW
Fore
972 460 m 0
 1028.67 460 1075.33 436.333 1112 389 c 0
 1144.67 346.333 1161.33 293.667 1162 231 c 0
 1162.67 159 1141 101 1097 57 c 0
 1053 13 994.667 -9.33301 922 -10 c 0
 870 -10.667 827.333 1 794 25 c 0
 757.333 51.667 738.333 90 737 140 c 1
 819 140 l 1
 819 84.667 857.333 57 934 57 c 0
 981.333 57 1018.67 76 1046 114 c 0
 1070.67 148 1083.33 189.333 1084 238 c 0
 1084.67 280.667 1074.67 316 1054 344 c 0
 1031.33 376 999.667 392.333 959 393 c 0
 934.333 393.667 915.333 386 902 370 c 0
 888.667 354 882 333.333 882 308 c 2
 882 190 l 1
 799 190 l 1
 799 308 l 2
 799 332.667 792.167 353 778.5 369 c 0
 764.833 385 746 393 722 393 c 0
 696 393 675.667 380.667 661 356 c 1
 646.333 326 640 291.333 642 252 c 1
 645 190 l 1
 563 190 l 1
 559 229 l 1
 558 254 l 1
 555.333 314 571.333 364 606 404 c 0
 637.333 440.667 680 459.333 734 460 c 0
 779.333 460.667 813.333 440.667 836 400 c 1
 868 440 913.333 460 972 460 c 0
487 225 m 1
 517 205.667 532 171 532 121 c 0
 532 83 521.667 52.3333 501 29 c 0
 479.667 3.66667 450.333 -9 413 -9 c 2
 393 -9 l 2
 368.333 -9 346.667 -3.66667 328 7 c 1
 328 80 l 1
 349 70 l 2
 361 65.3333 374 62 388 60 c 1
 426 60 445.667 79.3333 447 118 c 0
 447.667 134.667 441.5 150.667 428.5 166 c 0
 415.5 181.333 398 189.333 376 190 c 2
 328 191 l 1
 328 260 l 1
 376 260 l 2
 422.667 260 446 276.333 446 309 c 0
 446 337 427.667 358.333 391 373 c 0
 363.667 384.333 333.667 390 301 390 c 0
 195 390 129.333 346 104 258 c 1
 118 268 142 273 176 273 c 0
 216 273 248.333 259.5 273 232.5 c 0
 297.667 205.5 310.333 171.667 311 131 c 0
 311.667 88.3333 298 54.5 270 29.5 c 0
 242 4.5 206.333 -8.33333 163 -9 c 0
 111 -9.66667 72.3333 11 47 53 c 0
 27 87 16.6667 132 16 188 c 0
 15.3333 268.667 42.6667 334.333 98 385 c 0
 151.333 434.333 219 459.333 301 460 c 0
 358.333 460.667 407.667 449.667 449 427 c 0
 499.667 399.667 525 359.333 525 306 c 0
 525 270.667 512.333 243.667 487 225 c 1
163 61 m 0
 203 59.6667 223.667 82 225 128 c 0
 225.667 148 220.333 165.167 209 179.5 c 0
 197.667 193.833 182.333 201.667 163 203 c 1
 163 203 l 1
 123 203 102.333 180.667 101 136 c 0
 100.333 116 105.667 98.6667 117 84 c 0
 128.333 69.3333 143.667 61.6667 163 61 c 0
EndSplineSet
EndChar
StartChar: uni0D15
Encoding: 3349 3349
Width: 750
Flags: HW
Fore
723 138 m 0
 723.667 40.6667 678.333 -8.66667 587 -10 c 0
 577 -10 563.667 -3.66667 547 9 c 1
 528 27 l 1
 528 86 l 1
 541.333 72.6667 555.333 64.3333 570 61 c 0
 574.667 60.3333 580.667 60 588 60 c 0
 604 60 616.667 66.6667 626 80 c 0
 635.333 93.3333 640 108.333 640 125 c 0
 640 143.667 636 160.333 628 175 c 0
 618 193.667 604.667 203 588 203 c 2
 523 203 l 1
 523 62.3333 469.667 -8.66667 363 -10 c 0
 311 -10.6667 270 3 240 31 c 1
 234 19.6667 223 9.33333 207 0 c 1
 191.667 -6 168.667 -9.33333 138 -10 c 0
 101.333 -10.6667 72 2.33333 50 29 c 0
 28 55.6667 16.6667 87.6667 16 125 c 0
 15.3333 169 26.8333 204.5 50.5 231.5 c 0
 74.1667 258.5 107.667 272 151 272 c 2
 191 272 l 1
 191 327.333 206 372.333 236 407 c 0
 266 441.667 308.333 459.333 363 460 c 0
 415 460.667 455.333 441.667 484 403 c 0
 509.333 369 522.333 325.333 523 272 c 1
 575 272 l 2
 624.333 272 661.167 261.667 685.5 241 c 0
 709.833 220.333 722.333 186 723 138 c 0
450 262 m 1
 440 262 l 1
 440 347.333 410.333 390 351 390 c 0
 299 390 273 350.667 273 272 c 1
 450 272 l 1
 450 262 l 1
440 203 m 1
 273 203 l 1
 273 154.333 279.833 118.333 293.5 95 c 0
 307.167 71.6667 330.333 60 363 60 c 1
 363 60 l 1
 393.667 60 414.667 73 426 99 c 0
 434 117.667 438.667 152.333 440 203 c 1
190 203 m 1
 151 203 l 1
 112.333 199 93 173.667 93 127 c 0
 93 84.3333 112.333 62 151 60 c 1
 151 50 l 1
 149 60 l 1
 177.667 63.3333 193 83.6667 195 121 c 1
 192 164 l 1
 190 203 l 1
EndSplineSet
EndChar
StartChar: uni0D16
Encoding: 3350 3350
Width: 852
Flags: HW
Fore
777 -10 m 1
 357 -10 l 1
 357 54 l 1
 407 104 432 156.667 432 212 c 0
 432 260.667 416.5 302.333 385.5 337 c 0
 354.5 371.667 315 389.333 267 390 c 0
 173.667 390.667 119.333 345 104 253 c 1
 124 265 153.333 271.333 192 272 c 0
 230 272.667 260.333 257.333 283 226 c 0
 303.667 198 314 164.333 314 125 c 0
 314 85 299.667 52.6667 271 28 c 0
 242.333 3.33333 207.667 -9.33333 167 -10 c 0
 121.667 -10.6667 85.3333 7 58 43 c 0
 32.6667 75.6667 20 115.667 20 163 c 0
 19.3333 245 39.6667 313.333 81 368 c 0
 125.667 428.667 187.667 459.333 267 460 c 0
 342.333 460.667 402.167 440.5 446.5 399.5 c 0
 490.833 358.5 513.333 300.667 514 226 c 0
 514.667 156 501.333 100.667 474 60 c 1
 694 60 l 1
 694 447 l 1
 777 447 l 1
 777 -10 l 1
232 132 m 0
 232 152 226.167 168.5 214.5 181.5 c 0
 202.833 194.5 187 201.333 167 202 c 0
 151 202.667 136.167 196.167 122.5 182.5 c 0
 108.833 168.833 102 154 102 138 c 0
 102 88 123.667 62.3333 167 61 c 0
 184.333 60.3333 199.5 67.6667 212.5 83 c 0
 225.5 98.3333 232 114.667 232 132 c 0
EndSplineSet
EndChar
StartChar: uni0D17
Encoding: 3351 3351
Width: 680
Flags: HW
Fore
489 -12 m 1
 434 44 l 1
 471.333 54.6667 501 83.3333 523 130 c 0
 542.333 170 552.333 211.667 553 255 c 0
 553.667 292.333 546.667 323 532 347 c 0
 514.667 375 488.333 389.333 453 390 c 0
 393.667 390.667 363.667 344 363 250 c 0
 362.333 159.333 353 96.3333 335 61 c 0
 311 14.3333 267 -9.33333 203 -10 c 0
 144.333 -10.6667 98.6667 9.33333 66 50 c 0
 35.3333 87.3333 20 135.667 20 195 c 0
 20 306.333 64.6667 395.333 154 462 c 1
 226 426 l 1
 186 406 155 374.667 133 332 c 0
 112.333 292.667 101.667 249.333 101 202 c 0
 100.333 163.333 107.333 131.333 122 106 c 0
 140 75.3333 167 60 203 60 c 0
 239 60 262.333 79.3333 273 118 c 0
 277.667 136 280.333 176 281 238 c 0
 281.667 322 300.333 381.667 337 417 c 0
 366.333 445 405 459.333 453 460 c 0
 511 460.667 555.667 438.667 587 394 c 0
 615 354.667 629 305 629 245 c 0
 629 186.333 616.667 132.5 592 83.5 c 0
 567.333 34.5 533 2.66667 489 -12 c 1
EndSplineSet
EndChar
StartChar: uni0D18
Encoding: 3352 3352
Width: 1158
Flags: HW
Fore
1089 -10 m 1
 470 -10 l 1
 470 140 l 1
 245 140 l 1
 245 209 l 1
 267 211 285 219 299 233 c 0
 313 247 320 265 320 287 c 0
 320 317.667 308.833 342.333 286.5 361 c 0
 264.167 379.667 237 389.333 205 390 c 0
 179 390.667 155.333 382.167 134 364.5 c 0
 112.667 346.833 102 325.333 102 300 c 0
 102 242 126.333 212 175 210 c 1
 121 138 l 1
 90.3333 150 66 169.667 48 197 c 0
 30 224.333 20.6667 254.333 20 287 c 0
 19.3333 336.333 40 378 82 412 c 0
 121.333 443.333 166.333 459.333 217 460 c 0
 270.333 460.667 314.333 446.333 349 417 c 0
 383.667 387.667 401.333 348.667 402 300 c 0
 402 290.667 400 276.667 396 258 c 0
 394.667 252 393 243.667 391 233 c 0
 389.667 229.667 386.667 222 382 210 c 1
 470 210 l 1
 471 285 l 1
 471 300.333 474.667 315 482 329 c 1
 511.333 415.667 573 459.333 667 460 c 0
 726.333 460.667 774.833 444.667 812.5 412 c 0
 850.167 379.333 871.667 334 877 276 c 1
 890 140 l 1
 552 140 l 1
 552 60 l 1
 1007 60 l 1
 1007 460 l 1
 1089 460 l 1
 1089 -10 l 1
804 200 m 1
 794 200 l 1
 794 275 l 2
 794 311.667 782.167 340 758.5 360 c 0
 734.833 380 704.333 390 667 390 c 0
 637 390 610.333 380.167 587 360.5 c 0
 563.667 340.833 552 316.333 552 287 c 2
 552 210 l 1
 804 210 l 1
 804 200 l 1
EndSplineSet
EndChar
StartChar: uni0D1A
Encoding: 3354 3354
Width: 739
Flags: HW
Fore
697 -10 m 1
 15 -10 l 1
 15 60 l 1
 236 60 l 1
 256.667 64 273 75.1667 285 93.5 c 0
 297 111.833 303 131.667 303 153 c 0
 303 174.333 297.167 191.833 285.5 205.5 c 0
 273.833 219.167 257.667 226.333 237 227 c 0
 215.667 227.667 198.667 219.667 186 203 c 1
 176 185.667 170.667 166 170 144 c 0
 169.333 129.333 171.333 115.333 176 102 c 1
 92 102 l 1
 88 122 l 1
 87 149 l 1
 85.6667 191.667 99.6667 226.833 129 254.5 c 0
 158.333 282.167 194.333 296.333 237 297 c 0
 281 297.667 317.333 283.667 346 255 c 0
 374.667 226.333 389.333 190 390 146 c 0
 390.667 113.333 381 84.6667 361 60 c 1
 614 60 l 1
 614 460 l 1
 697 460 l 1
 697 -10 l 1
EndSplineSet
EndChar
StartChar: uni0D1B
Encoding: 3355 3355
Width: 1007
Flags: HW
Fore
959 175 m 0
 959.667 95 940.667 41 902 13 c 0
 878.667 -4.33333 840 -12 786 -10 c 0
 751.333 -8.66667 722.333 8 699 40 c 0
 679 68.6667 668.667 101.333 668 138 c 0
 666.667 229.333 721.333 293.667 832 331 c 1
 800.667 369.667 764.667 389.333 724 390 c 0
 676.667 390.667 638.667 371.333 610 332 c 0
 586 298.667 573.333 256 572 204 c 0
 570 122.667 599 65 659 31 c 1
 659 -10 l 1
 15 -10 l 1
 15 60 l 1
 236 60 l 1
 256.667 62 273 71.6667 285 89 c 0
 297 106.333 303.333 126 304 148 c 0
 305.333 198.667 284 224 240 224 c 0
 218.667 224 201.333 216 188 200 c 1
 178 182.667 172.667 162.333 172 139 c 0
 172 127.667 174 114.333 178 99 c 1
 94 99 l 1
 90 120 l 1
 89 145 l 1
 87 187.667 101 223 131 251 c 0
 161 279 197.333 293.333 240 294 c 0
 282.667 294.667 317.333 280.833 344 252.5 c 0
 370.667 224.167 384.333 188.667 385 146 c 0
 385.667 114.667 377 86 359 60 c 1
 531 60 l 1
 502.333 110 487.667 161.333 487 214 c 0
 486.333 284.667 510.167 343.333 558.5 390 c 0
 606.833 436.667 666.333 460 737 460 c 0
 801 460 854.333 433.667 897 381 c 0
 937.667 331 958.333 262.333 959 175 c 0
854 256 m 1
 840 258 l 1
 817.333 258 797.333 245.667 780 221 c 0
 762.667 196.333 753.667 172.333 753 149 c 0
 752.333 124.333 756.667 103.667 766 87 c 0
 778 66.3333 795.333 57.3333 818 60 c 0
 844.667 63.3333 860.667 78 866 104 c 2
 873 139 l 2
 877 160.333 879.333 178.333 880 193 c 0
 880.667 225.667 872 246.667 854 256 c 1
EndSplineSet
EndChar
StartChar: uni0D1C
Encoding: 3356 3356
Width: 729
Flags: HW
Fore
561 -10 m 0
 535 -10.6667 511.333 -2.33333 490 15 c 0
 468.667 32.3333 458 53.6667 458 79 c 1
 321 32 l 2
 285.667 20 236.667 10 174 2 c 1
 136 2 104 9 78 23 c 0
 45.3333 41 28.6667 67.3333 28 102 c 0
 27.3333 147.333 54.3333 182.333 109 207 c 0
 151.667 225.667 198.333 235 249 235 c 2
 449 235 l 2
 483 235 511.667 242.333 535 257 c 0
 563.667 274.333 578.333 298.667 579 330 c 0
 579.667 349.333 573.333 364.667 560 376 c 0
 546.667 387.333 530.333 393 511 393 c 0
 443 393 409 364.667 409 308 c 2
 409 239 l 1
 326 239 l 1
 326 308 l 2
 326 336.667 313.333 358.667 288 374 c 0
 268 386 242.333 392.333 211 393 c 0
 181.667 393.667 155.667 388 133 376 c 0
 122.333 370.667 113.333 365 106 359 c 1
 92 374 l 1
 98 380 107.333 384.333 120 387 c 1
 149 389 l 2
 173 390.333 194.5 383.667 213.5 369 c 0
 232.5 354.333 242.333 335.333 243 312 c 0
 243.667 283.333 230.333 261.333 203 246 c 0
 181 234 154.667 227.667 124 227 c 0
 94 226.333 70 234.667 52 252 c 0
 34 269.333 24.6667 292.667 24 322 c 0
 23.3333 357.333 38.3333 388.333 69 415 c 0
 103 445 150.333 460 211 460 c 0
 271.667 460 321.667 441.333 361 404 c 1
 381 423.333 399.667 437 417 445 c 0
 438.333 455 469.667 460 511 460 c 0
 554.333 460 590.667 450.667 620 432 c 0
 653.333 410 670.333 378.333 671 337 c 0
 671.667 283 645 240 591 208 c 0
 545.667 181.333 494 168 436 168 c 2
 261 168 l 2
 217 168 182.667 161.333 158 148 c 0
 133.333 134.667 120.667 120 120 104 c 0
 119.333 82.6667 141 71.3333 185 70 c 0
 213.667 69.3333 260.333 79.6667 325 101 c 0
 469 148.333 547.333 173.333 560 176 c 1
 592.667 176 620 169 642 155 c 0
 668.667 139 682 115.667 682 85 c 0
 682 59.6667 671.333 37.6667 650 19 c 0
 628.667 0.333333 599 -9.33333 561 -10 c 0
562 109 m 1
 552.667 107 545 103.667 539 99 c 0
 535.667 95.6667 533 90 531 82 c 0
 531 76 533.667 70.3333 539 65 c 1
 543.667 62.3333 551 60 561 58 c 1
 561 58 l 1
 584.333 58 597 67.3333 599 86 c 0
 599 100.667 586.667 108.333 562 109 c 1
136 333 m 0
 116.667 333.667 104.667 325.333 100 308 c 1
 100 299.333 108 294.667 124 294 c 0
 143.333 293.333 155 301 159 317 c 1
 159 327 151.333 332.333 136 333 c 0
EndSplineSet
EndChar
StartChar: uni0D1D
Encoding: 3357 3357
Width: 1208
Flags: HW
Fore
1051 463 m 1
 1087 437.667 1115.33 402.5 1136 357.5 c 0
 1156.67 312.5 1167.33 265.333 1168 216 c 0
 1168.67 152.667 1153 100 1121 58 c 0
 1086.33 12.6667 1038 -10 976 -10 c 0
 919.333 -10 877.667 12 851 56 c 1
 819 12 773.333 -10 714 -10 c 0
 660 -10 618.667 7 590 41 c 0
 558 79 541.667 153 541 263 c 0
 541 299 533 328.333 517 351 c 0
 498.333 377 472 390 438 390 c 2
 412 390 l 1
 392 387 l 1
 450.667 328.333 480.333 259.333 481 180 c 0
 481.667 120.667 464 72.3333 428 35 c 0
 404 9 370.333 -5.66667 327 -9 c 2
 315 -10 l 2
 277.667 -13.3333 243.667 4 213 42 c 0
 185 76.6667 170.667 119.667 170 171 c 0
 169.333 247.667 203.333 319.667 272 387 c 1
 254 389 l 1
 240 390 l 1
 227 390 l 1
 184.333 384 150.167 362.833 124.5 326.5 c 0
 98.8333 290.167 86 249.667 86 205 c 0
 86 129.667 118.333 69.3333 183 24 c 1
 112 -12 l 1
 80.6667 14 56.1667 47 38.5 87 c 0
 20.8333 127 12 168 12 210 c 0
 12 279.333 32.1667 336.333 72.5 381 c 0
 112.833 425.667 167.667 452 237 460 c 1
 279 460 312.333 449.333 337 428 c 1
 361 449.333 399 460 451 460 c 1
 516.333 454 562.333 431.333 589 392 c 0
 611 358.667 622.333 307.333 623 238 c 0
 623.667 184 628.333 145 637 121 c 0
 652.333 81 682 60.6667 726 60 c 0
 752 59.3333 773.5 67.6667 790.5 85 c 0
 807.5 102.333 816 124 816 150 c 2
 816 460 l 1
 898 460 l 1
 899 151 l 1
 899 125 905.333 104 918 88 c 0
 931.333 70 950.667 60.6667 976 60 c 0
 1013.33 59.3333 1042.67 76 1064 110 c 0
 1081.33 138 1090.33 172 1091 212 c 0
 1091.67 253.333 1082.33 291.833 1063 327.5 c 0
 1043.67 363.167 1016.67 391.333 982 412 c 1
 1051 463 l 1
337 320 m 1
 320 324 l 1
 294.667 324 274 298 258 246 c 0
 256 238.667 253.667 230.667 251 222 c 1
 247 185 l 1
 247 157 251.667 132.667 261 112 c 0
 273 84.6667 291.333 70.3333 316 69 c 1
 327 70 l 2
 369 74 390.667 114.667 392 192 c 0
 392.667 225.333 390.667 250.333 386 267 c 0
 380 289.667 363.667 307.333 337 320 c 1
EndSplineSet
EndChar
StartChar: uni0D1E
Encoding: 3358 3358
Width: 1049
Flags: HW
Fore
222 137 m 0
 222.667 153.667 216.167 168.5 202.5 181.5 c 0
 188.833 194.5 173.667 201.333 157 202 c 0
 115.667 203.333 94 181.667 92 137 c 1
 92 137 l 1
 92 117.667 98.1667 100.333 110.5 85 c 0
 122.833 69.6667 138.333 61.6667 157 61 c 0
 199 59.6667 220.667 85 222 137 c 0
616 375 m 1
 606 379 585.667 384 555 390 c 1
 522.333 390 495.333 381 474 363 c 0
 452.667 345 442 319.667 442 287 c 2
 442 -9 l 1
 360 -9 l 1
 360 287 l 2
 360 319 349 344 327 362 c 0
 305 380 277.667 389.333 245 390 c 0
 203.667 390.667 169.667 376.667 143 348 c 0
 119 322 103 287.667 95 245 c 1
 112.333 262.333 137.333 271.333 170 272 c 0
 210.667 272.667 243.333 260.833 268 236.5 c 0
 292.667 212.167 305 179.333 305 138 c 0
 305 94 291.333 58.5 264 31.5 c 0
 236.667 4.5 201 -9 157 -9 c 0
 112.333 -9 76.8333 8.16667 50.5 42.5 c 0
 24.1667 76.8333 11 125 11 187 c 0
 11 279.667 38.3333 351 93 401 c 0
 135.667 439.667 186.333 459.333 245 460 c 0
 309.667 460.667 363.667 437.667 407 391 c 1
 447 437 493 460 545 460 c 0
 595.667 460 641.333 448 682 424 c 1
 682 424 699.333 432.667 734 450 c 1
 746 454 758 457.333 770 460 c 1
 842.667 460 902.667 436 950 388 c 0
 997.333 340 1021 279.667 1021 207 c 0
 1021 116.333 983.667 43.3333 909 -12 c 1
 839 24 l 1
 903 70 935 134.667 935 218 c 0
 935 262.667 923.667 301.333 901 334 c 0
 875 371.333 840.667 390 798 390 c 1
 766 381 l 1
 747 375 l 1
 807 313 837 245 837 171 c 0
 837 136.333 829.333 104.333 814 75 c 0
 798 43.6667 775.333 20.3333 746 5 c 0
 724.667 -6.33333 703.667 -11.3333 683 -10 c 0
 637 -7.33333 599.333 12.6667 570 50 c 0
 543.333 83.3333 529.667 127 529 181 c 0
 528.333 216.333 535.5 250.833 550.5 284.5 c 0
 565.5 318.167 587.333 348.333 616 375 c 1
682 307 m 0
 660.667 307.667 643.333 288.333 630 249 c 0
 620.667 219 616 190.333 616 163 c 0
 616 139.667 621.333 120.333 632 105 c 0
 644 87 661 77.6667 683 77 c 0
 706.333 76.3333 724.333 87.3333 737 110 c 0
 747.667 128 753.333 149.667 754 175 c 0
 754.667 203 750.333 229.667 741 255 c 0
 728.333 289 708.667 306.333 682 307 c 0
EndSplineSet
EndChar
StartChar: uni0D1F
Encoding: 3359 3359
Width: 463
Flags: HW
Fore
437 377 m 1
 402 323 l 1
 342 367 287 389.333 237 390 c 0
 199.667 390.667 168.333 384 143 370 c 0
 117.667 356 106 337.667 108 315 c 1
 109 302 l 2
 110.333 286.667 121 275.333 141 268 c 1
 165 262.667 190.667 260 218 260 c 2
 248 260 l 2
 371.333 260 433.333 219.333 434 138 c 0
 434.667 87.3333 414.667 49.3333 374 24 c 0
 338.667 2 289 -9.33333 225 -10 c 0
 185.667 -10.6667 147.667 -4.66667 111 8 c 0
 85 16.6667 51.6667 33.6667 11 59 c 1
 47 129 l 1
 75.6667 105.667 103.333 88.5 130 77.5 c 0
 156.667 66.5 188 60.6667 224 60 c 0
 309.333 58.6667 352 80.3333 352 125 c 0
 352 163 329 185 283 191 c 0
 267.667 193 240.333 194 201 194 c 0
 147 194 108 199 84 209 c 0
 46 225 27 256.667 27 304 c 1
 26 313 l 1
 26 365 49.3333 403.667 96 429 c 0
 133.333 449.667 180.333 460 237 460 c 0
 321.667 460 388.333 432.333 437 377 c 1
EndSplineSet
EndChar
StartChar: uni0D20
Encoding: 3360 3360
Width: 502
Flags: HW
Fore
477 226 m 0
 477.667 154 456.5 96.6667 413.5 54 c 0
 370.5 11.3333 313 -10 241 -10 c 0
 168.333 -10 111.333 11.1667 70 53.5 c 0
 28.6667 95.8333 7.66667 153.333 7 226 c 0
 6.33333 292 28.8333 347.333 74.5 392 c 0
 120.167 436.667 176 459.333 242 460 c 0
 313.333 460.667 372 434.667 418 382 c 0
 456.667 338 476.333 286 477 226 c 0
394 226 m 0
 394.667 267.333 379.667 305.167 349 339.5 c 0
 318.333 373.833 282.667 391 242 391 c 0
 200.667 391 165 374 135 340 c 0
 105 306 89.6667 268 89 226 c 0
 88.3333 177.333 101.667 137.667 129 107 c 0
 156.333 76.3333 194 60.6667 242 60 c 1
 242 60 l 1
 289.333 60 326.333 75.6667 353 107 c 0
 379.667 138.333 393.333 178 394 226 c 0
EndSplineSet
EndChar
StartChar: uni0D21
Encoding: 3361 3361
Width: 980
Flags: HW
Fore
818 462 m 1
 857.333 443.333 888.333 409.667 911 361 c 0
 930.333 318.333 940 272.667 940 224 c 0
 940 158 924.333 104 893 62 c 0
 857.667 14.6667 808 -9 744 -9 c 0
 704 -9 670.667 3.66667 644 29 c 0
 635.333 37 627.333 46.6667 620 58 c 1
 590 14 544 -8.33333 482 -9 c 0
 427.333 -9.66667 386 7.66667 358 43 c 0
 326 83 309.667 159 309 271 c 0
 308.333 349.667 278.333 389.333 219 390 c 0
 180.333 390.667 150.667 374.333 130 341 c 0
 114 313.667 105.667 279 105 237 c 0
 104.333 195.667 112 156.333 128 119 c 0
 145.333 79.6667 169.667 48.3333 201 25 c 1
 131 -13 l 1
 60.3333 47 24.6667 126.667 24 226 c 0
 23.3333 290 39.3333 343.667 72 387 c 0
 108 435 157 459.333 219 460 c 0
 285.667 460.667 332.333 441.667 359 403 c 0
 379.667 373 390.333 320.333 391 245 c 0
 391.667 187.667 397 146.667 407 122 c 0
 423 83.3333 452.333 63.6667 495 63 c 0
 521.667 62.3333 543.167 70 559.5 86 c 0
 575.833 102 584 123.333 584 150 c 2
 584 460 l 1
 666 460 l 1
 666 150 l 2
 666 126 672.667 105.667 686 89 c 0
 699.333 72.3333 718.667 63.6667 744 63 c 0
 780 62.3333 808 78.3333 828 111 c 0
 845.333 139 854 172 854 210 c 0
 854 250.667 845.167 289 827.5 325 c 0
 809.833 361 785 390 753 412 c 1
 818 462 l 1
EndSplineSet
EndChar
StartChar: uni0D22
Encoding: 3362 3362
Width: 1015
Flags: HW
Fore
908 201 m 1
 889.333 186.333 864.333 178.667 833 178 c 0
 793.667 177.333 761.667 192.667 737 224 c 0
 713.667 253.333 701.667 288 701 328 c 0
 700.333 368 712 399.833 736 423.5 c 0
 760 447.167 792 459.333 832 460 c 0
 884 460.667 925 439.667 955 397 c 0
 980.333 359.667 993.333 313.667 994 259 c 0
 994.667 181 970.667 116.667 922 66 c 0
 873.333 15.3333 810 -10 732 -10 c 0
 680 -10 639 12 609 56 c 1
 579 12 533 -10 471 -10 c 0
 416.333 -10 375 7 347 41 c 0
 315 79.6667 298.667 154 298 264 c 0
 297.333 347.333 267.333 389.333 208 390 c 0
 169.333 390.667 139.333 372 118 334 c 0
 100.667 303.333 91.6667 267.333 91 226 c 0
 89.6667 134 123 66.6667 191 24 c 1
 120 -12 l 1
 87.3333 15.3333 62 50.3333 44 93 c 0
 26 135.667 16.6667 179 16 223 c 0
 15.3333 285.667 32.1667 340.667 66.5 388 c 0
 100.833 435.333 148 459.333 208 460 c 0
 274.667 460.667 321.667 440.333 349 399 c 0
 369.667 367.667 380.333 314.333 381 239 c 0
 381.667 183 386.667 142.667 396 118 c 0
 410.667 80 439.667 60.6667 483 60 c 0
 509 59.3333 530.5 67.6667 547.5 85 c 0
 564.5 102.333 573 124 573 150 c 2
 573 460 l 1
 656 460 l 1
 656 150 l 2
 656 126.667 665 105.833 683 87.5 c 0
 701 69.1667 721.667 60 745 60 c 0
 835.667 58.6667 890 105.667 908 201 c 1
845 248 m 0
 865 248 881 254.833 893 268.5 c 0
 905 282.167 911 299 911 319 c 0
 911 338.333 904.667 354.833 892 368.5 c 0
 879.333 382.167 863.333 389.333 844 390 c 0
 826 390.667 809.667 383.667 795 369 c 1
 784.333 355 778.667 338.333 778 319 c 0
 777.333 298.333 783.167 281.333 795.5 268 c 0
 807.833 254.667 824.333 248 845 248 c 0
EndSplineSet
EndChar
StartChar: uni0D23
Encoding: 3363 3363
Width: 1079
Flags: HW
Fore
1033 226 m 0
 1033.67 160 1009.67 97.3333 961 38 c 0
 946.333 20 929.667 3 911 -13 c 1
 844 39 l 1
 914.667 84.3333 950 150.333 950 237 c 0
 950 286.333 941.333 323.333 924 348 c 0
 904 376 874.333 390 835 390 c 0
 807.667 390 785.833 379.833 769.5 359.5 c 0
 753.167 339.167 745 315 745 287 c 2
 745 -9 l 1
 663 -9 l 1
 663 287 l 2
 663 313 654.333 336.667 637 358 c 0
 619.667 379.333 598.333 390 573 390 c 0
 539.667 390 512.667 381.333 492 364 c 0
 469.333 345.333 458 319.667 458 287 c 2
 458 -9 l 1
 375 -9 l 1
 375 287 l 2
 375 315.667 364.333 340 343 360 c 0
 321.667 380 294.333 390 261 390 c 0
 219.667 390 185.667 376 159 348 c 0
 135 322.667 119 288.667 111 246 c 1
 130.333 262.667 155 271.333 185 272 c 0
 222.333 272.667 254 259.833 280 233.5 c 0
 306 207.167 319.333 175.333 320 138 c 0
 320.667 94.6667 307.167 59.1667 279.5 31.5 c 0
 251.833 3.83333 216.333 -10 173 -10 c 0
 122.333 -10 84 11 58 53 c 0
 36.6667 87.6667 26 132.333 26 187 c 0
 26 280.333 53.6667 351.667 109 401 c 0
 152.333 439.667 203 459.333 261 460 c 0
 323.667 460.667 377.667 437.667 423 391 c 1
 461 437 511 460 573 460 c 0
 636.333 460 682 435.667 710 387 c 1
 724 415 743.333 434.333 768 445 c 0
 787.333 453.667 814.667 458.667 850 460 c 1
 970.667 451.333 1031.67 373.333 1033 226 c 0
238 137 m 0
 238.667 153.667 232.167 168.5 218.5 181.5 c 0
 204.833 194.5 189.667 201.333 173 202 c 0
 153 202.667 137.167 197 125.5 185 c 0
 113.833 173 108 157 108 137 c 1
 108 137 l 1
 108 117.667 114 100.167 126 84.5 c 0
 138 68.8333 153.667 60.6667 173 60 c 0
 215 58.6667 236.667 84.3333 238 137 c 0
EndSplineSet
EndChar
StartChar: uni0D24
Encoding: 3364 3364
Width: 712
Flags: HW
Fore
557 -12 m 1
 505 26 l 1
 535.667 58.6667 558.167 90.3333 572.5 121 c 0
 586.833 151.667 594 183.667 594 217 c 0
 594 259 580.667 297.667 554 333 c 0
 525.333 371 490.667 390 450 390 c 0
 432 390 415 385 399 375 c 1
 427.667 352.333 449.667 321.333 465 282 c 0
 479.667 246 487 208.333 487 169 c 0
 487 115 472.833 71.8333 444.5 39.5 c 0
 416.167 7.16667 375 -9.33333 321 -10 c 0
 273 -10.6667 236 11.3333 210 56 c 0
 188.667 92.6667 177.667 136.667 177 188 c 0
 176.333 229.333 184 265.333 200 296 c 0
 214 323.333 236.333 349.667 267 375 c 1
 253 385 237 390 219 390 c 0
 191 390 163.333 374.667 136 344 c 0
 108.667 313.333 94.3333 278.333 93 239 c 0
 93 234.333 92.3333 227.667 91 219 c 1
 91 206 l 2
 91 130 120.333 70.3333 179 27 c 1
 147 6 l 2
 135.667 -1.33333 127 -8 121 -14 c 1
 79 25.3333 50 63 34 99 c 0
 18 135 10 181.667 10 239 c 0
 10 308.333 34 364 82 406 c 0
 120.667 440 169.667 457.333 229 458 c 0
 272.333 458.667 307.667 447.333 335 424 c 1
 379.667 447.333 429 459.333 483 460 c 0
 543.667 460.667 591.667 434.667 627 382 c 0
 657.667 336.667 673.333 282.333 674 219 c 0
 674.667 171.667 665 128 645 88 c 0
 625 45.3333 595.667 12 557 -12 c 1
397 213 m 2
 395.667 233 389 254.667 377 278 c 0
 367 298 352.667 317.667 334 337 c 1
 296 307 270.667 265 258 211 c 1
 254 170 l 1
 254 98 277 61.6667 323 61 c 0
 372.333 59.6667 398 96 400 170 c 1
 397 213 l 2
EndSplineSet
EndChar
StartChar: uni0D25
Encoding: 3365 3365
Width: 725
Flags: HW
Fore
675 -10 m 1
 31 -10 l 1
 31 460 l 1
 113 460 l 1
 113 60 l 1
 268 60 l 1
 268 238 l 2
 268 386 338 460 478 460 c 0
 609.333 460 675 390 675 250 c 2
 675 -10 l 1
593 60 m 1
 593 237 l 2
 593 285.667 586 321.667 572 345 c 0
 554 375 522.667 390 478 390 c 0
 428.667 390 394.333 374 375 342 c 0
 359 316.667 351 277.667 351 225 c 2
 351 60 l 1
 593 60 l 1
EndSplineSet
EndChar
StartChar: uni0D26
Encoding: 3366 3366
Width: 502
Flags: HW
Fore
402 232 m 1
 434 214 450 182 450 136 c 0
 450 91.3333 435 56 405 30 c 0
 375 4 337 -9.33333 291 -10 c 0
 286.333 -10 281.667 -9.66667 277 -9 c 0
 267 -8.33333 254.333 -6.33333 239 -3 c 2
 206 4 l 1
 206 82 l 1
 212.667 76.6667 224.333 71 241 65 c 1
 248.333 64.3333 258 62.6667 270 60 c 1
 291 60 l 2
 312.333 60 330.5 67.3333 345.5 82 c 0
 360.5 96.6667 368.333 114.667 369 136 c 0
 369.667 156 361.333 171.667 344 183 c 0
 329.333 192.333 311.667 197 291 197 c 2
 193 197 l 1
 193 265 l 1
 291 265 l 2
 311 265 328 270 342 280 c 0
 356 290 363.333 304.667 364 324 c 0
 364.667 346.667 353.667 364 331 376 c 0
 313 385.333 291.667 390 267 390 c 0
 213 390 171.333 372 142 336 c 0
 114.667 303.333 100.667 259.333 100 204 c 0
 99.3333 149.333 113 92.3333 141 33 c 1
 75 -16 l 1
 60.3333 14 46.6667 49.3333 34 90 c 1
 25.3333 130 21 164.667 21 194 c 0
 20.3333 271.333 41.3333 334.333 84 383 c 0
 128.667 434.333 189 460 265 460 c 0
 313 460 354.333 449.333 389 428 c 0
 430.333 402 451.333 366.667 452 322 c 0
 452.667 284 436 254 402 232 c 1
EndSplineSet
EndChar
StartChar: uni0D27
Encoding: 3367 3367
Width: 716
Flags: HW
Fore
548 463 m 1
 586 437 616.333 399.667 639 351 c 0
 659.667 305.667 670 258.667 670 210 c 0
 670 145.333 653.667 93.3333 621 54 c 0
 585.667 12 536.333 -9.33333 473 -10 c 0
 429 -10.6667 387.667 12 349 58 c 1
 318.333 13.3333 272 -9.33333 210 -10 c 0
 150 -10.6667 103.333 10.6667 70 54 c 0
 40 93.3333 25 143.667 25 205 c 0
 25 256.333 35.3333 304.333 56 349 c 0
 78 397.667 109 435.667 149 463 c 1
 215 412 l 1
 164.333 376.667 131 325 115 257 c 0
 111 239 108.667 219.333 108 198 c 0
 107.333 158 116 125.667 134 101 c 0
 154.667 74.3333 184.333 60.6667 223 60 c 0
 249 59.3333 270.667 67.6667 288 85 c 0
 305.333 102.333 314 124 314 150 c 1
 313 460 l 1
 396 460 l 1
 396 150 l 2
 396 124 402.333 103 415 87 c 0
 428.333 69 447.667 60 473 60 c 0
 511.667 60 541.333 76.6667 562 110 c 0
 579.333 137.333 588 171.667 588 213 c 0
 588 303.667 552 370 480 412 c 1
 548 463 l 1
EndSplineSet
EndChar
StartChar: uni0D28
Encoding: 3368 3368
Width: 691
Flags: HW
Fore
543 -13 m 1
 477 38 l 1
 509 60.6667 534.5 90.8333 553.5 128.5 c 0
 572.5 166.167 582.333 205 583 245 c 0
 583.667 285.667 574.667 319 556 345 c 0
 535.333 375 506 390.333 468 391 c 0
 446 391.667 427.5 382.333 412.5 363 c 0
 397.5 343.667 390 320 390 292 c 1
 391 -10 l 1
 308 -10 l 1
 308 292 l 2
 308 320.667 300 344.167 284 362.5 c 0
 268 380.833 246 390.333 218 391 c 0
 181.333 391.667 152.333 376.333 131 345 c 0
 113 317.667 103.667 284.667 103 246 c 0
 102.333 207.333 111.5 168.333 130.5 129 c 0
 149.5 89.6667 176.333 59.3333 211 38 c 1
 144 -13 l 1
 62 43.6667 20.6667 126.333 20 235 c 0
 19.3333 298.333 36.5 351.5 71.5 394.5 c 0
 106.5 437.5 155.333 459.333 218 460 c 0
 244 460 269 453.667 293 441 c 0
 311 431.667 327.667 416.667 343 396 c 1
 374.333 438 416 459.333 468 460 c 0
 530.667 460.667 579.667 439 615 395 c 0
 648.333 355 665 303 665 239 c 0
 665 189 654.667 142 634 98 c 0
 612.667 51.3333 582.333 14.3333 543 -13 c 1
EndSplineSet
EndChar
StartChar: uni0D2A
Encoding: 3370 3370
Width: 715
Flags: HW
Fore
664 -10 m 1
 232 -10 l 1
 232 58 l 1
 252 62 267.167 71.6667 277.5 87 c 0
 287.833 102.333 293 119.667 293 139 c 0
 293 167.667 283.833 191.5 265.5 210.5 c 0
 247.167 229.5 223.667 239.333 195 240 c 0
 163.667 240.667 138.333 232.167 119 214.5 c 0
 99.6667 196.833 90 172.667 90 142 c 0
 90 100.667 107.667 67 143 41 c 1
 108 -12 l 1
 78 -3.33333 53.6667 17.6667 35 51 c 0
 19 80.3333 10.6667 112 10 146 c 0
 9.33333 200.667 29 242.667 69 272 c 0
 103.667 297.333 149.667 310 207 310 c 0
 253.667 310 293 291.833 325 255.5 c 0
 357 219.167 373.333 177.333 374 130 c 0
 374.667 105.333 369.333 82 358 60 c 1
 581 60 l 1
 581 460 l 1
 664 460 l 1
 664 -10 l 1
EndSplineSet
EndChar
StartChar: uni0D2B
Encoding: 3371 3371
Width: 965
Flags: HW
Fore
915 -10 m 1
 233 -10 l 1
 233 46 l 1
 254.333 51.3333 271.167 63.1667 283.5 81.5 c 0
 295.833 99.8333 302.333 120.333 303 143 c 0
 303.667 172.333 295 195.833 277 213.5 c 0
 259 231.167 235.333 240 206 240 c 0
 156 240 122.667 219.333 106 178 c 0
 102 167.333 99.6667 154.333 99 139 c 0
 97.6667 99 117.667 66 159 40 c 1
 108 -13 l 1
 83.3333 3 61.6667 25 43 53 c 1
 29 79 22 106.667 22 136 c 0
 22 186.667 39.8333 228.333 75.5 261 c 0
 111.167 293.667 154.667 310 206 310 c 0
 256.667 310 299.667 294.333 335 263 c 0
 370.333 231.667 388 191 388 141 c 2
 388 118 l 1
 387.333 112.667 385.667 104.333 383 93 c 0
 382.333 85 378.333 74 371 60 c 1
 508 60 l 1
 508 250 l 2
 508 316.667 526.333 368.167 563 404.5 c 0
 599.667 440.833 651.333 459.333 718 460 c 0
 776 460.667 823.333 442.167 860 404.5 c 0
 896.667 366.833 915 315.333 915 250 c 2
 915 -10 l 1
833 60 m 1
 833 225 l 2
 833 335 794.667 390 718 390 c 0
 678 390 646.833 376.833 624.5 350.5 c 0
 602.167 324.167 590.667 290.667 590 250 c 1
 590 250 l 1
 590 60 l 1
 833 60 l 1
EndSplineSet
EndChar
StartChar: uni0D2C
Encoding: 3372 3372
Width: 1050
Flags: HW
Fore
1010 -10 m 1
 590 -10 l 1
 590 57 l 1
 654.667 82.3333 687 137.333 687 222 c 0
 687 254 680.333 287.667 667 323 c 0
 649.667 367 627.333 389.333 600 390 c 0
 567.333 390.667 540 381.667 518 363 c 0
 496 344.333 485 319 485 287 c 2
 485 -10 l 1
 403 -10 l 1
 402 287 l 1
 402 319 391 344 369 362 c 0
 347 380 319.667 389.333 287 390 c 0
 246.333 390.667 210.667 376 180 346 c 0
 150.667 318.667 132.333 284.333 125 243 c 1
 149.667 261.667 178.667 271.333 212 272 c 0
 249.333 272.667 281 259.833 307 233.5 c 0
 333 207.167 346.333 175.333 347 138 c 0
 347.667 90.6667 335.167 54.3333 309.5 29 c 0
 283.833 3.66667 247.333 -9.33333 200 -10 c 0
 103.333 -10.6667 54.6667 55 54 187 c 0
 53.3333 279.667 80.6667 351 136 401 c 0
 178.667 439.667 229.333 459.333 288 460 c 0
 350.667 460.667 404.667 437.667 450 391 c 1
 488 437 533.667 460 587 460 c 0
 642.333 460 688 436.667 724 390 c 0
 756 348 772 294.667 772 230 c 0
 772 168.667 754.667 112 720 60 c 1
 927 60 l 1
 928 460 l 1
 1010 460 l 1
 1010 -10 l 1
135 137 m 0
 135 117.667 141.167 100.333 153.5 85 c 0
 165.833 69.6667 181.333 61.6667 200 61 c 0
 242 59.6667 263.667 85 265 137 c 0
 265.667 153.667 259.167 168.5 245.5 181.5 c 0
 231.833 194.5 216.667 201.333 200 202 c 0
 180 202.667 164.167 197 152.5 185 c 0
 140.833 173 135 157 135 137 c 0
EndSplineSet
EndChar
StartChar: uni0D2D
Encoding: 3373 3373
Width: 499
Flags: HW
Fore
460 87 m 0
 461.333 23.6667 408.333 -8.66667 301 -10 c 0
 283 -10 257.333 -7 224 -1 c 0
 186 5.66667 162.667 13 154 21 c 1
 136 96 l 1
 179.333 72 246.667 60 338 60 c 0
 360.667 60 372 69 372 87 c 0
 372 105.667 360.667 115 338 115 c 2
 251 115 l 2
 223 115 198.5 124.5 177.5 143.5 c 0
 156.5 162.5 145.667 186 145 214 c 0
 144.333 248 160.667 273.333 194 290 c 0
 220 303.333 251.667 310 289 310 c 2
 325 310 l 2
 359.667 310 377 321 377 343 c 0
 377 373.667 343.333 389.333 276 390 c 0
 158 391.333 99 325.667 99 193 c 0
 99 146.333 108 89 126 21 c 1
 58 -14 l 1
 30.6667 63.3333 17 133.333 17 196 c 0
 17 280.667 39 345.667 83 391 c 0
 127 436.333 191.333 459.333 276 460 c 0
 326 460.667 366.667 453 398 437 c 0
 439.333 416.333 460 383.333 460 338 c 0
 460 297.333 437.333 269.333 392 254 c 0
 366 245.333 327.333 240.667 276 240 c 0
 246 239.333 231 230.667 231 214 c 0
 231 194.667 246 185 276 185 c 2
 363 185 l 2
 393 185 416.5 176.167 433.5 158.5 c 0
 450.5 140.833 459.333 117 460 87 c 0
EndSplineSet
EndChar
StartChar: uni0D2E
Encoding: 3374 3374
Width: 519
Flags: HW
Fore
471 -10 m 1
 26 -10 l 1
 26 225 l 2
 26 310.333 48.3333 372.333 93 411 c 0
 129.667 442.333 181.333 458.667 248 460 c 1
 248 460 l 1
 315.333 460 369.333 441 410 403 c 0
 450.667 365 471 305.667 471 225 c 2
 471 -10 l 1
388 60 m 1
 388 225 l 2
 388 313.667 357.333 367.333 296 386 c 1
 320.667 361.333 333.333 330.333 334 293 c 0
 335.333 219.667 290.667 142 200 60 c 1
 388 60 l 1
108 58 m 1
 144.667 82 177.333 115.333 206 158 c 0
 236.667 204 252 247.333 252 288 c 0
 252 332 229.667 357.667 185 365 c 1
 150.333 365 127.333 342 116 296 c 0
 110.667 273.333 108 237 108 187 c 2
 108 58 l 1
EndSplineSet
EndChar
StartChar: uni0D2F
Encoding: 3375 3375
Width: 829
Flags: HW
Fore
693 463 m 1
 755 403 786 333.667 786 255 c 0
 786 182.333 760.667 121.667 710 73 c 0
 662.667 27 602 -0.666667 528 -10 c 1
 514.667 -10 505.667 -9.66667 501 -9 c 0
 491.667 -8.33333 483 -7 475 -5 c 0
 462.333 -3.66667 453.667 -2.66667 449 -2 c 0
 444.333 -1.33333 437.667 0.333333 429 3 c 1
 415.667 -1.66667 399.333 -4.66667 380 -6 c 2
 316 -10 l 2
 230.667 -15.3333 158 15.3333 98 82 c 0
 50 135.333 26 199 26 273 c 0
 26 323.667 38.3333 366.333 63 401 c 0
 90.3333 439.667 128.333 459.333 177 460 c 0
 233 460.667 278 433.333 312 378 c 1
 303 373 l 1
 294 378 l 1
 320 422 364.333 449.333 427 460 c 1
 481.667 460 524.667 439.667 556 399 c 0
 584 361.667 598.333 315 599 259 c 0
 599.667 176.333 571 111 513 63 c 1
 568.333 63 615.333 85 654 129 c 0
 686 165.667 702.333 209.333 703 260 c 0
 703.667 290.667 697 320.667 683 350 c 0
 670.333 376.667 650.333 402.333 623 427 c 1
 693 463 l 1
433 73 m 1
 428 64 l 1
 423 73 l 1
 488.333 113 521.667 174.667 523 258 c 0
 523.667 291.333 516.333 320.333 501 345 c 0
 483.667 373.667 459.333 388.333 428 389 c 0
 394.667 389.667 369.333 375.333 352 346 c 0
 337.333 322 329.667 292.333 329 257 c 0
 328.333 221 337 185.333 355 150 c 0
 371 118.667 397 93 433 73 c 1
327 60 m 1
 290.333 91.3333 269.333 135.667 264 193 c 1
 252 328 l 1
 244 368 219.333 388.333 178 389 c 0
 153.333 389.667 135 376.333 123 349 c 0
 113.667 329 109 305 109 277 c 0
 109 211 128.667 158.5 168 119.5 c 0
 207.333 80.5 260.333 60.6667 327 60 c 1
EndSplineSet
EndChar
StartChar: uni0D30
Encoding: 3376 3376
Width: 520
Flags: HW
Fore
405 391 m 1
 427.667 374.333 447.667 343.333 465 298 c 0
 479.667 259.333 487.333 220 488 180 c 0
 488.667 124.667 475.667 80 449 46 c 0
 419.667 9.33333 377.667 -9.33333 323 -10 c 0
 274.333 -10.6667 237 12 211 58 c 0
 190.333 95.3333 179.667 140.333 179 193 c 0
 178.333 233 187 268.667 205 300 c 0
 219.667 325.333 244 353 278 383 c 1
 259.333 388.333 244.333 391 233 391 c 0
 190.333 391.667 155.667 371.667 129 331 c 0
 106.333 295 94.6667 254.667 94 210 c 0
 93.3333 152.667 110.333 102.667 145 60 c 0
 155 48 166.667 36.6667 180 26 c 1
 152 7 l 1
 140 1 130.667 -6.33333 124 -15 c 1
 82 27 54 61.6667 40 89 c 0
 21.3333 125 12 165.667 12 211 c 2
 12 228 l 1
 14 246 l 1
 14 316.667 37.6667 371.333 85 410 c 0
 125 442.667 176 459.333 238 460 c 0
 271.333 460.667 304 454.833 336 442.5 c 0
 368 430.167 391 413 405 391 c 1
400 219 m 2
 398.667 237.667 391.833 259.333 379.5 284 c 0
 367.167 308.667 352.667 329.333 336 346 c 1
 296.667 317.333 271.333 274 260 216 c 2
 256 196 l 1
 255 170 l 1
 253.667 142.667 258 119 268 99 c 0
 280 73.6667 298.333 60.6667 323 60 c 0
 347.667 59.3333 367.833 70.8333 383.5 94.5 c 0
 399.167 118.167 405.667 146.333 403 179 c 1
 400 219 l 2
EndSplineSet
EndChar
StartChar: uni0D31
Encoding: 3377 3377
Width: 485
Flags: HW
Fore
303 -14 m 1
 268 41 l 1
 300 61 325 88.3333 343 123 c 0
 361 157.667 370 194.333 370 233 c 0
 370 276.333 360 312.333 340 341 c 0
 317.333 373 285 389.333 243 390 c 0
 199 390.667 164.333 374 139 340 c 0
 115.667 310 103.667 272.333 103 227 c 0
 102.333 191 110.333 155.667 127 121 c 0
 143.667 86.3333 166.333 59.3333 195 40 c 1
 159 -14 l 1
 116.333 10 83 43 59 85 c 0
 35 127 22.6667 172.667 22 222 c 0
 21.3333 288 41.6667 344 83 390 c 0
 124.333 436 177.667 459.333 243 460 c 0
 305.667 460.667 357.333 438.333 398 393 c 0
 432.667 355 450.333 303.667 451 239 c 0
 451.667 191.667 438 142.667 410 92 c 0
 384.667 48 349 12.6667 303 -14 c 1
EndSplineSet
EndChar
StartChar: uni0D32
Encoding: 3378 3378
Width: 696
Flags: HW
Fore
640 460 m 1
 639 -10 l 1
 20 -10 l 1
 20 238 l 2
 20 384 89.6667 458 229 460 c 1
 229 460 l 1
 358.333 460 424 353.333 426 140 c 1
 102 140 l 1
 102 60 l 1
 557 60 l 1
 557 460 l 1
 640 460 l 1
344 210 m 1
 344 238 l 2
 344 339.333 301.667 390 217 390 c 0
 179.667 390 151.167 378.5 131.5 355.5 c 0
 111.833 332.5 102 301.667 102 263 c 2
 102 210 l 1
 344 210 l 1
EndSplineSet
EndChar
StartChar: uni0D33
Encoding: 3379 3379
Width: 595
Flags: HW
Fore
540 312 m 0
 540 291.333 536.667 274 530 260 c 0
 523.333 246 513.333 234.333 500 225 c 1
 530 203.667 545.333 173 546 133 c 0
 546.667 89 527.333 55.3333 488 32 c 0
 455.333 12.6667 415.333 3 368 3 c 2
 156 3 l 2
 144 3 133.333 -1.66667 124 -11 c 1
 117.333 -19.6667 113.667 -31.3333 113 -46 c 0
 111.667 -74.6667 126 -89 156 -89 c 2
 528 -89 l 1
 528 -159 l 1
 156 -159 l 2
 118.667 -159 87.6667 -149 63 -129 c 0
 36.3333 -107.667 23 -79 23 -43 c 0
 23 -7 36.3333 21.6667 63 43 c 0
 87.6667 63 118.667 73 156 73 c 2
 356 73 l 2
 381.333 73 403.667 77.6667 423 87 c 0
 447.667 99 460 116.667 460 140 c 0
 460 156 453.167 168.333 439.5 177 c 0
 425.833 185.667 410.333 190 393 190 c 2
 333 190 l 1
 333 260 l 1
 393 260 l 2
 415 260 432.333 266 445 278 c 1
 453.667 288.667 458 300 458 312 c 0
 459.333 364 408.667 390 306 390 c 0
 233.333 390 180 373 146 339 c 1
 166 345 l 1
 193 347 l 2
 229.667 349.667 261.333 336.333 288 307 c 0
 312 280.333 324 249.667 324 215 c 0
 324 175 309.667 143.667 281 121 c 0
 255 100.333 221.333 90 180 90 c 0
 133.333 90 96 104.167 68 132.5 c 0
 40 160.833 25.6667 198.333 25 245 c 0
 24.3333 315 54.6667 369.667 116 409 c 0
 168.667 443 232 460 306 460 c 0
 368 460 419 450.667 459 432 c 0
 512.333 406.667 539.333 366.667 540 312 c 0
180 160 m 0
 198.667 160 213.167 165.5 223.5 176.5 c 0
 233.833 187.5 239.333 200.667 240 216 c 0
 240.667 231.333 235.5 245.167 224.5 257.5 c 0
 213.5 269.833 198.667 276.333 180 277 c 0
 164 277.667 149.333 271.333 136 258 c 1
 126 246 120.667 231.667 120 215 c 0
 119.333 201.667 124.333 188.667 135 176 c 0
 144.333 166.667 159.333 161.333 180 160 c 0
EndSplineSet
EndChar
StartChar: uni0D34
Encoding: 3380 3380
Width: 501
Flags: HW
Fore
318 460 m 0
 362 460.667 397.667 447.833 425 421.5 c 0
 452.333 395.167 466 360 466 316 c 0
 466 269.333 451.333 229 422 195 c 0
 392 159 354 141 308 141 c 1
 314 125 317 109 317 93 c 0
 317 59 304.333 33 279 15 c 0
 257 -1 228.333 -9.33333 193 -10 c 0
 145 -10.6667 99.3333 13.6667 56 63 c 1
 92 116 l 1
 112 95.3333 129.667 81 145 73 c 0
 157.667 66.3333 173.333 62 192 60 c 1
 218 60 232 72.3333 234 97 c 1
 231 118 l 2
 229.667 126 227 133.333 223 140 c 1
 167 140 121 152.667 85 178 c 0
 43 207.333 21.6667 248.667 21 302 c 0
 20.3333 354.667 44.3333 409.333 93 466 c 1
 144 413 l 1
 116 379 101.667 344 101 308 c 0
 100.333 249.333 133.333 217 200 211 c 1
 184 245.667 175.667 278.667 175 310 c 0
 174.333 350.667 187.5 385.667 214.5 415 c 0
 241.5 444.333 276 459.333 318 460 c 0
330 390 m 1
 330 390 l 1
 280 390 255 364 255 312 c 0
 255 281.333 265.333 247.333 286 210 c 1
 316.667 210 341.333 220.5 360 241.5 c 0
 378.667 262.5 388 288.333 388 319 c 0
 388 337.667 383.167 354.167 373.5 368.5 c 0
 363.833 382.833 349.333 390 330 390 c 1
EndSplineSet
EndChar
StartChar: uni0D35
Encoding: 3381 3381
Width: 798
Flags: HW
Fore
726 -10 m 1
 293 -10 l 1
 293 55 l 1
 351.667 92.3333 381.333 150 382 228 c 0
 382.667 273.333 371 311 347 341 c 0
 321 373 285.667 389.333 241 390 c 0
 196.333 390.667 161 374 135 340 c 0
 111 309.333 98.6667 271 98 225 c 0
 97.3333 145 134 83.3333 208 40 c 1
 155 -13 l 1
 112.333 11 78.1667 43.6667 52.5 85 c 0
 26.8333 126.333 14 171 14 219 c 0
 14 286.333 35.1667 343.167 77.5 389.5 c 0
 119.833 435.833 174.333 459.333 241 460 c 0
 312.333 460.667 367.667 438.667 407 394 c 0
 443.667 352 462 295 462 223 c 0
 462 155 447 100.667 417 60 c 1
 643 60 l 1
 643 460 l 1
 726 460 l 1
 726 -10 l 1
EndSplineSet
EndChar
StartChar: uni0D36
Encoding: 3382 3382
Width: 813
Flags: HW
Fore
758 216 m 2
 759 195 l 1
 760 181 l 2
 763.333 131.667 750 87.5 720 48.5 c 0
 690 9.5 649.333 -10 598 -10 c 0
 558.667 -10 525.667 7.66667 499 43 c 0
 472.333 78.3333 458.667 123.667 458 179 c 0
 457.333 214.333 465 251 481 289 c 0
 495.667 323.667 519.667 356.333 553 387 c 1
 529 390 l 2
 519 390 512.667 390.667 510 392 c 1
 470 386 438.833 371.5 416.5 348.5 c 0
 394.167 325.5 383 293.333 383 252 c 0
 383 172 374 112.667 356 74 c 0
 330 18.6667 281.667 -9.33333 211 -10 c 0
 151.667 -10.6667 105.333 10.3333 72 53 c 0
 42 91.6667 26.6667 141.333 26 202 c 0
 25.3333 258 35.6667 308.667 57 354 c 0
 81.6667 407.333 117.333 443.333 164 462 c 1
 215 410 l 1
 181.667 392.667 154.667 362.333 134 319 c 0
 116 279.667 106.667 239.333 106 198 c 0
 104.667 107.333 140 61.3333 212 60 c 0
 271.333 59.3333 301 123.667 301 253 c 0
 301 317 320.167 367.5 358.5 404.5 c 0
 396.833 441.5 447.667 460 511 460 c 0
 585 460 643.833 437.667 687.5 393 c 0
 731.167 348.333 754.667 289.333 758 216 c 2
622 352 m 0
 614 361.333 604.667 367 594 369 c 1
 576 369 563 348 555 306 c 0
 550.333 280.667 548 253.333 548 224 c 0
 548 114.667 569 60 611 60 c 0
 637 60 656.333 73.6667 669 101 c 0
 679 121.667 684.333 146.667 685 176 c 0
 686.333 243.333 665.333 302 622 352 c 0
EndSplineSet
EndChar
StartChar: uni0D37
Encoding: 3383 3383
Width: 929
Flags: HW
Fore
543 223 m 1
 543 325 l 2
 543 364.333 530 386 504 390 c 1
 470 390 452.333 366.667 451 320 c 0
 450.333 292.667 458.667 269.833 476 251.5 c 0
 493.333 233.167 515.667 223.667 543 223 c 1
818 460 m 1
 888 460 l 1
 888 -10 l 1
 245 -10 l 1
 245 46 l 1
 263.667 50 279 60 291 76 c 1
 301 93.3333 306.333 112 307 132 c 0
 307.667 162 298.167 187.333 278.5 208 c 0
 258.833 228.667 234.333 239.333 205 240 c 0
 174.333 240.667 149.333 231.167 130 211.5 c 0
 110.667 191.833 100.667 166.667 100 136 c 0
 99.3333 94.6667 117.333 63.3333 154 42 c 1
 119 -12 l 1
 91 -6 67.3333 12 48 42 c 0
 30 70 21 103.333 21 142 c 0
 21 197.333 40.3333 240 79 270 c 0
 113.667 296 160 309.333 218 310 c 0
 264.667 310.667 305.167 293 339.5 257 c 0
 373.833 221 391 179.667 391 133 c 0
 391 107 384.667 82.6667 372 60 c 1
 543 60 l 1
 543 154 l 1
 489.667 154 446 176.667 412 222 c 0
 390.667 250.667 379.667 283.333 379 320 c 0
 378.333 361.333 390.667 394.833 416 420.5 c 0
 441.333 446.167 474.667 459.333 516 460 c 0
 551.333 460.667 578.333 449 597 425 c 0
 615.667 401 625 359.333 625 300 c 2
 625 223 l 1
 671.667 223 716 251.333 758 308 c 0
 798 361.333 818 412 818 460 c 1
805 261 m 1
 754.333 206.333 694.333 170.667 625 154 c 1
 625 60 l 1
 805 60 l 1
 805 261 l 1
EndSplineSet
EndChar
StartChar: uni0D38
Encoding: 3384 3384
Width: 983
Flags: HW
Fore
823 463 m 1
 893.667 403 929.333 323.667 930 225 c 0
 930.667 163 913.333 108.5 878 61.5 c 0
 842.667 14.5 794.667 -9.33333 734 -10 c 0
 667.333 -10.6667 620.667 8.33333 594 47 c 0
 573.333 77 562.667 129.667 562 205 c 0
 561.333 265 557 306.667 549 330 c 0
 535 370 506.667 390 464 390 c 0
 438 390 414.667 380.667 394 362 c 0
 377.333 346.667 369 326 369 300 c 2
 369 -10 l 1
 287 -10 l 1
 287 300 l 2
 287 324.667 280.5 345.667 267.5 363 c 0
 254.5 380.333 236.667 389.333 214 390 c 0
 176.667 390.667 147.667 374 127 340 c 0
 109.667 311.333 101 277 101 237 c 0
 101 148.333 134.333 82.3333 201 39 c 1
 136 -12 l 1
 96 7.33333 65.3333 40.6667 44 88 c 0
 25.3333 128.667 15.6667 173.667 15 223 c 0
 14.3333 289 30.6667 343.667 64 387 c 0
 100 435 150 459.333 214 460 c 0
 265.333 460.667 305 438 333 392 c 1
 361 437.333 409 460 477 460 c 0
 531 460 571.333 442.333 598 407 c 0
 628 367 643.333 291 644 179 c 0
 644.667 99.6667 674.667 60 734 60 c 0
 772.667 60 802.333 76.6667 823 110 c 0
 840.333 138.667 849 173.333 849 214 c 0
 849 254.667 841 293.667 825 331 c 0
 807 371.667 783 403.333 753 426 c 1
 823 463 l 1
EndSplineSet
EndChar
StartChar: uni0D39
Encoding: 3385 3385
Width: 970
Flags: HW
Fore
795 -13 m 1
 742 42 l 1
 776 60 802.5 85.6667 821.5 119 c 0
 840.5 152.333 850.333 188.333 851 227 c 0
 851.667 271.667 839 309.5 813 340.5 c 0
 787 371.5 752.333 387.333 709 388 c 0
 663.667 388.667 627.667 371.667 601 337 c 0
 577.667 306.333 565.667 267.667 565 221 c 0
 564.333 149 590.333 94 643 56 c 1
 643 -10 l 1
 249 -10 l 1
 249 58 l 1
 265.667 63.3333 279.667 74.8333 291 92.5 c 0
 302.333 110.167 308.333 128.333 309 147 c 0
 309.667 176.333 300.5 200.167 281.5 218.5 c 0
 262.5 236.833 238 246.333 208 247 c 0
 174.667 247.667 148 240.333 128 225 c 0
 106 208.333 94.6667 184 94 152 c 0
 93.3333 102.667 116.667 66 164 42 c 1
 111 -13 l 1
 45 27.6667 12 79.6667 12 143 c 0
 12 193 32.6667 235.333 74 270 c 0
 113.333 302.667 158.333 319 209 319 c 0
 260.333 319 303.5 302.667 338.5 270 c 0
 373.5 237.333 391 195.333 391 144 c 0
 391 115.333 385.333 87.6667 374 61 c 1
 537 61 l 1
 501 107.667 482.667 164 482 230 c 0
 481.333 298 502 353.167 544 395.5 c 0
 586 437.833 641 459.333 709 460 c 0
 775.667 460.667 829.667 438.667 871 394 c 0
 912.333 349.333 933.333 293.333 934 226 c 0
 934.667 176 922.5 130.167 897.5 88.5 c 0
 872.5 46.8333 838.333 13 795 -13 c 1
EndSplineSet
EndChar
StartChar: uni0D3E
Encoding: 3390 3390
Width: 421
Flags: HW
Fore
195 460 m 0
 245 460.667 286.667 435 320 383 c 0
 350 336.333 365 280.333 365 215 c 0
 365 152.333 350.667 100.667 322 60 c 0
 290 14 243.667 -9.33333 183 -10 c 0
 126.333 -10.6667 82.6667 8.66667 52 48 c 0
 24.6667 82.6667 11 128.333 11 185 c 1
 93 185 l 1
 93 146.333 98.3333 117.333 109 98 c 0
 123 73.3333 147.667 60.6667 183 60 c 0
 232.333 59.3333 265.333 93 282 161 c 0
 286 177.667 288.333 199 289 225 c 0
 289.667 267 280.667 304.833 262 338.5 c 0
 243.333 372.167 217 389.333 183 390 c 0
 151.667 390.667 127.333 373.667 110 339 c 0
 100 317.667 94.3333 289 93 253 c 1
 11 253 l 1
 11 307.667 23.3333 353.333 48 390 c 0
 79.3333 436 128.333 459.333 195 460 c 0
EndSplineSet
EndChar
StartChar: uni0D3F
Encoding: 3391 3391
Width: 293
Flags: HW
Fore
146 -10 m 1
 63 -10 l 1
 63 476 l 2
 63 502.667 57.5 524.167 46.5 540.5 c 0
 35.5 556.833 19.3333 565 -2 565 c 0
 -27.3333 565 -45 556.333 -55 539 c 0
 -62.3333 526.333 -66.3333 506 -67 478 c 1
 -149 478 l 1
 -149 582 -100 634.333 -2 635 c 0
 40 635.667 75 621.833 103 593.5 c 0
 131 565.167 145 530 145 488 c 1
 146 -10 l 1
EndSplineSet
EndChar
StartChar: uni0D40
Encoding: 3392 3392
Width: 264
Flags: HW
Fore
134 -10 m 1
 52 -10 l 1
 52 567 l 2
 52 618.333 26.6667 645 -24 647 c 1
 -11.3333 635 -1.33333 620.333 6 603 c 0
 14.6667 581.667 19 564.667 19 552 c 0
 19 498.667 -16.6667 471.333 -88 470 c 0
 -118 469.333 -141.5 478.333 -158.5 497 c 0
 -175.5 515.667 -184.333 540 -185 570 c 0
 -185.667 613.333 -170 648.667 -138 676 c 0
 -108 701.333 -70.6667 714.333 -26 715 c 0
 27.3333 715.667 67.3333 701.667 94 673 c 0
 120.667 644.333 134 600.667 134 542 c 2
 134 -10 l 1
-88 540 m 0
 -70 540 -61 548 -61 564 c 0
 -61 588.667 -74 603 -100 607 c 1
 -100 607 l 1
 -103.333 603 -105.333 599.667 -106 597 c 1
 -109 576 l 1
 -109 565.333 -107.667 556.833 -105 550.5 c 0
 -102.333 544.167 -96.6667 540.667 -88 540 c 0
EndSplineSet
EndChar
StartChar: uni0D41
Encoding: 3393 3393
Width: 338
Flags: HW
Fore
220 250 m 0
 220 226 218.667 199.333 216 170 c 0
 212.667 135.333 206.333 90 197 34 c 1
 222.333 29.3333 242.333 13.3333 257 -14 c 0
 269.667 -36.6667 276.333 -62.3333 277 -91 c 0
 277.667 -132.333 264.833 -164.167 238.5 -186.5 c 0
 212.167 -208.833 177.667 -220.333 135 -221 c 0
 99 -221.667 70.3333 -209.833 49 -185.5 c 0
 27.6667 -161.167 17 -130.667 17 -94 c 0
 17 -60 24.3333 -31.6667 39 -9 c 0
 56.3333 16.3333 81 31 113 35 c 1
 117.667 64.3333 124.333 108.667 133 168 c 0
 135 187.333 136.333 210.667 137 238 c 0
 137.667 274.667 130.667 307.333 116 336 c 0
 98 370.667 72 388.667 38 390 c 1
 38 460 l 1
 90 460 134.333 439 171 397 c 0
 203 359.667 219.333 310.667 220 250 c 0
147 -151 m 0
 161 -151.667 173.667 -146.333 185 -135 c 1
 193 -125 197.333 -112 198 -96 c 0
 198.667 -79.3333 194.333 -64.8333 185 -52.5 c 0
 175.667 -40.1667 163 -34 147 -34 c 0
 133 -34 120.333 -40 109 -52 c 1
 102.333 -62 98 -76.6667 96 -96 c 1
 96 -131.333 113 -149.667 147 -151 c 0
EndSplineSet
EndChar
StartChar: uni0D42
Encoding: 3394 3394
Width: 325
Flags: HW
Fore
205 250 m 0
 205.667 214.667 203.667 182 199 152 c 1
 182 34 l 1
 207.333 29.3333 227.333 13.3333 242 -14 c 0
 254.667 -36.6667 261.333 -62.3333 262 -91 c 0
 262.667 -132.333 249.833 -164.167 223.5 -186.5 c 0
 197.167 -208.833 162.667 -220.333 120 -221 c 0
 84 -221.667 55.3333 -209.833 34 -185.5 c 0
 12.6667 -161.167 2 -130.667 2 -94 c 0
 2 -61.3333 10 -33 26 -9 c 0
 44 17.6667 68.3333 32.3333 99 35 c 1
 116 147 l 2
 120 174.333 122.333 204.667 123 238 c 0
 123.667 275.333 116.667 308.333 102 337 c 0
 83.3333 372.333 57 390 23 390 c 1
 23 460 l 1
 75 460 119.333 439 156 397 c 0
 188 359.667 204.333 310.667 205 250 c 0
187 -71 m 1
 179 -46.3333 161 -34 133 -34 c 0
 109.667 -34 92.6667 -46.3333 82 -71 c 1
 167 -73 l 1
 187 -71 l 1
88 -151 m 0
 99.3333 -165 114.333 -172.333 133 -173 c 0
 143.667 -173.667 155.333 -169.333 168 -160 c 0
 175.333 -154.667 180.333 -144.667 183 -130 c 2
 187 -109 l 1
 77 -109 l 1
 78 -133 l 1
 79.3333 -138.333 82.6667 -144.333 88 -151 c 0
EndSplineSet
EndChar
StartChar: uni0D43
Encoding: 3395 3395
Width: 426
Flags: HW
Fore
358 -74 m 0
 358.667 -130.667 337.333 -174.333 294 -205 c 0
 256.667 -231.667 208 -245.333 148 -246 c 0
 108.667 -246 76.6667 -233.667 52 -209 c 0
 27.3333 -184.333 14.6667 -152.333 14 -113 c 0
 13.3333 -75.6667 24.3333 -43.8333 47 -17.5 c 0
 69.6667 8.83333 99.3333 22.3333 136 23 c 0
 171.333 23.6667 199.833 11.1667 221.5 -14.5 c 0
 243.167 -40.1667 254 -70.6667 254 -106 c 0
 254 -119.333 253.667 -127.667 253 -131 c 0
 252.333 -134.333 250 -141 246 -151 c 1
 266 -130.333 276 -104.667 276 -74 c 0
 276 -44 262.333 -12.3333 235 21 c 2
 165 107 l 2
 122.333 159.667 101 228.333 101 313 c 2
 101 460 l 1
 183 460 l 1
 183 313 l 2
 183 261 198 209 228 157 c 1
 312 40 l 2
 342 -2 357.333 -40 358 -74 c 0
136 -176 m 0
 151.333 -176.667 163.667 -169.667 173 -155 c 0
 180.333 -143 184.333 -128.667 185 -112 c 0
 185.667 -95.3333 181.667 -80.5 173 -67.5 c 0
 164.333 -54.5 152 -47.6667 136 -47 c 0
 122 -46.3333 110.5 -52.8333 101.5 -66.5 c 0
 92.5 -80.1667 87.6667 -95.3333 87 -112 c 0
 86.3333 -128.667 90.3333 -143.333 99 -156 c 0
 107.667 -168.667 120 -175.333 136 -176 c 0
EndSplineSet
EndChar
StartChar: uni0D45
Encoding: 3397 3397
Width: 72
Flags: HW
Fore
73 660 m 1
 73 540 17.6667 479.333 -93 478 c 0
 -132.333 477.333 -167.667 488.667 -199 512 c 0
 -233 536.667 -251 571.333 -253 616 c 2
 -254 639 l 1
 -251 660 l 1
 -167 660 l 1
 -171 636 l 1
 -170 624 l 1
 -168 614 l 1
 -168 595.333 -160.333 579.833 -145 567.5 c 0
 -129.667 555.167 -112.333 548.667 -93 548 c 0
 -60.3333 547.333 -37.6667 558.333 -25 581 c 0
 -15.6667 597 -10.6667 623.333 -10 660 c 1
 73 660 l 1
EndSplineSet
EndChar
StartChar: uni0D46
Encoding: 3398 3398
Width: 533
Flags: HW
Fore
397 -14 m 1
 330 38 l 1
 356 58 377 87 393 125 c 0
 408.333 160.333 416 195.667 416 231 c 0
 416 278.333 404 316.333 380 345 c 0
 354 375 317.667 390 271 390 c 0
 187 390 131 342.667 103 248 c 1
 126.333 268.667 153 279.333 183 280 c 0
 226.333 280.667 261.667 266.5 289 237.5 c 0
 316.333 208.5 330.333 172.333 331 129 c 0
 331.667 86.3333 318 52.6667 290 28 c 0
 262 3.33333 226.333 -9.33333 183 -10 c 0
 131 -10.6667 90.6667 9.33333 62 50 c 0
 36.6667 86 23.6667 131 23 185 c 0
 22.3333 256.333 43 318.333 85 371 c 0
 131.667 429.667 193.667 459.333 271 460 c 0
 340.333 460.667 396 438 438 392 c 0
 478 348 498.333 291 499 221 c 0
 499.667 180.333 491.167 139 473.5 97 c 0
 455.833 55 430.333 18 397 -14 c 1
183 60 m 0
 203 60 218.833 67.1667 230.5 81.5 c 0
 242.167 95.8333 248 113.333 248 134 c 0
 248 154.667 242.167 172.167 230.5 186.5 c 0
 218.833 200.833 203 208.333 183 209 c 0
 162.333 209.667 146.5 202.667 135.5 188 c 0
 124.5 173.333 118.667 155.333 118 134 c 0
 117.333 112.667 122.833 95 134.5 81 c 0
 146.167 67 162.333 60 183 60 c 0
EndSplineSet
EndChar
StartChar: uni0D47
Encoding: 3399 3399
Width: 472
Flags: HW
Fore
350 210 m 0
 379.333 210 405 200 427 180 c 0
 449 160 460.333 135.333 461 106 c 0
 461.667 74.6667 447.667 48.3333 419 27 c 0
 386.333 3 338.667 -9.33333 276 -10 c 0
 208 -10.6667 152.667 10.8333 110 54.5 c 0
 67.3333 98.1667 45.6667 154 45 222 c 0
 44.3333 291.333 65.3333 348.167 108 392.5 c 0
 150.667 436.833 206.667 459.333 276 460 c 0
 322 460.667 362.333 451.333 397 432 c 0
 439.667 408.667 461.333 375.667 462 333 c 0
 462.667 307.667 453 285.833 433 267.5 c 0
 413 249.167 385.333 240 350 240 c 0
 319.333 240 293.667 247.833 273 263.5 c 0
 252.333 279.167 241.667 302 241 332 c 0
 240.333 351.333 246.667 370 260 388 c 1
 219.333 382 187.5 364.167 164.5 334.5 c 0
 141.5 304.833 129.667 269 129 227 c 0
 128.333 184.333 139.833 147.333 163.5 116 c 0
 187.167 84.6667 219.667 66.3333 261 61 c 1
 248.333 77.6667 241.667 97 241 119 c 0
 240.333 148.333 251.333 171.333 274 188 c 0
 294 202.667 319.333 210 350 210 c 0
350 310 m 0
 358 310 364.333 312.833 369 318.5 c 0
 373.667 324.167 377 332.333 379 343 c 0
 379 353 377 360.667 373 366 c 0
 369 371.333 361.333 375 350 377 c 0
 342 377 335.833 374.333 331.5 369 c 0
 327.167 363.667 324 355 322 343 c 1
 322 321 331.333 310 350 310 c 0
350 73 m 0
 359.333 73 366.667 77.3333 372 86 c 0
 377.333 94.6667 380 103.667 380 113 c 0
 380 131 370 140 350 140 c 0
 342 140 335.833 137.333 331.5 132 c 0
 327.167 126.667 324 118 322 106 c 1
 322 84 331.333 73 350 73 c 0
EndSplineSet
EndChar
StartChar: uni0D48
Encoding: 3400 3400
Width: 1003
Flags: HW
Fore
894 -14 m 1
 827 38 l 1
 853 58 874 87 890 125 c 0
 905.333 160.333 913 195.667 913 231 c 0
 913 278.333 901 316.333 877 345 c 0
 851 375 814.667 390 768 390 c 0
 684 390 628 342.667 600 248 c 1
 623.333 268.667 650 279.333 680 280 c 0
 723.333 280.667 758.667 266.5 786 237.5 c 0
 813.333 208.5 827.333 172.333 828 129 c 0
 828.667 86.333 815 52.667 787 28 c 0
 759 3.33301 723.333 -9.33301 680 -10 c 0
 628 -10.667 587.667 9.33301 559 50 c 0
 533.667 86 520.667 131 520 185 c 0
 519.333 256.333 540 318.333 582 371 c 0
 628.667 429.667 690.667 459.333 768 460 c 0
 837.333 460.667 893 438 935 392 c 0
 975 348 995.333 291 996 221 c 0
 996.667 180.333 988.167 139 970.5 97 c 0
 952.833 55 927.333 18 894 -14 c 1
680 60 m 0
 700 60 715.833 67.167 727.5 81.5 c 0
 739.167 95.833 745 113.333 745 134 c 0
 745 154.667 739.167 172.167 727.5 186.5 c 0
 715.833 200.833 700 208.333 680 209 c 0
 659.333 209.667 643.5 202.667 632.5 188 c 0
 621.5 173.333 615.667 155.333 615 134 c 0
 614.333 112.667 619.833 95 631.5 81 c 0
 643.167 67 659.333 60 680 60 c 0
397 -14 m 1
 330 38 l 1
 356 58 377 87 393 125 c 0
 408.333 160.333 416 195.667 416 231 c 0
 416 278.333 404 316.333 380 345 c 0
 354 375 317.667 390 271 390 c 0
 187 390 131 342.667 103 248 c 1
 126.333 268.667 153 279.333 183 280 c 0
 226.333 280.667 261.667 266.5 289 237.5 c 0
 316.333 208.5 330.333 172.333 331 129 c 0
 331.667 86.3333 318 52.6667 290 28 c 0
 262 3.33333 226.333 -9.33333 183 -10 c 0
 131 -10.6667 90.6667 9.33333 62 50 c 0
 36.6667 86 23.6667 131 23 185 c 0
 22.3333 256.333 43 318.333 85 371 c 0
 131.667 429.667 193.667 459.333 271 460 c 0
 340.333 460.667 396 438 438 392 c 0
 478 348 498.333 291 499 221 c 0
 499.667 180.333 491.167 139 473.5 97 c 0
 455.833 55 430.333 18 397 -14 c 1
183 60 m 0
 203 60 218.833 67.1667 230.5 81.5 c 0
 242.167 95.8333 248 113.333 248 134 c 0
 248 154.667 242.167 172.167 230.5 186.5 c 0
 218.833 200.833 203 208.333 183 209 c 0
 162.333 209.667 146.5 202.667 135.5 188 c 0
 124.5 173.333 118.667 155.333 118 134 c 0
 117.333 112.667 122.833 95 134.5 81 c 0
 146.167 67 162.333 60 183 60 c 0
EndSplineSet
EndChar
StartChar: uni0D49
Encoding: 3401 3401
Width: 648
Flags: HW
Fore
431 460 m 0
 487.667 460 534.333 436.333 571 389 c 0
 603.667 346.333 620.333 293.667 621 231 c 0
 621.667 159 600 101 556 57 c 0
 512 13 453.667 -9.33333 381 -10 c 0
 329 -10.6667 286.333 1 253 25 c 0
 216.333 51.6667 197.333 90 196 140 c 1
 278 140 l 1
 278 84.6667 316.333 57 393 57 c 0
 440.333 57 477.667 76 505 114 c 0
 529.667 148 542.333 189.333 543 238 c 0
 543.667 280.667 533.667 316 513 344 c 0
 490.333 376 458.667 392.333 418 393 c 0
 393.333 393.667 374.333 386 361 370 c 0
 347.667 354 341 333.333 341 308 c 2
 341 190 l 1
 258 190 l 1
 258 308 l 2
 258 332.667 251.167 353 237.5 369 c 0
 223.833 385 205 393 181 393 c 0
 155 393 134.667 380.667 120 356 c 1
 105.333 326 99 291.333 101 252 c 1
 104 190 l 1
 22 190 l 1
 18 229 l 1
 17 254 l 1
 14.3333 314 30.3333 364 65 404 c 0
 96.3333 440.667 139 459.333 193 460 c 0
 238.333 460.667 272.333 440.667 295 400 c 1
 327 440 372.333 460 431 460 c 0
EndSplineSet
EndChar
StartChar: uni0D4A
Encoding: 3402 3402
Width: 1763
Flags: HW
Fore
1582 460 m 4
 1632 460.667 1673.67 435 1707 383 c 4
 1737 336.333 1752 280.333 1752 215 c 4
 1752 152.333 1737.67 100.667 1709 60 c 4
 1677 14 1630.67 -9.33301 1570 -10 c 4
 1513.33 -10.667 1469.67 8.66699 1439 48 c 4
 1411.67 82.667 1398 128.333 1398 185 c 5
 1480 185 l 5
 1480 146.333 1485.33 117.333 1496 98 c 4
 1510 73.333 1534.67 60.667 1570 60 c 4
 1619.33 59.333 1652.33 93 1669 161 c 4
 1673 177.667 1675.33 199 1676 225 c 4
 1676.67 267 1667.67 304.833 1649 338.5 c 4
 1630.33 372.167 1604 389.333 1570 390 c 4
 1538.67 390.667 1514.33 373.667 1497 339 c 4
 1487 317.667 1481.33 289 1480 253 c 5
 1398 253 l 5
 1398 307.667 1410.33 353.333 1435 390 c 4
 1466.33 436 1515.33 459.333 1582 460 c 4
397 -14 m 1
 330 38 l 1
 356 58 377 87 393 125 c 0
 408.333 160.333 416 195.667 416 231 c 0
 416 278.333 404 316.333 380 345 c 0
 354 375 317.667 390 271 390 c 0
 187 390 131 342.667 103 248 c 1
 126.333 268.667 153 279.333 183 280 c 0
 226.333 280.667 261.667 266.5 289 237.5 c 0
 316.333 208.5 330.333 172.333 331 129 c 0
 331.667 86.3333 318 52.6667 290 28 c 0
 262 3.33333 226.333 -9.33333 183 -10 c 0
 131 -10.6667 90.6667 9.33333 62 50 c 0
 36.6667 86 23.6667 131 23 185 c 0
 22.3333 256.333 43 318.333 85 371 c 0
 131.667 429.667 193.667 459.333 271 460 c 0
 340.333 460.667 396 438 438 392 c 0
 478 348 498.333 291 499 221 c 0
 499.667 180.333 491.167 139 473.5 97 c 0
 455.833 55 430.333 18 397 -14 c 1
183 60 m 0
 203 60 218.833 67.1667 230.5 81.5 c 0
 242.167 95.8333 248 113.333 248 134 c 0
 248 154.667 242.167 172.167 230.5 186.5 c 0
 218.833 200.833 203 208.333 183 209 c 0
 162.333 209.667 146.5 202.667 135.5 188 c 0
 124.5 173.333 118.667 155.333 118 134 c 0
 117.333 112.667 122.833 95 134.5 81 c 0
 146.167 67 162.333 60 183 60 c 0
EndSplineSet
EndChar
StartChar: uni0D4B
Encoding: 3403 3403
Width: 1758
Flags: HW
Fore
1582 460 m 0
 1632 460.667 1673.67 435 1707 383 c 0
 1737 336.333 1752 280.333 1752 215 c 0
 1752 152.333 1737.67 100.667 1709 60 c 0
 1677 14 1630.67 -9.33301 1570 -10 c 0
 1513.33 -10.667 1469.67 8.66699 1439 48 c 0
 1411.67 82.667 1398 128.333 1398 185 c 1
 1480 185 l 1
 1480 146.333 1485.33 117.333 1496 98 c 0
 1510 73.333 1534.67 60.667 1570 60 c 0
 1619.33 59.333 1652.33 93 1669 161 c 0
 1673 177.667 1675.33 199 1676 225 c 0
 1676.67 267 1667.67 304.833 1649 338.5 c 0
 1630.33 372.167 1604 389.333 1570 390 c 0
 1538.67 390.667 1514.33 373.667 1497 339 c 0
 1487 317.667 1481.33 289 1480 253 c 1
 1398 253 l 1
 1398 307.667 1410.33 353.333 1435 390 c 0
 1466.33 436 1515.33 459.333 1582 460 c 0
350 210 m 0
 379.333 210 405 200 427 180 c 0
 449 160 460.333 135.333 461 106 c 0
 461.667 74.6667 447.667 48.3333 419 27 c 0
 386.333 3 338.667 -9.33333 276 -10 c 0
 208 -10.6667 152.667 10.8333 110 54.5 c 0
 67.3333 98.1667 45.6667 154 45 222 c 0
 44.3333 291.333 65.3333 348.167 108 392.5 c 0
 150.667 436.833 206.667 459.333 276 460 c 0
 322 460.667 362.333 451.333 397 432 c 0
 439.667 408.667 461.333 375.667 462 333 c 0
 462.667 307.667 453 285.833 433 267.5 c 0
 413 249.167 385.333 240 350 240 c 0
 319.333 240 293.667 247.833 273 263.5 c 0
 252.333 279.167 241.667 302 241 332 c 0
 240.333 351.333 246.667 370 260 388 c 1
 219.333 382 187.5 364.167 164.5 334.5 c 0
 141.5 304.833 129.667 269 129 227 c 0
 128.333 184.333 139.833 147.333 163.5 116 c 0
 187.167 84.6667 219.667 66.3333 261 61 c 1
 248.333 77.6667 241.667 97 241 119 c 0
 240.333 148.333 251.333 171.333 274 188 c 0
 294 202.667 319.333 210 350 210 c 0
350 310 m 0
 358 310 364.333 312.833 369 318.5 c 0
 373.667 324.167 377 332.333 379 343 c 0
 379 353 377 360.667 373 366 c 0
 369 371.333 361.333 375 350 377 c 0
 342 377 335.833 374.333 331.5 369 c 0
 327.167 363.667 324 355 322 343 c 1
 322 321 331.333 310 350 310 c 0
350 73 m 0
 359.333 73 366.667 77.3333 372 86 c 0
 377.333 94.6667 380 103.667 380 113 c 0
 380 131 370 140 350 140 c 0
 342 140 335.833 137.333 331.5 132 c 0
 327.167 126.667 324 118 322 106 c 1
 322 84 331.333 73 350 73 c 0
EndSplineSet
EndChar
StartChar: uni0D4C
Encoding: 3404 3404
Width: 648
Flags: HW
Fore
431 460 m 0
 487.667 460 534.333 436.333 571 389 c 0
 603.667 346.333 620.333 293.667 621 231 c 0
 621.667 159 600 101 556 57 c 0
 512 13 453.667 -9.33333 381 -10 c 0
 329 -10.6667 286.333 1 253 25 c 0
 216.333 51.6667 197.333 90 196 140 c 1
 278 140 l 1
 278 84.6667 316.333 57 393 57 c 0
 440.333 57 477.667 76 505 114 c 0
 529.667 148 542.333 189.333 543 238 c 0
 543.667 280.667 533.667 316 513 344 c 0
 490.333 376 458.667 392.333 418 393 c 0
 393.333 393.667 374.333 386 361 370 c 0
 347.667 354 341 333.333 341 308 c 2
 341 190 l 1
 258 190 l 1
 258 308 l 2
 258 332.667 251.167 353 237.5 369 c 0
 223.833 385 205 393 181 393 c 0
 155 393 134.667 380.667 120 356 c 1
 105.333 326 99 291.333 101 252 c 1
 104 190 l 1
 22 190 l 1
 18 229 l 1
 17 254 l 1
 14.3333 314 30.3333 364 65 404 c 0
 96.3333 440.667 139 459.333 193 460 c 0
 238.333 460.667 272.333 440.667 295 400 c 1
 327 440 372.333 460 431 460 c 0
EndSplineSet
EndChar
StartChar: uni0D4D
Encoding: 3405 3405
Width: 2
Flags: HW
Fore
-465 -254 m 0
 -464.333 -242.667 -467.667 -232.667 -475 -224 c 0
 -482.333 -215.333 -491.333 -210.333 -502 -209 c 1
 -556 -209 l 1
 -557 -226 l 1
 -558.333 -246 -553.667 -265.667 -543 -285 c 0
 -534.333 -301 -520.667 -309 -502 -309 c 0
 -488 -309 -478 -304 -472 -294 c 0
 -468 -284.667 -465.667 -271.333 -465 -254 c 0
-72 -226 m 1
 -73 -209 l 1
 -127 -209 l 2
 -137.667 -209 -146.5 -213.667 -153.5 -223 c 0
 -160.5 -232.333 -164.333 -242.667 -165 -254 c 0
 -166.333 -290 -153.667 -308.333 -127 -309 c 0
 -109.667 -309.667 -95.6667 -301.667 -85 -285 c 1
 -77.6667 -269.667 -73.3333 -250 -72 -226 c 1
-206 -29 m 0
 -152.667 -27.6667 -110.667 -42.3333 -80 -73 c 1
 -64.6667 -85 -53.6667 -97.3333 -47 -110 c 0
 -35 -132.667 -26.6667 -151.333 -22 -166 c 1
 -15 -208 l 1
 -15 -252.667 -23 -287 -39 -311 c 0
 -59 -341 -88.3333 -356.333 -127 -357 c 0
 -156.333 -357.667 -179.333 -348.333 -196 -329 c 0
 -212.667 -309.667 -221.333 -285 -222 -255 c 0
 -222.667 -227 -212.833 -204.167 -192.5 -186.5 c 0
 -172.167 -168.833 -147.667 -160 -119 -160 c 2
 -83 -160 l 1
 -86.3333 -152 -88.6667 -146 -90 -142 c 0
 -91.3333 -138 -93.6667 -134 -97 -130 c 0
 -101 -122 -107 -115.333 -115 -110 c 1
 -125 -100 -138 -92 -154 -86 c 0
 -159.333 -84 -166.667 -82 -176 -80 c 0
 -181.333 -80 -190 -79.3333 -202 -78 c 1
 -258 -78 -286 -102 -286 -150 c 2
 -286 -357 l 1
 -343 -357 l 1
 -343 -150 l 2
 -343 -103.333 -371 -79.3333 -427 -78 c 0
 -463.667 -77.3333 -492.667 -88 -514 -110 c 1
 -521.333 -114.667 -527.667 -121.333 -533 -130 c 1
 -546 -160 l 1
 -510 -160 l 2
 -480.667 -160 -456.167 -168.5 -436.5 -185.5 c 0
 -416.833 -202.5 -407 -225.667 -407 -255 c 0
 -407 -285 -415.333 -309.5 -432 -328.5 c 0
 -448.667 -347.5 -472 -357 -502 -357 c 0
 -575.333 -357 -613 -307.333 -615 -208 c 1
 -608 -166 l 1
 -602.667 -152.667 -598 -142 -594 -134 c 0
 -584.667 -112 -569.667 -91.6667 -549 -73 c 0
 -517 -43.6667 -475 -29 -423 -29 c 0
 -377.667 -29 -341.333 -43.6667 -314 -73 c 1
 -300.667 -57.6667 -285.167 -46.6667 -267.5 -40 c 0
 -249.833 -33.3333 -229.333 -29.6667 -206 -29 c 0
EndSplineSet
EndChar
StartChar: uni0D57
Encoding: 3415 3415
Width: 648
Flags: HW
Fore
431 460 m 0
 487.667 460 534.333 436.333 571 389 c 0
 603.667 346.333 620.333 293.667 621 231 c 0
 621.667 159 600 101 556 57 c 0
 512 13 453.667 -9.33333 381 -10 c 0
 329 -10.6667 286.333 1 253 25 c 0
 216.333 51.6667 197.333 90 196 140 c 1
 278 140 l 1
 278 84.6667 316.333 57 393 57 c 0
 440.333 57 477.667 76 505 114 c 0
 529.667 148 542.333 189.333 543 238 c 0
 543.667 280.667 533.667 316 513 344 c 0
 490.333 376 458.667 392.333 418 393 c 0
 393.333 393.667 374.333 386 361 370 c 0
 347.667 354 341 333.333 341 308 c 2
 341 190 l 1
 258 190 l 1
 258 308 l 2
 258 332.667 251.167 353 237.5 369 c 0
 223.833 385 205 393 181 393 c 0
 155 393 134.667 380.667 120 356 c 1
 105.333 326 99 291.333 101 252 c 1
 104 190 l 1
 22 190 l 1
 18 229 l 1
 17 254 l 1
 14.3333 314 30.3333 364 65 404 c 0
 96.3333 440.667 139 459.333 193 460 c 0
 238.333 460.667 272.333 440.667 295 400 c 1
 327 440 372.333 460 431 460 c 0
EndSplineSet
EndChar
StartChar: 01
Encoding: 65543 -1
Width: 672
Flags: HW
Fore
491 -12 m 1
 436 44 l 1
 473.333 54.6667 503 83.3333 525 130 c 0
 544.333 170 554.333 211.667 555 255 c 0
 555.667 292.333 548.667 323 534 347 c 0
 516.667 375 490.333 389.333 455 390 c 0
 395.667 390.667 365.667 344 365 250 c 0
 364.333 159.333 355 96.3333 337 61 c 0
 313 14.3333 269 -9.33333 205 -10 c 0
 146.333 -10.6667 100.667 9.33333 68 50 c 0
 37.3333 87.3333 22 135.667 22 195 c 0
 22 306.333 66.6667 395.333 156 462 c 1
 228 426 l 1
 188 406 157 374.667 135 332 c 0
 114.333 292.667 103.667 249.333 103 202 c 0
 102.333 163.333 109.333 131.333 124 106 c 0
 142 75.3333 169 60 205 60 c 0
 241 60 264.333 79.3333 275 118 c 0
 279.667 136 282.333 176 283 238 c 0
 283.667 322 302.333 381.667 339 417 c 0
 368.333 445 407 459.333 455 460 c 0
 513 460.667 557.667 438.667 589 394 c 0
 617 354.667 631 305 631 245 c 0
 631 186.333 618.667 132.5 594 83.5 c 0
 569.333 34.5 535 2.66667 491 -12 c 1
464 -336 m 1
 423 -299 l 1
 448.333 -287 469.667 -265.333 487 -234 c 0
 503 -204.667 511.333 -175 512 -145 c 0
 513.333 -89 488.333 -60.3333 437 -59 c 0
 393.667 -58.3333 372 -89.3333 372 -152 c 0
 372 -210 365.667 -251.667 353 -277 c 0
 335 -314.333 300.333 -333.333 249 -334 c 0
 205.667 -334.667 171.5 -322 146.5 -296 c 0
 121.5 -270 109 -235 109 -191 c 0
 109 -154.333 118.5 -119 137.5 -85 c 0
 156.5 -51 181.667 -24 213 -4 c 1
 270 -43 l 1
 208 -70.3333 176.333 -116.667 175 -182 c 0
 174.333 -208 180 -230 192 -248 c 0
 205.333 -268.667 224.333 -279.333 249 -280 c 0
 273.667 -280.667 290.333 -267.667 299 -241 c 0
 303 -229 305 -202.333 305 -161 c 0
 305 -57 349 -5 437 -5 c 0
 480.333 -5 514 -19 538 -47 c 0
 560 -73.6667 571.333 -109 572 -153 c 0
 572.667 -191.667 563.667 -228 545 -262 c 0
 525 -298 498 -322.667 464 -336 c 1
EndSplineSet
EndChar
StartChar: 02
Encoding: 65544 -1
Width: 1235
Flags: HW
Fore
1190 -33 m 1
 1180 -33 l 1
 1180 -43 l 1
 496 -43 l 1
 496 10 l 1
 751 10 l 1
 775 30 795 56.8333 811 90.5 c 0
 827 124.167 835.333 156.667 836 188 c 0
 836.667 234.667 826.333 274.667 805 308 c 0
 783.667 341.333 756.333 357.333 723 356 c 2
 698 355 l 1
 744 305 767 246.667 767 180 c 0
 767 138 753.5 101 726.5 69 c 0
 699.5 37 665.333 20.6667 624 20 c 0
 586.667 19.3333 556.333 34.6667 533 66 c 0
 511.667 94 501 127.333 501 166 c 0
 501 232.667 528.667 292.667 584 346 c 1
 569.333 352 556.333 355.333 545 356 c 0
 521.667 356.667 502.667 349.333 488 334 c 0
 473.333 318.667 466 299 466 275 c 2
 466 -43 l 1
 363 -43 l 1
 363 267 l 2
 363 293 350 313.667 324 329 c 0
 302 342.333 277 349 249 349 c 0
 197 349.667 155.333 331.333 124 294 c 0
 96.6667 261.333 79.6667 217.667 73 163 c 1
 57 163 l 1
 73.6667 190.333 89 209 103 219 c 0
 119.667 231 142 237.333 170 238 c 0
 206.667 238.667 238 222 264 188 c 0
 286.667 157.333 298.333 123 299 85 c 0
 299.667 45 288.667 12.1667 266 -13.5 c 0
 243.333 -39.1667 212.333 -52.3333 173 -53 c 0
 124.333 -53.6667 85.6667 -33.3333 57 8 c 0
 33 43.3333 20.6667 87.6667 20 141 c 0
 19.3333 221.667 43.3333 289 92 343 c 0
 140.667 397 205 424.333 285 425 c 0
 351 425.667 401 402.667 435 356 c 1
 445.667 375.333 461.667 391.5 483 404.5 c 0
 504.333 417.5 526 424.333 548 425 c 0
 560 425 569.333 424.667 576 424 c 0
 580.667 424 588.167 422.333 598.5 419 c 0
 608.833 415.667 617.167 412.5 623.5 409.5 c 0
 629.833 406.5 636.667 402.333 644 397 c 1
 651.333 401.667 664.333 407.667 683 415 c 0
 689.667 417.667 698.667 420.333 710 423 c 0
 718 424.333 727.333 425 738 425 c 0
 794 425.667 841 403.333 879 358 c 0
 915 315.333 933 265.333 933 208 c 0
 933 138 907 72 855 10 c 1
 1087 10 l 1
 1087 417 l 1
 1190 417 l 1
 1190 -33 l 1
681 195 m 0
 681 245.667 662.667 287.333 626 320 c 1
 607.333 310 590.667 291.667 576 265 c 0
 561.333 238.333 553.667 213.667 553 191 c 0
 552.333 170.333 557 151 567 133 c 0
 579 113 594.667 102.667 614 102 c 0
 636 101.333 653.333 111.667 666 133 c 0
 676 151 681 171.667 681 195 c 0
213 92 m 0
 213 112.667 208.333 130 199 144 c 0
 187.667 160 172.333 168.333 153 169 c 0
 133.667 169.667 118.167 163 106.5 149 c 0
 94.8333 135 89 118 89 98 c 0
 89 80 95 63 107 47 c 0
 119 31 133.667 22.6667 151 22 c 0
 169 21.3333 184 28.6667 196 44 c 0
 207.333 57.3333 213 73.3333 213 92 c 0
EndSplineSet
EndChar
StartChar: 03
Encoding: 65545 -1
Width: 1030
Flags: HW
Fore
974 -10 m 1
 559 -9 l 1
 559 58 l 1
 622.333 81.3333 654.667 136.333 656 223 c 0
 656.667 261.667 647.667 299.667 629 337 c 0
 611.667 371.667 591.667 389.333 569 390 c 0
 536.333 390.667 508.667 382.333 486 365 c 0
 461.333 345.667 449 320 449 288 c 2
 449 -10 l 1
 367 -10 l 1
 367 288 l 2
 367 318 356.167 342.5 334.5 361.5 c 0
 312.833 380.5 287 390 257 390 c 0
 215.667 390 179.833 376 149.5 348 c 0
 119.167 320 100.667 285 94 243 c 1
 124 263 153.333 273 182 273 c 0
 222 273 254.333 259.5 279 232.5 c 0
 303.667 205.5 316.333 171.667 317 131 c 0
 317.667 94.3333 305.333 61.6667 280 33 c 0
 254.667 4.33333 217.667 -10 169 -10 c 0
 121 -10 83.6667 8 57 44 c 0
 32.3333 78 19.6667 123.667 19 181 c 0
 18.3333 255 39 318.667 81 372 c 0
 126.333 430 185 459.333 257 460 c 0
 321.667 460.667 375.667 437.667 419 391 c 1
 458.333 437 504.333 460 557 460 c 0
 615 460 661.333 435.667 696 387 c 0
 726 343.667 741 291.667 741 231 c 0
 741 167.667 723.667 111 689 61 c 1
 892 60 l 1
 892 460 l 1
 974 460 l 1
 974 -10 l 1
885 1 m 1
 915 -10.3333 939 -36.6667 957 -78 c 0
 971.667 -113.333 979 -149.333 979 -186 c 0
 979 -232 968 -268.667 946 -296 c 0
 926 -320.667 898.333 -333 863 -333 c 0
 774.333 -333 729.333 -279.667 728 -173 c 0
 727.333 -142.333 718.333 -116.333 701 -95 c 0
 683.667 -73.6667 660 -62.6667 630 -62 c 0
 610 -61.3333 594 -67 582 -79 c 1
 612.667 -85 637.333 -100.333 656 -125 c 0
 672.667 -148.333 681.333 -176.333 682 -209 c 0
 682.667 -241.667 673.167 -270.333 653.5 -295 c 0
 633.833 -319.667 608 -332.333 576 -333 c 0
 538.667 -333.667 509 -319.667 487 -291 c 0
 467.667 -265.667 457.667 -233.667 457 -195 c 0
 456.333 -140.333 473.5 -96.1667 508.5 -62.5 c 0
 543.5 -28.8333 588.667 -11.6667 644 -11 c 0
 692.667 -10.3333 730.333 -24.8333 757 -54.5 c 0
 783.667 -84.1667 797.333 -124 798 -174 c 0
 798.667 -208 801.333 -231.333 806 -244 c 0
 815.333 -265.333 834 -276 862 -276 c 1
 901.333 -272 921 -242.667 921 -188 c 0
 921 -163.333 916 -138.667 906 -114 c 0
 894 -86 878.333 -67.3333 859 -58 c 1
 863 -49 l 1
 855 -44 l 1
 885 1 l 1
576 -276 m 0
 588 -276.667 598 -269.333 606 -254 c 0
 612.667 -241.333 616 -228.667 616 -216 c 0
 616 -191.333 609 -171.667 595 -157 c 0
 581 -142.333 562 -134.667 538 -134 c 1
 538 -124 l 1
 545 -131 l 1
 529 -147 521 -169.333 521 -198 c 0
 521 -248.667 539.333 -274.667 576 -276 c 0
234 138 m 0
 234.667 153.333 227.833 168 213.5 182 c 0
 199.167 196 184.333 203 169 203 c 0
 127.667 203 106 181.333 104 138 c 1
 104 138 l 1
 104 119.333 110.333 102 123 86 c 0
 135.667 70 151 61.6667 169 61 c 0
 211 59.6667 232.667 85.3333 234 138 c 0
EndSplineSet
EndChar
StartChar: 04
Encoding: 65546 -1
Width: 964
Flags: HW
Fore
797 -8 m 1
 745 46 l 1
 817 84 853 145 853 229 c 0
 853 273.667 840.667 310.667 816 340 c 0
 789.333 372 754.333 388.333 711 389 c 0
 667 389.667 632.333 373.833 607 341.5 c 0
 581.667 309.167 568.667 270.333 568 225 c 0
 567.333 155 593.333 100.333 646 61 c 1
 646 -10 l 1
 251 -10 l 1
 251 63 l 1
 289.667 75.6667 309.667 103.667 311 147 c 0
 311.667 174.333 302 197.333 282 216 c 0
 262 234.667 238 245.667 210 249 c 1
 178.667 249 153.167 238 133.5 216 c 0
 113.833 194 103.667 167 103 135 c 0
 102.333 91.6667 123.333 60.3333 166 41 c 1
 112 -14 l 1
 82.6667 8.66667 61 33.3333 47 60 c 0
 33 86.6667 25.6667 114.667 25 144 c 0
 24.3333 194.667 42.6667 237 80 271 c 0
 116 303 159.667 319.333 211 320 c 0
 262.333 320.667 305.5 304 340.5 270 c 0
 375.5 236 393 193.333 393 142 c 0
 393 114 387.333 86.6667 376 60 c 1
 540 60 l 1
 503.333 108.667 484.667 165 484 229 c 0
 483.333 291 502.333 344 541 388 c 0
 582.333 434.667 639 458.333 711 459 c 0
 779 459.667 834.333 436.333 877 389 c 0
 915.667 346.333 935.333 292.667 936 228 c 0
 936.667 129.333 890.333 50.6667 797 -8 c 1
825 7 m 1
 857 -4.33333 881.667 -31 899 -73 c 0
 912.333 -107 919.333 -144 920 -184 c 0
 920.667 -224 911.333 -258.667 892 -288 c 0
 872.667 -317.333 843.667 -332.333 805 -333 c 0
 716.333 -334.333 671.333 -280.333 670 -171 c 0
 669.333 -139.667 660.333 -113.167 643 -91.5 c 0
 625.667 -69.8333 601.667 -58.6667 571 -58 c 0
 553.667 -57.3333 538 -63 524 -75 c 1
 555.333 -81 579.667 -96.3333 597 -121 c 0
 614.333 -145.667 623 -174.333 623 -207 c 0
 623 -240.333 613.5 -269.5 594.5 -294.5 c 0
 575.5 -319.5 549.667 -332.333 517 -333 c 0
 479 -333.667 449.333 -319.667 428 -291 c 0
 408.667 -265 398.667 -232.333 398 -193 c 0
 397.333 -138.333 414.833 -93.5 450.5 -58.5 c 0
 486.167 -23.5 531.333 -6 586 -6 c 0
 634.667 -6 672.333 -21.1667 699 -51.5 c 0
 725.667 -81.8333 739.333 -121.667 740 -171 c 0
 740.667 -206.333 743.333 -230 748 -242 c 0
 756.667 -262.667 775.333 -273.667 804 -275 c 1
 830 -272.333 847.667 -255.667 857 -225 c 0
 861 -213.667 863 -200.667 863 -186 c 0
 863.667 -161.333 858.667 -136.667 848 -112 c 0
 836.667 -84 821 -64.6667 801 -54 c 1
 805 -45 l 1
 796 -40 l 1
 825 7 l 1
517 -275 m 0
 529 -275 539 -267.667 547 -253 c 0
 553.667 -240.333 557 -227.333 557 -214 c 0
 557 -189.333 550.333 -169.333 537 -154 c 0
 523.667 -138.667 504.667 -131 480 -131 c 1
 480 -121 l 1
 487 -128 l 1
 480.333 -134.667 474.5 -144.333 469.5 -157 c 0
 464.5 -169.667 462 -182.667 462 -196 c 0
 462 -215.333 466.333 -232.667 475 -248 c 0
 485 -266 499 -275 517 -275 c 0
EndSplineSet
EndChar
StartChar: 05
Encoding: 65547 -1
Width: 1329
Flags: HW
Fore
219 126 m 0
 219.667 147.333 217.667 164 213 176 c 0
 205.667 196.667 189.333 207.333 164 208 c 0
 144.667 208.667 128.333 203.333 115 192 c 1
 107 183 l 1
 105 171 l 1
 105 152 l 2
 105 80 123.333 44 160 44 c 0
 178.667 44 194 53 206 71 c 1
 214 86.3333 218.333 104.667 219 126 c 0
620 401 m 1
 597.333 441 556.667 461.667 498 463 c 0
 476.667 463.667 454.333 459.333 431 450 c 1
 411 440 394.333 425.333 381 406 c 1
 365.667 461.333 318 489 238 489 c 0
 177.333 489 127 464 87 414 c 0
 50.3333 367.333 31.6667 313 31 251 c 0
 30.3333 169 36.3333 108.667 49 70 c 0
 68.3333 10 107.333 -20.3333 166 -21 c 0
 205.333 -21.6667 237.333 -8.83333 262 17.5 c 0
 286.667 43.8333 299 76.6667 299 116 c 0
 299 154.667 292.667 186.667 280 212 c 0
 261.333 250 229.333 269.333 184 270 c 0
 167.333 270 152.667 268 140 264 c 1
 110 243 l 1
 111 269 l 1
 115 298 l 1
 121.667 322 134 343.667 152 363 c 0
 172.667 385.667 194.333 397 217 397 c 0
 269 397.667 305 376.667 325 334 c 0
 339 304.667 346 255.667 346 187 c 0
 346 175 342.667 152.333 336 119 c 2
 332 99 l 1
 332 81.6667 343.333 68.3333 366 59 c 0
 383.333 52.3333 402.333 48.6667 423 48 c 0
 449.667 47.3333 463.333 53.3333 464 66 c 1
 456 84.6667 449.333 101.667 444 117 c 0
 430 154.333 423 183.333 423 204 c 0
 421.667 306.667 444.667 358.667 492 360 c 0
 514.667 360.667 530.333 346 539 316 c 0
 543.667 300 546.333 268.667 547 222 c 0
 548.333 148.667 536 99 510 73 c 1
 513 54 l 1
 515 47.3333 523.333 43.6667 538 43 c 0
 553.333 42.3333 574.167 48.6667 600.5 62 c 0
 626.833 75.3333 640.667 88.6667 642 102 c 0
 642 111.333 639 125.333 633 144 c 0
 627 162.667 624 178.667 624 192 c 0
 624 246 635.333 291 658 327 c 0
 683.333 367 719 387 765 387 c 0
 778.333 387 796.667 381.667 820 371 c 0
 843.333 360.333 856.667 351.667 860 345 c 0
 870.667 322.333 876 306.667 876 298 c 0
 876 277.333 868.833 247.667 854.5 209 c 0
 840.167 170.333 832.667 137 832 109 c 0
 831.333 82.3333 838.667 57 854 33 c 0
 872 4.33333 897.667 -10.3333 931 -11 c 0
 983 -11.6667 1022 12.3333 1048 61 c 1
 1064.67 15 1101 -8.33333 1157 -9 c 0
 1195 -9.66667 1226 5.66667 1250 37 c 0
 1271.33 65 1282.33 98.6667 1283 138 c 0
 1283.67 197.333 1254 274 1194 368 c 1
 1194.67 376 1198.33 386.667 1205 400 c 0
 1211.67 413.333 1215.67 423.333 1217 430 c 1
 1213 442 l 1
 1211.67 444 1207.67 445.667 1201 447 c 0
 1185.67 447 1166.17 439 1142.5 423 c 0
 1118.83 407 1107 391.667 1107 377 c 1
 1177 274 l 2
 1199.67 240.667 1211.33 206.667 1212 172 c 0
 1212.67 147.333 1208 127 1198 111 c 0
 1186 91.6667 1168.33 81.6667 1145 81 c 0
 1115.67 80.3333 1094.33 97.3333 1081 132 c 0
 1077 142 1074.17 153.333 1072.5 166 c 0
 1070.83 178.667 1068 199.667 1064 229 c 1
 1064 241 1066.67 253.667 1072 267 c 2
 1090 313 l 1
 1086 323 l 1
 1080 327 1071.67 329 1061 329 c 0
 1035 329 1013 322 995 308 c 0
 991 304 988.333 298.333 987 291 c 1
 1002 235 l 2
 1006 219 1008.33 199.333 1009 176 c 0
 1010.33 110 992 77 954 77 c 0
 937.333 77 926 87 920 107 c 0
 918 113.667 917 125.667 917 143 c 0
 917 152.333 917.667 161 919 169 c 0
 919.667 179.667 921.333 189.333 924 198 c 2
 939 251 l 2
 941.667 260.333 944.667 283.667 948 321 c 1
 948 338.333 938.333 362.333 919 393 c 0
 902.333 420.333 886.333 441 871 455 c 0
 855.667 469 840.333 477.667 825 481 c 0
 815.667 483 795.667 484.667 765 486 c 1
 761 483.333 748.333 479.333 727 474 c 0
 705.667 468.667 690.667 463.333 682 458 c 0
 656 443.333 635.333 424.333 620 401 c 1
EndSplineSet
EndChar
StartChar: 06
Encoding: 65548 -1
Width: 1209
Flags: HW
Fore
219 126 m 0
 219.667 147.333 217.667 164 213 176 c 0
 205.667 196.667 189.333 207.333 164 208 c 0
 144.667 208.667 128.333 203.333 115 192 c 1
 107 183 l 1
 105 171 l 1
 105 152 l 2
 105 80 123.333 44 160 44 c 0
 178.667 44 194 53 206 71 c 1
 214 86.3333 218.333 104.667 219 126 c 0
1064 42 m 1
 1053 74 l 1
 1049 99 l 1
 1056 174 l 1
 1045.33 166.667 1036.67 160 1030 154 c 0
 1023.33 148 1014 142.333 1002 137 c 0
 994 133.667 981.667 128 965 120 c 0
 952.333 113.333 934 103.333 910 90 c 1
 892 83.3333 869.667 75 843 65 c 0
 799.667 48.3333 775.333 38.3333 770 35 c 1
 940 50 l 2
 950.667 50 966.667 51.3333 988 54 c 0
 997.333 54 1004.33 53.8333 1009 53.5 c 0
 1013.67 53.1667 1021.67 50.6667 1033 46 c 0
 1048.33 42 1058.67 40.6667 1064 42 c 1
1112 297 m 0
 1112.67 283 1111 271 1107 261 c 1
 1105.67 253 1100.5 242.333 1091.5 229 c 0
 1082.5 215.667 1078 207.667 1078 205 c 1
 1118 223 l 2
 1130 228.333 1141.33 232 1152 234 c 0
 1159.33 234 1166 229.667 1172 221 c 1
 1176 206 l 1
 1176 199.333 1168.67 189.333 1154 176 c 0
 1139.33 162.667 1129.33 148 1124 132 c 1
 1121 119 l 1
 1120 106 l 1
 1120 106 1120 101.333 1120 92 c 0
 1120 86 1122.67 76.6667 1128 64 c 1
 1153 24 l 2
 1159 14.6667 1162 5.66667 1162 -3 c 0
 1162 -11 1151 -15.3333 1129 -16 c 0
 1127.67 -16 1096.67 -13.3333 1036 -8 c 2
 934 1 l 2
 923.333 1 906.667 0.666667 884 0 c 2
 884 0 868.333 0 837 0 c 0
 752.333 0 690 -3.33333 650 -10 c 1
 632 -10 622 -5 620 5 c 1
 620 16.3333 621 24 623 28 c 0
 625 32 630.667 36 640 40 c 1
 678.667 50 723.333 63.6667 774 81 c 0
 844 105 887.667 122.667 905 134 c 0
 971.667 178.667 1005.33 225.333 1006 274 c 0
 1006 288 1003.17 304.667 997.5 324 c 0
 991.833 343.333 984.667 357.333 976 366 c 0
 947.333 394.667 907.333 412.667 856 420 c 0
 853.333 420 847.667 420.333 839 421 c 0
 835.667 421 831.333 421.333 826 422 c 0
 809.333 422 796.333 421 787 419 c 0
 783 418.333 775.667 416.333 765 413 c 0
 721.667 400.333 686 371.667 658 327 c 0
 636 291.667 624.667 246.667 624 192 c 0
 624 174 627 156.833 633 140.5 c 0
 639 124.167 642 111.333 642 102 c 0
 642 91.3333 629.667 78.8333 605 64.5 c 0
 580.333 50.1667 558 43 538 43 c 0
 524 43 515.667 46.6667 513 54 c 1
 510 73 l 1
 534.667 95 547 144.667 547 222 c 0
 547 273.333 542.833 309 534.5 329 c 0
 526.167 349 512 359.333 492 360 c 0
 446 360.667 423 308.667 423 204 c 0
 423 158.667 429.833 125 443.5 103 c 0
 457.167 81 464 68.6667 464 66 c 0
 464 54 450.333 48 423 48 c 0
 402.333 48 383.667 51.6667 367 59 c 0
 345 68.3333 333.333 81.6667 332 99 c 1
 336 119 l 2
 342.667 152.333 346 175 346 187 c 0
 346 254.333 339 303.333 325 334 c 0
 305.667 376 269.667 397 217 397 c 0
 194.333 397 172.667 385.667 152 363 c 0
 134.667 344.333 122.333 322.667 115 298 c 1
 111 269 l 1
 110 243 l 1
 140 264 l 1
 151.333 268 166 270 184 270 c 0
 229.333 270 261.333 250.667 280 212 c 0
 292 186.667 298.333 154.667 299 116 c 0
 299.667 76.6667 287.5 44.1667 262.5 18.5 c 0
 237.5 -7.16667 205.333 -20.3333 166 -21 c 0
 108 -21.6667 69 8.66667 49 70 c 0
 37 106.667 31 167 31 251 c 0
 31 317 51.5 373.167 92.5 419.5 c 0
 133.5 465.833 182 489 238 489 c 0
 281.333 489 317 479 345 459 c 0
 363 445.667 375 428 381 406 c 1
 393 424.667 409.667 439.333 431 450 c 1
 453.667 458 476 462.333 498 463 c 0
 554.667 463.667 595.333 443 620 401 c 1
 648 444.333 692.667 473.667 754 489 c 0
 791.333 498.333 822 502.333 846 501 c 0
 872 499.667 897 496.333 921 491 c 0
 997.667 473.667 1053 434.667 1087 374 c 0
 1103 345.333 1111.33 319.667 1112 297 c 0
EndSplineSet
EndChar
StartChar: 07
Encoding: 65549 -1
Width: 802
Flags: HW
Fore
593 -10 m 0
 549 -10.6667 513.667 10.3333 487 53 c 0
 465 89 453.667 130.333 453 177 c 0
 452.333 255 484.333 324.333 549 385 c 1
 524 388 l 2
 513.333 388 506.667 388.667 504 390 c 1
 420.667 377.333 378.667 330.667 378 250 c 0
 377.333 163.333 366.667 101.333 346 64 c 0
 319.333 16 272.667 -8.33333 206 -9 c 0
 147.333 -9.66667 101.333 10.6667 68 52 c 0
 37.3333 90 21.6667 139.333 21 200 c 0
 20.3333 265.333 35 321 65 367 c 0
 89 403.667 124 435.667 170 463 c 1
 222 410 l 1
 184.667 393.333 155.333 365 134 325 c 0
 114 287.667 103.667 247.333 103 204 c 0
 102.333 166.667 110.333 135.667 127 111 c 0
 145 83 171.667 66 207 60 c 1
 239 60 262.333 77 277 111 c 0
 289 138.333 295 185 295 251 c 0
 295 321.667 318.667 376 366 414 c 0
 404 444 450.333 459.333 505 460 c 0
 581.667 460.667 644 431 692 371 c 0
 734 319 755 256.667 755 184 c 0
 755 128.667 742 83.6667 716 49 c 0
 687.333 10.3333 646.333 -9.33333 593 -10 c 0
643 -334 m 0
 594.333 -334.667 560.333 -309.667 541 -259 c 0
 536.333 -246.333 533.667 -230 533 -210 c 0
 532.333 -187.333 538 -163.333 550 -138 c 0
 562 -112.667 579.333 -90.3333 602 -71 c 1
 573 -66 l 1
 545 -66 522.667 -76.1667 506 -96.5 c 0
 489.333 -116.833 481 -141.333 481 -170 c 0
 480.333 -232.667 473 -274.333 459 -295 c 0
 441.667 -321 407 -334 355 -334 c 0
 327.667 -334 301.667 -321.333 277 -296 c 0
 250.333 -268.667 235.667 -236.667 233 -200 c 2
 231 -174 l 1
 228.333 -136.667 241 -98 269 -58 c 0
 287.667 -31.3333 309.333 -11.6667 334 1 c 1
 363 -43 l 1
 355 -49 l 1
 359 -58 l 1
 341.667 -65.3333 326 -82.3333 312 -109 c 1
 301.333 -134.333 295.667 -160.333 295 -187 c 0
 293.667 -239 314 -268.667 356 -276 c 1
 387.333 -276 405.333 -264.333 410 -241 c 0
 410.667 -237.667 411.667 -229 413 -215 c 0
 413 -212.333 413 -206.333 413 -197 c 0
 413.667 -186.333 414 -177.333 414 -170 c 0
 414.667 -115.333 432 -74 466 -46 c 0
 494 -23.3333 530 -11.6667 574 -11 c 0
 630 -10.3333 675.667 -30.6667 711 -72 c 0
 741 -107.333 756.333 -150.333 757 -201 c 0
 757.667 -239 748.333 -270 729 -294 c 0
 708.333 -320 679.667 -333.333 643 -334 c 0
624 355 m 1
 592.667 332.333 569.333 304.833 554 272.5 c 0
 538.667 240.167 531 206.667 531 172 c 0
 531 139.333 537.833 112.833 551.5 92.5 c 0
 565.167 72.1667 583.333 61.6667 606 61 c 0
 631.333 60.3333 650.333 73.6667 663 101 c 0
 673 121 678.333 145.333 679 174 c 0
 679 186 677.667 201.5 675 220.5 c 0
 672.333 239.5 668 255.667 662 269 c 1
 652 301 635 330 611 356 c 1
 618 363 l 1
 624 355 l 1
653 -100 m 0
 647.667 -94 640.667 -89.6667 632 -87 c 1
 624.667 -87 617.333 -95 610 -111 c 1
 606 -130.333 603.667 -150.333 603 -171 c 0
 601.667 -240.333 615 -275.333 643 -276 c 0
 658.333 -276.667 671 -268.333 681 -251 c 0
 689.667 -236.333 694 -220.667 694 -204 c 0
 694 -166 680.333 -131.333 653 -100 c 0
EndSplineSet
EndChar
StartChar: 08
Encoding: 65550 -1
Width: 1057
Flags: HW
Fore
983 -248 m 1
 400 -248 l 1
 400 -206 l 1
 869 9 l 1
 873 0 l 1
 873 -10 l 1
 563 -10 l 1
 563 57 l 1
 626.333 80.3333 658.667 135.333 660 222 c 0
 660.667 254 654 287.333 640 322 c 0
 622.667 366 600.333 388.333 573 389 c 0
 540.333 389.667 513 380.667 491 362 c 0
 469 343.333 458 318 458 286 c 2
 458 -9 l 1
 375 -9 l 1
 375 286 l 2
 375 318 364 343 342 361 c 0
 320 379 292.667 388.333 260 389 c 0
 219.333 389.667 183.667 375 153 345 c 0
 123.667 317.667 105.333 283.333 98 242 c 1
 123.333 260.667 152.333 270.333 185 271 c 0
 224.333 271.667 257 258 283 230 c 0
 307 203.333 319.333 170 320 130 c 0
 320.667 88 307 54.3333 279 29 c 0
 251 3.66667 215.667 -9.33333 173 -10 c 0
 123.667 -10.6667 85.3333 9 58 49 c 0
 35.3333 83.6667 23.6667 127 23 179 c 0
 22.3333 250.333 42.3333 313.333 83 368 c 0
 127.667 428 187 458.333 261 459 c 0
 324.333 459.667 378.333 436.667 423 390 c 1
 461 436 506.667 459 560 459 c 0
 619.333 459 666 434.667 700 386 c 0
 730.667 343.333 746 291 746 229 c 0
 746 165 728.667 108.667 694 60 c 1
 900 60 l 1
 900 460 l 1
 983 460 l 1
 983 -248 l 1
900 -177 m 1
 900 -42 l 1
 640 -177 l 1
 900 -177 l 1
238 136 m 0
 238.667 152.667 232.167 167.5 218.5 180.5 c 0
 204.833 193.5 189.667 200.333 173 201 c 0
 153 201.667 137.167 196 125.5 184 c 0
 113.833 172 108 156 108 136 c 1
 108 136 l 1
 108 117.333 114.333 100.167 127 84.5 c 0
 139.667 68.8333 155 60.6667 173 60 c 0
 215 58.6667 236.667 84 238 136 c 0
EndSplineSet
EndChar
StartChar: 09
Encoding: 65551 -1
Width: 1082
Flags: HW
Fore
1028 226 m 1
 1022 170 1007.33 122.167 984 82.5 c 0
 960.667 42.8333 929.667 10.6667 891 -14 c 1
 839 56 l 1
 873.667 66.6667 900.667 91 920 129 c 0
 936 161 944.333 197 945 237 c 0
 945.667 278.333 937 313 919 341 c 0
 898.333 373.667 868.667 390 830 390 c 0
 802.667 390 780.833 379.833 764.5 359.5 c 0
 748.167 339.167 740 315 740 287 c 2
 740 -9 l 1
 658 -9 l 1
 658 287 l 2
 658 313 649.333 336.667 632 358 c 0
 614.667 379.333 593.333 390 568 390 c 0
 534.667 390 507.667 381.333 487 364 c 0
 464.333 345.333 453 319.667 453 287 c 2
 453 -9 l 1
 370 -9 l 1
 370 287 l 2
 370 315.667 359.333 340 338 360 c 0
 316.667 380 289.333 390 256 390 c 0
 214.667 390 180.333 375.667 153 347 c 0
 129 321.667 113 287.667 105 245 c 1
 122.333 262.333 147.333 271.333 180 272 c 0
 220.667 272.667 253.333 260.833 278 236.5 c 0
 302.667 212.167 315 179.333 315 138 c 0
 315 94 301.5 58.3333 274.5 31 c 0
 247.5 3.66667 212 -10 168 -10 c 0
 116.667 -10 78 11 52 53 c 0
 31.3333 87.6667 21 132.667 21 188 c 0
 21 282 48.6667 353.333 104 402 c 0
 146.667 439.333 197 458.667 255 460 c 1
 255 460 l 1
 319.667 460 374 437 418 391 c 1
 456 437 506 460 568 460 c 0
 631.333 460 677 435.667 705 387 c 1
 718.333 415.667 739 435.667 767 447 c 0
 781 452.333 797 456 815 458 c 0
 823 459.333 832.667 460 844 460 c 0
 894 460.667 936 442.667 970 406 c 0
 1007.33 365.333 1026.67 305.333 1028 226 c 1
929 -337 m 1
 890 -298 l 1
 910 -284 926.333 -263.667 939 -237 c 0
 950.333 -212.333 956 -187 956 -161 c 0
 956 -137 951.5 -115.667 942.5 -97 c 0
 933.5 -78.3333 921 -65.6667 905 -59 c 1
 883.667 -59 867.5 -66.5 856.5 -81.5 c 0
 845.5 -96.5 840 -115 840 -137 c 2
 840 -334 l 1
 770 -334 l 1
 770 -137 l 2
 770 -117.667 763.833 -100 751.5 -84 c 0
 739.167 -68 723.667 -59.6667 705 -59 c 0
 688.333 -58.3333 673.333 -65 660 -79 c 0
 646.667 -93 640 -112.333 640 -137 c 2
 640 -334 l 1
 570 -334 l 1
 570 -137 l 2
 570 -115 560.667 -96.6667 542 -82 c 0
 523.333 -67.3333 502.667 -59.6667 480 -59 c 0
 455.333 -58.3333 434.333 -67 417 -85 c 0
 402.333 -100.333 390.667 -123.333 382 -154 c 1
 394 -144 410 -139 430 -139 c 0
 458.667 -139 482 -149 500 -169 c 0
 518 -189 527 -213.333 527 -242 c 0
 527 -270 518 -292.333 500 -309 c 0
 482 -325.667 458.667 -334 430 -334 c 0
 392.667 -334 364.333 -320 345 -292 c 0
 328.333 -268 319.667 -236.333 319 -197 c 0
 318.333 -146.333 332 -102 360 -64 c 0
 390.667 -22.6667 430.667 -2 480 -2 c 0
 517.333 -2 549 -11.3333 575 -30 c 0
 584.333 -36.6667 594 -46 604 -58 c 1
 615.333 -44 631.667 -30.3333 653 -17 c 1
 673 -7 694.667 -2 718 -2 c 0
 756.667 -2 785.667 -18.3333 805 -51 c 1
 821 -18.3333 854.667 -2 906 -2 c 1
 942 -12 970.167 -31.3333 990.5 -60 c 0
 1010.83 -88.6667 1021.33 -122 1022 -160 c 0
 1022.67 -195.333 1014.67 -228.833 998 -260.5 c 0
 981.333 -292.167 958.333 -317.667 929 -337 c 1
233 137 m 0
 233.667 153.667 227.167 168.5 213.5 181.5 c 0
 199.833 194.5 184.667 201.333 168 202 c 0
 148 202.667 132.167 197 120.5 185 c 0
 108.833 173 103 157 103 137 c 1
 103 137 l 1
 103 117.667 109 100.167 121 84.5 c 0
 133 68.8333 148.667 60.6667 168 60 c 0
 210 58.6667 231.667 84.3333 233 137 c 0
458 -237 m 0
 458 -213.667 448.667 -200.333 430 -197 c 1
 420 -197 410.333 -200 401 -206 c 0
 395 -211.333 391.333 -221.667 390 -237 c 1
 390 -237 l 1
 390 -263 399.333 -276 418 -276 c 0
 444.667 -276 458 -263 458 -237 c 0
EndSplineSet
EndChar
StartChar: 10
Encoding: 65552 -1
Width: 983
Flags: HW
Fore
823 463 m 1
 859 432.333 886 395.667 904 353 c 0
 922 310.333 931.333 266.333 932 221 c 0
 932.667 158.333 916.667 105.333 884 62 c 0
 848 14.6667 799.667 -9.33333 739 -10 c 0
 671.667 -10.6667 624 8.33333 596 47 c 0
 574 77 562.667 129.667 562 205 c 0
 561.333 265 557 306.667 549 330 c 0
 535 370 506.667 390 464 390 c 0
 438 390 414.667 380.667 394 362 c 0
 377.333 346.667 369 326 369 300 c 2
 369 -10 l 1
 287 -10 l 1
 287 300 l 2
 287 324.667 280.5 345.667 267.5 363 c 0
 254.5 380.333 236.667 389.333 214 390 c 0
 176.667 390.667 147.667 374 127 340 c 0
 109.667 311.333 101 277 101 237 c 0
 101 148.333 134.333 82.3333 201 39 c 1
 141 -12 l 1
 100.333 7.33333 69 41 47 89 c 0
 27.6667 131 18 176.667 18 226 c 0
 18 292 33.6667 346 65 388 c 0
 101 436 150.667 460 214 460 c 0
 266 460 305.667 437.333 333 392 c 1
 361 437.333 409 460 477 460 c 0
 531 460 571.333 442.333 598 407 c 0
 628 367 643.333 291 644 179 c 0
 644.667 99.6667 674.667 60 734 60 c 0
 772.667 60 802.333 76.6667 823 110 c 0
 840.333 138.667 849 173.333 849 214 c 0
 849 254.667 841 293.667 825 331 c 0
 807 371.667 783 403.333 753 426 c 1
 823 463 l 1
790 -14 m 1
 844 -55.3333 871.333 -109 872 -175 c 0
 872.667 -217.667 859.5 -254.667 832.5 -286 c 0
 805.5 -317.333 769 -333.333 723 -334 c 0
 671 -334.667 635 -321.667 615 -295 c 0
 599 -274.333 591 -238.667 591 -188 c 0
 591 -150 588 -123 582 -107 c 0
 572 -81 551.333 -68 520 -68 c 0
 474.667 -68 452 -86.6667 452 -124 c 2
 452 -334 l 1
 385 -334 l 1
 385 -124 l 2
 385 -86.6667 367.667 -68 333 -68 c 0
 306.333 -68 286.167 -77.1667 272.5 -95.5 c 0
 258.833 -113.833 252 -136.667 252 -164 c 0
 252 -190 258.5 -215.167 271.5 -239.5 c 0
 284.5 -263.833 304 -283.667 330 -299 c 1
 275 -336 l 1
 245 -323.333 221.667 -301.333 205 -270 c 0
 189.667 -241.333 181.667 -209.667 181 -175 c 0
 180.333 -128.333 193.833 -90.1667 221.5 -60.5 c 0
 249.167 -30.8333 286.333 -15.6667 333 -15 c 0
 369 -14.3333 398.667 -28.6667 422 -58 c 1
 443.333 -30 479 -15.6667 529 -15 c 0
 582.333 -14.3333 619 -34.3333 639 -75 c 0
 651 -99 657.333 -142.333 658 -205 c 0
 658.667 -255.667 680.333 -281 723 -281 c 0
 749 -281 769.333 -271 784 -251 c 0
 797.333 -233.667 804.333 -211.333 805 -184 c 0
 805.667 -158.667 799.5 -132.333 786.5 -105 c 0
 773.5 -77.6667 755 -56.3333 731 -41 c 1
 790 -14 l 1
EndSplineSet
EndChar
StartChar: 11
Encoding: 65553 -1
Width: 1348
Flags: HW
Fore
1329 247 m 0
 1329.67 176.333 1310.33 116.667 1271 68 c 0
 1229 14.6667 1173.67 -12 1105 -12 c 0
 1052.33 -12 1011 15.3333 981 70 c 0
 955 117.333 941.667 170.333 941 229 c 0
 940.333 281.667 934 320.667 922 346 c 0
 904.667 382.667 873 401.333 827 402 c 0
 806.333 402.667 785 392.167 763 370.5 c 0
 741 348.833 730 327.667 730 307 c 2
 730 -12 l 1
 634 -12 l 1
 634 307 l 2
 634 336.333 624.833 359.333 606.5 376 c 0
 588.167 392.667 564 401.333 534 402 c 0
 522 402 507.333 400 490 396 c 1
 536.667 342.667 560 277 560 199 c 0
 560 148.333 550.333 103.333 531 64 c 0
 507 14 472.333 -11.3333 427 -12 c 0
 377.667 -12.6667 337.333 14 306 68 c 0
 279.333 113.333 265.667 162.333 265 215 c 0
 264.333 256.333 269 291.667 279 321 c 0
 288.333 348.333 306.333 375 333 401 c 1
 315 408.333 295.667 412 275 412 c 0
 226.333 412.667 187.5 397 158.5 365 c 0
 129.5 333 115 292.667 115 244 c 0
 115 204 127 164 151 124 c 0
 161.667 106 172.167 91.1667 182.5 79.5 c 0
 192.833 67.8333 209 49.6667 231 25 c 1
 231 17.6667 224.333 9.83333 211 1.5 c 0
 197.667 -6.83333 187 -11 179 -11 c 1
 135.667 7.66667 99 38 69 80 c 0
 36.3333 126 19.6667 180.667 19 244 c 0
 18.3333 326.667 45.3333 389.333 100 432 c 0
 145.333 468 208.667 486.333 290 487 c 0
 306.667 487 316.667 486.667 320 486 c 0
 326.667 486 336 483.667 348 479 c 0
 370.667 473 390.667 465.667 408 457 c 1
 416 461 423.667 464.333 431 467 c 0
 463 478.333 496.667 484.333 532 485 c 0
 567.333 485.667 599.667 479 629 465 c 0
 656.333 452.333 677 430.667 691 400 c 1
 725 458 781 487 859 487 c 0
 911.667 487 954 457.667 986 399 c 0
 1012 350.333 1025 297.333 1025 240 c 0
 1025 202.667 1030.67 169 1042 139 c 0
 1058 97.6667 1081.33 76.6667 1112 76 c 0
 1204 74.6667 1250.67 136 1252 260 c 0
 1252.67 329.333 1221.33 388.333 1158 437 c 1
 1151.33 440.333 1153 449.333 1163 464 c 0
 1173 478.667 1182.67 486.667 1192 488 c 0
 1196.67 488 1199.67 487.333 1201 486 c 0
 1242.33 464 1274.33 430.333 1297 385 c 0
 1317.67 343 1328.33 297 1329 247 c 0
489 199 m 0
 489.667 249.667 479.667 290.333 459 321 c 0
 450.333 333.667 439.333 345.667 426 357 c 1
 393.333 335 373 303.333 365 262 c 0
 362.333 249.333 361 233.667 361 215 c 0
 360.333 180.333 365 150.667 375 126 c 0
 389 93.3333 411 76.6667 441 76 c 0
 457 75.3333 469.667 84.6667 479 104 c 1
 485 124.667 488.333 156.333 489 199 c 0
EndSplineSet
EndChar
StartChar: 12
Encoding: 65554 -1
Width: 1348
Flags: HW
Fore
1329 247 m 0
 1329.67 176.333 1310.33 116.667 1271 68 c 0
 1229 14.6667 1173.67 -12 1105 -12 c 0
 1052.33 -12 1011 15.3333 981 70 c 0
 955 117.333 941.667 170.333 941 229 c 0
 940.333 281.667 934 320.667 922 346 c 0
 904.667 382.667 873 401.333 827 402 c 0
 806.333 402.667 785 392.167 763 370.5 c 0
 741 348.833 730 327.667 730 307 c 2
 730 -12 l 1
 634 -12 l 1
 634 307 l 2
 634 336.333 624.833 359.333 606.5 376 c 0
 588.167 392.667 564 401.333 534 402 c 0
 522 402 507.333 400 490 396 c 1
 536.667 342.667 560 277 560 199 c 0
 560 148.333 550.333 103.333 531 64 c 0
 507 14 472.333 -11.3333 427 -12 c 0
 377.667 -12.6667 337.333 14 306 68 c 0
 279.333 113.333 265.667 162.333 265 215 c 0
 264.333 256.333 269 291.667 279 321 c 0
 288.333 348.333 306.333 375 333 401 c 1
 315 408.333 295.667 412 275 412 c 0
 226.333 412.667 187.5 397 158.5 365 c 0
 129.5 333 115 292.667 115 244 c 0
 115 204 127 164 151 124 c 0
 161.667 106 172.167 91.1667 182.5 79.5 c 0
 192.833 67.8333 209 49.6667 231 25 c 1
 231 17.6667 224.333 9.83333 211 1.5 c 0
 197.667 -6.83333 187 -11 179 -11 c 1
 135.667 7.66667 99 38 69 80 c 0
 36.3333 126 19.6667 180.667 19 244 c 0
 18.3333 326.667 45.3333 389.333 100 432 c 0
 145.333 468 208.667 486.333 290 487 c 0
 306.667 487 316.667 486.667 320 486 c 0
 326.667 486 336 483.667 348 479 c 0
 370.667 473 390.667 465.667 408 457 c 1
 416 461 423.667 464.333 431 467 c 0
 463 478.333 496.667 484.333 532 485 c 0
 567.333 485.667 599.667 479 629 465 c 0
 656.333 452.333 677 430.667 691 400 c 1
 725 458 781 487 859 487 c 0
 911.667 487 954 457.667 986 399 c 0
 1012 350.333 1025 297.333 1025 240 c 0
 1025 202.667 1030.67 169 1042 139 c 0
 1058 97.6667 1081.33 76.6667 1112 76 c 0
 1204 74.6667 1250.67 136 1252 260 c 0
 1252.67 329.333 1221.33 388.333 1158 437 c 1
 1151.33 440.333 1153 449.333 1163 464 c 0
 1173 478.667 1182.67 486.667 1192 488 c 0
 1196.67 488 1199.67 487.333 1201 486 c 0
 1242.33 464 1274.33 430.333 1297 385 c 0
 1317.67 343 1328.33 297 1329 247 c 0
489 199 m 0
 489.667 249.667 479.667 290.333 459 321 c 0
 450.333 333.667 439.333 345.667 426 357 c 1
 393.333 335 373 303.333 365 262 c 0
 362.333 249.333 361 233.667 361 215 c 0
 360.333 180.333 365 150.667 375 126 c 0
 389 93.3333 411 76.6667 441 76 c 0
 457 75.3333 469.667 84.6667 479 104 c 1
 485 124.667 488.333 156.333 489 199 c 0
EndSplineSet
EndChar
StartChar: 13
Encoding: 65555 -1
Width: 904
Flags: HW
Fore
728 462 m 1
 768.667 442 800.667 407.333 824 358 c 0
 844.667 313.333 855.333 266.333 856 217 c 0
 856.667 151.667 840 98.3333 806 57 c 0
 770 13 719.667 -9.33333 655 -10 c 0
 603 -10.6667 565 11 541 55 c 1
 519.667 29 487.333 11.6667 444 3 c 2
 380 -10 l 1
 234.667 -10 162 16 162 68 c 0
 162 90.6667 176.667 110 206 126 c 0
 230 139.333 254.667 146.333 280 147 c 2
 293 146 l 2
 317.667 144 332 155.667 336 181 c 1
 336 194.333 330 205.333 318 214 c 0
 306 222.667 293.333 227 280 227 c 2
 183 227 l 1
 183 297 l 1
 280 297 l 2
 320 297 340.667 311.667 342 341 c 0
 342.667 358.333 332 371.333 310 380 c 0
 294 386.667 276 390 256 390 c 0
 178.667 390.667 127.667 352.667 103 276 c 0
 96.3333 254.667 92.6667 228.333 92 197 c 0
 91.3333 145 104.333 86.3333 131 21 c 1
 64 -14 l 1
 27.3333 58 8.66667 129.667 8 201 c 0
 7.33333 277.667 29.3333 339.833 74 387.5 c 0
 118.667 435.167 179 459.333 255 460 c 0
 299 460 336.667 453 368 439 c 0
 408 419.667 428.333 390.333 429 351 c 0
 429.667 317 412.333 287.333 377 262 c 1
 407 244 422 216.667 422 180 c 0
 422 147.333 410.833 122 388.5 104 c 0
 366.167 86 338.333 77 305 77 c 0
 291.667 77 284 74.3333 282 69 c 1
 282 63 289.667 60 305 60 c 0
 373 60 419.333 64.3333 444 73 c 0
 478 85 495 110.667 495 150 c 2
 495 460 l 1
 578 460 l 1
 578 150 l 2
 578 127.333 585.333 106.833 600 88.5 c 0
 614.667 70.1667 633 60.6667 655 60 c 0
 695 59.3333 726.333 75.6667 749 109 c 0
 769 138.333 779.333 174 780 216 c 0
 780.667 254 772 290.667 754 326 c 0
 736 361.333 710.333 389.333 677 410 c 1
 728 462 l 1
EndSplineSet
EndChar
StartChar: 14
Encoding: 65556 -1
Width: 995
Flags: HW
Fore
818 463 m 1
 854 432.333 881 395.667 899 353 c 0
 917 310.333 926.333 266.333 927 221 c 0
 927.667 158.333 911.667 105.333 879 62 c 0
 843 14.6667 794.667 -9.33333 734 -10 c 0
 666.667 -10.6667 619 8.33333 591 47 c 0
 569 77 557.667 129.667 557 205 c 0
 556.333 265 552 306.667 544 330 c 0
 530 370 501.667 390 459 390 c 0
 433 390 409.667 380.667 389 362 c 0
 372.333 346.667 364 326 364 300 c 2
 364 -10 l 1
 282 -10 l 1
 282 300 l 2
 282 324.667 275.5 345.667 262.5 363 c 0
 249.5 380.333 231.667 389.333 209 390 c 0
 171.667 390.667 142.667 374 122 340 c 0
 104.667 311.333 96 277 96 237 c 0
 96 148.333 129.333 82.3333 196 39 c 1
 136 -12 l 1
 95.3333 7.33333 64 41 42 89 c 0
 22.6667 131 13 176.667 13 226 c 0
 13 292 28.6667 346 60 388 c 0
 96 436 145.667 460 209 460 c 0
 261 460 300.667 437.333 328 392 c 1
 356 437.333 404 460 472 460 c 0
 526 460 566.333 442.333 593 407 c 0
 623 367 638.333 291 639 179 c 0
 639.667 99.6667 669.667 60 729 60 c 0
 767.667 60 797.333 76.6667 818 110 c 0
 835.333 138.667 844 173.333 844 214 c 0
 844 254.667 836 293.667 820 331 c 0
 802 371.667 778 403.333 748 426 c 1
 818 463 l 1
818 1 m 1
 848 -10.3333 872 -36.6667 890 -78 c 0
 904.667 -113.333 912 -149.333 912 -186 c 0
 912 -232 901 -268.667 879 -296 c 0
 859 -320.667 831.333 -333 796 -333 c 0
 707.333 -333 662.333 -279.667 661 -173 c 0
 660.333 -142.333 651.333 -116.333 634 -95 c 0
 616.667 -73.6667 593 -62.6667 563 -62 c 0
 543 -61.3333 527 -67 515 -79 c 1
 545.667 -85 570.333 -100.333 589 -125 c 0
 605.667 -148.333 614.333 -176.333 615 -209 c 0
 615.667 -241.667 606.167 -270.333 586.5 -295 c 0
 566.833 -319.667 541 -332.333 509 -333 c 0
 471.667 -333.667 442 -319.667 420 -291 c 0
 400.667 -265.667 390.667 -233.667 390 -195 c 0
 389.333 -140.333 406.5 -96.1667 441.5 -62.5 c 0
 476.5 -28.8333 521.667 -11.6667 577 -11 c 0
 625.667 -10.3333 663.333 -24.8333 690 -54.5 c 0
 716.667 -84.1667 730.333 -124 731 -174 c 0
 731.667 -208 734.333 -231.333 739 -244 c 0
 748.333 -265.333 767 -276 795 -276 c 1
 833.667 -272 853 -243.667 853 -191 c 0
 853 -162.333 846.5 -135.167 833.5 -109.5 c 0
 820.5 -83.8333 803.333 -65.3333 782 -54 c 1
 818 1 l 1
509 -276 m 0
 521 -276.667 531 -269.333 539 -254 c 0
 545.667 -241.333 549 -228.667 549 -216 c 0
 549 -191.333 542 -171.667 528 -157 c 0
 514 -142.333 495 -134.667 471 -134 c 1
 471 -124 l 1
 478 -131 l 1
 462 -147 454 -169.333 454 -198 c 0
 454 -248.667 472.333 -274.667 509 -276 c 0
EndSplineSet
EndChar
StartChar: 15
Encoding: 65557 -1
Width: 797
Flags: HW
Fore
584 -10 m 0
 540 -10.6667 504.667 10.3333 478 53 c 0
 456 89 444.667 130.333 444 177 c 0
 443.333 255 475.333 324.333 540 385 c 1
 515 388 l 2
 504.333 388 497.667 388.667 495 390 c 1
 411.667 377.333 369.667 330.667 369 250 c 0
 368.333 163.333 357.667 101.333 337 64 c 0
 310.333 16 263.667 -8.33333 197 -9 c 0
 138.333 -9.66667 92.3333 10.6667 59 52 c 0
 28.3333 90 12.6667 139.333 12 200 c 0
 11.3333 265.333 26 321 56 367 c 0
 80 403.667 115 435.667 161 463 c 1
 203 420 l 1
 196 413 l 1
 200 404 l 1
 166.667 389.333 140 362 120 322 c 0
 101.333 285.333 92 247.333 92 208 c 0
 92 123.333 127.333 74 198 60 c 1
 230 60 253.333 77 268 111 c 0
 280 138.333 286 185 286 251 c 0
 286 321.667 309.667 376 357 414 c 0
 395 444 441.333 459.333 496 460 c 0
 572.667 460.667 635 431 683 371 c 0
 725 319 746 256.667 746 184 c 0
 746 128.667 733 83.6667 707 49 c 0
 678.333 10.3333 637.333 -9.33333 584 -10 c 0
630 1 m 1
 660.667 -10.3333 684.667 -36.6667 702 -78 c 0
 717.333 -112.667 725 -148.667 725 -186 c 0
 725 -232 714 -268.667 692 -296 c 0
 672 -320.667 644.333 -333 609 -333 c 0
 561 -333 525.333 -316.667 502 -284 c 0
 484 -258.667 474.667 -221.667 474 -173 c 0
 473.333 -142.333 464.667 -116.667 448 -96 c 0
 429.333 -74 405 -62.6667 375 -62 c 0
 357.667 -61.3333 342 -67 328 -79 c 1
 358.667 -85 382.833 -100.167 400.5 -124.5 c 0
 418.167 -148.833 427 -177 427 -209 c 0
 427 -242.333 417.333 -271.167 398 -295.5 c 0
 378.667 -319.833 353 -332.333 321 -333 c 0
 283.667 -333.667 254 -319.667 232 -291 c 0
 212.667 -265.667 202.667 -233.667 202 -195 c 0
 201.333 -141 218.833 -97 254.5 -63 c 0
 290.167 -29 335.333 -11.6667 390 -11 c 0
 438.667 -10.3333 476.333 -24.8333 503 -54.5 c 0
 529.667 -84.1667 543.333 -124 544 -174 c 0
 544.667 -208 547.333 -231.333 552 -244 c 0
 561.333 -265.333 580 -276 608 -276 c 1
 647.333 -272 667 -242.667 667 -188 c 0
 667 -163.333 662 -138.667 652 -114 c 0
 640 -86 624.333 -67.3333 605 -58 c 1
 609 -49 l 1
 601 -44 l 1
 630 1 l 1
608 350 m 0
 600 359.333 590.667 365 580 367 c 1
 566 367 554.833 353.167 546.5 325.5 c 0
 538.167 297.833 534 264 534 224 c 0
 534 115.333 555 61 597 61 c 0
 623 61 642.667 74.3333 656 101 c 0
 665.333 121.667 670.333 146.667 671 176 c 0
 671.667 242 650.667 300 608 350 c 0
321 -276 m 0
 333 -276.667 343 -269.333 351 -254 c 0
 357.667 -241.333 361 -228.667 361 -216 c 0
 361 -192 354 -172.5 340 -157.5 c 0
 326 -142.5 307.333 -134.667 284 -134 c 1
 284 -124 l 1
 291 -131 l 1
 275 -147 267 -169.333 267 -198 c 0
 267 -248.667 285 -274.667 321 -276 c 0
EndSplineSet
EndChar
StartChar: 16
Encoding: 65558 -1
Width: 482
Flags: HW
Fore
299 -14 m 1
 264 41 l 1
 296 61 321 88.3333 339 123 c 0
 357 157.667 366 194.333 366 233 c 0
 366 276.333 356 312.333 336 341 c 0
 313.333 373 281 389.333 239 390 c 0
 195 390.667 160.333 374 135 340 c 0
 111.667 310 99.6667 272.333 99 227 c 0
 98.3333 191 106.333 155.667 123 121 c 0
 139.667 86.3333 162.333 59.3333 191 40 c 1
 160 -6 l 1
 152 0 l 1
 147 -9 l 1
 106.333 14.3333 74.5 46.3333 51.5 87 c 0
 28.5 127.667 16.6667 171.667 16 219 c 0
 15.3333 285.667 35.8333 342.333 77.5 389 c 0
 119.167 435.667 173 459.333 239 460 c 0
 301.667 460.667 353.333 438.333 394 393 c 0
 428.667 355 446.333 303.667 447 239 c 0
 447.667 191.667 434 142.667 406 92 c 0
 380.667 48 345 12.6667 299 -14 c 1
348 -339 m 1
 326 -296 l 1
 346 -283.333 362.167 -265.333 374.5 -242 c 0
 386.833 -218.667 393 -194.667 393 -170 c 0
 393 -142.667 386.667 -120.333 374 -103 c 0
 360 -83 340 -72.6667 314 -72 c 0
 286 -71.3333 263.667 -84.6667 247 -112 c 0
 233 -134.667 225.667 -161 225 -191 c 0
 224.333 -238.333 241.667 -273.333 277 -296 c 1
 256 -339 l 1
 198.667 -306.333 169.667 -255.333 169 -186 c 0
 168.333 -141.333 181.5 -101.5 208.5 -66.5 c 0
 235.5 -31.5 270.667 -14 314 -14 c 0
 355.333 -14 388.333 -30 413 -62 c 0
 435 -91.3333 446 -127.333 446 -170 c 0
 446 -246 413.333 -302.333 348 -339 c 1
EndSplineSet
EndChar
StartChar: 17
Encoding: 65559 -1
Width: 502
Flags: HW
Fore
395 227 m 1
 409 219 420 206.5 428 189.5 c 0
 436 172.5 440 154.333 440 135 c 0
 440 84.3333 420.333 47.6667 381 25 c 1
 414.333 8.33333 431.333 -20.3333 432 -61 c 0
 432.667 -101 415.667 -132.333 381 -155 c 0
 351 -174.333 315 -184 273 -184 c 0
 253.667 -184 231 -180.333 205 -173 c 0
 179 -165.667 156.667 -155.333 138 -142 c 1
 138 -69 l 1
 184 -99 224.667 -114 260 -114 c 0
 286.667 -114 307.333 -108.333 322 -97 c 0
 336.667 -85.6667 344 -72.3333 344 -57 c 0
 344 -36.3333 332.667 -20.3333 310 -9 c 0
 292 -1 271.333 3 248 3 c 2
 151 3 l 1
 151 73 l 1
 276 72 l 2
 299.333 70.6667 319.333 77 336 91 c 0
 350 103 357.333 117.667 358 135 c 0
 358.667 148.333 352.667 160.833 340 172.5 c 0
 327.333 184.167 309.333 190 286 190 c 2
 188 190 l 1
 188 260 l 1
 286 260 l 2
 304.667 260 320.667 266 334 278 c 0
 347.333 290 354.333 305.333 355 324 c 0
 355.667 352.667 340 372.333 308 383 c 0
 295.333 387.667 279.667 390 261 390 c 0
 205 390.667 162.333 368.333 133 323 c 0
 109 285 96.6667 236.333 96 177 c 0
 95.3333 130.333 104.333 78 123 20 c 1
 57 -14 l 1
 42.3333 20 32 51 26 79 c 0
 18.6667 112.333 15 144.667 15 176 c 0
 15 255.333 35.6667 321.333 77 374 c 0
 122.333 431.333 183.667 460 261 460 c 0
 309.667 460 350.333 449 383 427 c 0
 421 401.667 440.333 366 441 320 c 0
 441.667 280 426.333 249 395 227 c 1
EndSplineSet
EndChar
StartChar: 18
Encoding: 65560 -1
Width: 1169
Flags: HW
Fore
1099 312 m 0
 1099 290.667 1095.33 273.667 1088 261 c 1
 1082 246.333 1072.33 234.333 1059 225 c 1
 1091.67 203 1108.33 170.667 1109 128 c 0
 1109.67 84 1089.33 51 1048 29 c 0
 1015.33 11.6667 975 3 927 3 c 2
 714 3 l 2
 702 3 692.167 -1.83333 684.5 -11.5 c 0
 676.833 -21.1667 672.667 -32.6667 672 -46 c 0
 670.667 -74.6667 685 -89 715 -89 c 2
 1087 -89 l 1
 1087 -159 l 1
 140 -159 l 2
 104 -159 74 -149.333 50 -130 c 0
 24 -109.333 11 -81.3333 11 -46 c 0
 11 -10.6667 23.3333 18 48 40 c 0
 72.6667 62 103 73 139 73 c 2
 339 73 l 2
 391.667 73 425.667 86 441 112 c 0
 444.333 118 446.667 126.667 448 138 c 0
 448 154.667 440 168 424 178 c 0
 410.667 186 395 190 377 190 c 2
 317 190 l 1
 317 260 l 1
 377 260 l 2
 420.333 260 442 277.667 442 313 c 0
 442 364.333 391 390 289 390 c 0
 217.667 390 164.333 373.333 129 340 c 1
 143 345.333 159 348 177 348 c 0
 215.667 348.667 247.167 335.5 271.5 308.5 c 0
 295.833 281.5 308 250.333 308 215 c 0
 308 175 293.667 143.667 265 121 c 0
 239 100.333 205.333 90 164 90 c 0
 120 90 84.8333 104.5 58.5 133.5 c 0
 32.1667 162.5 18.6667 199.333 18 244 c 0
 17.3333 300.667 38.6667 349.333 82 390 c 0
 130.667 436 199.667 459.333 289 460 c 0
 349 460.667 400 451.333 442 432 c 0
 496.667 406 524 366.333 524 313 c 0
 524 293.667 520.333 276.333 513 261 c 0
 505.667 245.667 496 233.667 484 225 c 1
 500 215 512.333 201.333 521 184 c 0
 522.333 181.333 525 174 529 162 c 0
 532.333 152.667 534 141.333 534 128 c 0
 534.667 84.6667 514.333 52 473 30 c 0
 439.667 12 399.333 3 352 3 c 2
 139 3 l 2
 127 3 117.167 -1.83333 109.5 -11.5 c 0
 101.833 -21.1667 97.6667 -32.6667 97 -46 c 0
 95.6667 -74.6667 110 -89 140 -89 c 2
 601 -89 l 1
 598 -59 l 1
 598 -21 607.667 9.66667 627 33 c 0
 647.667 59 676.667 72 714 72 c 2
 914 73 l 2
 966.667 73 1000.67 86 1016 112 c 0
 1019.33 118 1021.67 126.667 1023 138 c 0
 1023 154.667 1015 168 999 178 c 0
 985.667 186 970 190 952 190 c 2
 892 190 l 1
 892 260 l 1
 952 260 l 2
 974 260 991.333 266 1004 278 c 1
 1012.67 288.667 1017 300 1017 312 c 0
 1018.33 364 967.333 390 864 390 c 0
 791.333 390 738 373 704 339 c 1
 718 344.333 734 347 752 347 c 0
 790.667 347.667 822.167 334.5 846.5 307.5 c 0
 870.833 280.5 883 249.333 883 214 c 0
 883 174 868.667 143 840 121 c 0
 814 100.333 780.333 90 739 90 c 0
 695.667 90 660.5 104.833 633.5 134.5 c 0
 606.5 164.167 592.667 201 592 245 c 0
 591.333 314.333 620.333 368.667 679 408 c 0
 729.667 442 791.333 459.333 864 460 c 0
 924.667 460.667 975.667 451 1017 431 c 0
 1071.67 405.667 1099 366 1099 312 c 0
739 160 m 0
 757.667 160 772.167 165.5 782.5 176.5 c 0
 792.833 187.5 798.333 200.667 799 216 c 0
 799.667 231.333 794.5 245.167 783.5 257.5 c 0
 772.5 269.833 757.667 276.333 739 277 c 0
 723 277.667 708.333 271.333 695 258 c 1
 685 246 679.667 231.667 679 215 c 0
 678.333 201.667 683.333 188.667 694 176 c 0
 703.333 166.667 718.333 161.333 739 160 c 0
164 160 m 0
 204 160 224 178.667 224 216 c 0
 224 234 218.5 248.667 207.5 260 c 0
 196.5 271.333 182 277.333 164 278 c 0
 148 278.667 133.333 272.333 120 259 c 1
 110 247 104.667 232.667 104 216 c 0
 103.333 202 108.333 188.667 119 176 c 0
 128.333 166.667 143.333 161.333 164 160 c 0
EndSplineSet
EndChar
StartChar: 19
Encoding: 65561 -1
Width: 723
Flags: HW
Fore
632 232 m 1
 664 214 680 182 680 136 c 0
 680 91.3333 665 56 635 30 c 0
 605 4 567 -9.33333 521 -10 c 0
 507 -10 489.667 -5.33333 469 4 c 1
 461 6 450 11 436 19 c 1
 436 99 l 1
 444.667 90.3333 457.833 81.8333 475.5 73.5 c 0
 493.167 65.1667 508.333 60.6667 521 60 c 0
 541.667 59.3333 559.667 66.6667 575 82 c 0
 590.333 97.3333 598.333 115.333 599 136 c 0
 599.667 156 591.333 171.667 574 183 c 0
 559.333 192.333 541.667 197 521 197 c 2
 424 197 l 1
 423 265 l 1
 521 266 l 2
 543.667 266 561.333 271.667 574 283 c 0
 586.667 294.333 593.333 308.333 594 325 c 0
 594.667 347.667 583.333 365 560 377 c 0
 542 386.333 520.667 391 496 391 c 0
 464 391 437.333 382.667 416 366 c 0
 392.667 347.333 381 322.667 381 292 c 2
 381 -10 l 1
 299 -10 l 1
 299 292 l 2
 299 320.667 291 344.167 275 362.5 c 0
 259 380.833 237 390.333 209 391 c 0
 169 391.667 138.667 372 118 332 c 0
 102 301.333 94 264 94 220 c 0
 94 129.333 122 64 178 24 c 1
 108 -12 l 1
 45.3333 38 14 111.667 14 209 c 0
 14 274.333 29.6667 330.667 61 378 c 0
 97 432.667 146.333 460 209 460 c 0
 264.333 460 310 438.667 346 396 c 1
 360 416.667 382.333 433 413 445 c 0
 439.667 455 467.333 460 496 460 c 0
 543.333 460 584.667 449 620 427 c 0
 660.667 401.667 681.333 366.667 682 322 c 0
 682.667 284 666 254 632 232 c 1
EndSplineSet
EndChar
StartChar: 20
Encoding: 65562 -1
Width: 1240
Flags: HW
Fore
1199 -10 m 1
 529 -10 l 1
 529 42 l 1
 575.667 88.6667 599 145 599 211 c 0
 599 259 587 299.667 563 333 c 0
 535.667 370.333 498.667 389.333 452 390 c 0
 423.333 390.667 406 386.667 400 378 c 1
 449.333 332 479 269 489 189 c 1
 489 132.333 476.333 86.3333 451 51 c 0
 422.333 11 381 -9 327 -9 c 0
 286.333 -9 252.333 8 225 42 c 0
 197.667 76 183.667 124.333 183 187 c 0
 182.333 270.333 212.333 333.667 273 377 c 1
 258 386 l 1
 239 390 l 1
 193.667 390 158 370.333 132 331 c 0
 110 297 98.6667 256 98 208 c 0
 97.3333 138.667 119.667 82.3333 165 39 c 1
 115 -14 l 1
 51 37.3333 18.6667 109.333 18 202 c 0
 17.3333 271.333 36.3333 330.667 75 380 c 0
 117 432.667 171.667 459.333 239 460 c 0
 281.667 460.667 319.333 449 352 425 c 1
 385.333 447.667 422.667 459.333 464 460 c 0
 534.667 460.667 589.333 434 628 380 c 0
 662 332 679 271.667 679 199 c 0
 679 143.667 668 97.3333 646 60 c 1
 792 60 l 1
 792 225 l 2
 792 380.333 862 458.667 1002 460 c 0
 1068.67 460.667 1119 440 1153 398 c 0
 1183.67 359.333 1199 306 1199 238 c 2
 1199 -10 l 1
1116 60 m 1
 1116 225 l 2
 1116 335 1078 390 1002 390 c 0
 916.667 390 874 331 874 213 c 2
 874 60 l 1
 1116 60 l 1
404 213 m 1
 396 260.333 372.667 303.333 334 342 c 1
 341 349 l 1
 347 341 l 1
 323.667 324.333 305.333 305.333 292 284 c 0
 282 268.667 272.667 244.333 264 211 c 1
 260 170 l 1
 260 97.3333 283 60.6667 329 60 c 0
 379 58.6667 405 95.6667 407 171 c 1
 404 213 l 1
EndSplineSet
EndChar
StartChar: 21
Encoding: 65563 -1
Width: 484
Flags: HW
Fore
423 376 m 1
 388 324 l 1
 326 368 271 390 223 390 c 0
 141 390 99.6667 360 99 300 c 0
 99 285.333 108 274 126 266 c 0
 138 262 160 260 192 260 c 2
 235 260 l 2
 287 260 330 251 364 233 c 0
 406.667 209.667 428 174.333 428 127 c 0
 428 77 409.333 42 372 22 c 1
 404.667 -0.666667 421.333 -30 422 -66 c 0
 422.667 -110.667 399.333 -144.667 352 -168 c 0
 314.667 -186 271.333 -195.333 222 -196 c 0
 190.667 -196 154.667 -189.667 114 -177 c 0
 69.3333 -163 37.3333 -146.333 18 -127 c 1
 17 -56 l 1
 65.6667 -85.3333 130.667 -108.667 212 -126 c 1
 239.333 -126 264 -122 286 -114 c 0
 316.667 -102.667 332.333 -85.6667 333 -63 c 0
 333.667 -51 325.667 -38.3333 309 -25 c 1
 293 -15 269.667 -10 239 -10 c 2
 17 -10 l 1
 17 60 l 1
 227 60 l 2
 308.333 60 349.333 81.6667 350 125 c 0
 350.667 163 325.667 185 275 191 c 0
 258.333 193 229.333 194 188 194 c 0
 131.333 194 92.3333 198.667 71 208 c 0
 35 224 17 254.333 17 299 c 0
 17 347.667 33.5 386.5 66.5 415.5 c 0
 99.5 444.5 151.667 459.333 223 460 c 0
 263.667 460.667 303.333 452.333 342 435 c 0
 375.333 420.333 402.333 400.667 423 376 c 1
EndSplineSet
EndChar
StartChar: 22
Encoding: 65564 -1
Width: 869
Flags: HW
Fore
789 499 m 0
 789 485 785.333 468.667 778 450 c 1
 772 429.333 763.333 413 752 401 c 1
 780 376.333 801.667 343 817 301 c 0
 830.333 263 837.333 223.667 838 183 c 0
 838.667 127.667 826 82.6667 800 48 c 0
 771.333 10 730 -9.33333 676 -10 c 0
 631.333 -10.6667 597.833 6.83333 575.5 42.5 c 0
 553.167 78.1667 541.667 122.667 541 176 c 0
 540.333 260.667 565.667 327.667 617 377 c 1
 573 385 537 389.333 509 390 c 0
 481 390.667 452 386.667 422 378 c 1
 446 352 463 323 473 291 c 0
 478.333 275 484 242.333 490 193 c 1
 490 136.333 477.333 90 452 54 c 0
 423.333 12 382 -9.33333 328 -10 c 0
 279.333 -10.6667 242 12 216 58 c 0
 195.333 94.6667 184.667 139.333 184 192 c 0
 183.333 232 192.667 268.333 212 301 c 0
 224.667 323.667 248.667 350.333 284 381 c 1
 260 388 l 1
 237 390 l 2
 201.667 393.333 168.333 375 137 335 c 0
 109 299 95 256.333 95 207 c 0
 95 140.333 123.333 84.6667 180 40 c 1
 129 -15 l 1
 91 21 63.6667 54 47 84 c 0
 26.3333 120.667 16 161.667 16 207 c 2
 16 230 l 1
 18 245 l 2
 28 317.667 57 373 105 411 c 0
 145.667 443 195 459.333 253 460 c 0
 294.333 460.667 328 451.333 354 432 c 1
 401.333 452 456.333 462 519 462 c 0
 573.667 462 625 453.667 673 437 c 1
 691.667 458.333 703 480 707 502 c 1
 707 518.667 701.667 533 691 545 c 0
 680.333 557 668.333 563.333 655 564 c 0
 621.667 565.333 588 545.667 554 505 c 1
 520 561 l 1
 531.333 583.667 550.333 602 577 616 c 0
 601.667 628 627.667 634.333 655 635 c 0
 695 635.667 727.167 623.333 751.5 598 c 0
 775.833 572.667 788.333 539.667 789 499 c 0
757 218 m 1
 753.667 261.333 731.333 304.333 690 347 c 1
 671.333 334.333 654 308.833 638 270.5 c 0
 622 232.167 613.667 194.333 613 157 c 0
 611.667 103.667 633.667 71.3333 679 60 c 1
 691 59 l 2
 712.333 57 729.667 68.5 743 93.5 c 0
 756.333 118.5 762 146.333 760 177 c 1
 757 218 l 1
405 217 m 1
 403.667 237 396.333 260 383 286 c 0
 371.667 308 355.667 329.333 335 350 c 1
 342 357 l 1
 348 349 l 1
 302 315 274.333 270.333 265 215 c 2
 261 192 l 1
 260 169 l 1
 258.667 142.333 263 118.667 273 98 c 0
 285 73.3333 303.333 60.6667 328 60 c 0
 353.333 59.3333 373 70 387 92 c 0
 403 117.333 410 145.667 408 177 c 1
 405 217 l 1
EndSplineSet
EndChar
StartChar: 23
Encoding: 65565 -1
Width: 856
Flags: HW
Fore
736 60 m 1
 736 225 l 2
 736 313.667 705.333 367.333 644 386 c 1
 668.667 361.333 681.333 330.333 682 293 c 0
 683.333 219.667 638.667 142 548 60 c 1
 736 60 l 1
94 60 m 1
 131.333 84 164 117 192 159 c 0
 222.667 205 238 248.333 238 289 c 0
 238 310.333 232.333 328.167 221 342.5 c 0
 209.667 356.833 192.667 364.333 170 365 c 0
 140 365.667 118.667 348 106 312 c 0
 98 288.667 94 247 94 187 c 2
 94 60 l 1
282 386 m 1
 294.667 374 305.333 358.333 314 339 c 1
 320.667 319.667 324 301.667 324 285 c 0
 325.333 213 279.667 138 187 60 c 1
 374 60 l 1
 374 225 l 2
 374 313.667 343.333 367.333 282 386 c 1
456 60 m 1
 492.667 84 525.333 117 554 159 c 0
 584.667 205.667 600 249 600 289 c 0
 600 332.333 577.667 357.667 533 365 c 1
 498.333 365 475.333 342 464 296 c 0
 458.667 273.333 456 237 456 187 c 2
 456 60 l 1
12 -10 m 1
 12 225 l 2
 12 298.333 31 355.833 69 397.5 c 0
 107 439.167 162 460 234 460 c 0
 316.667 460 377 433.667 415 381 c 1
 451.667 433 512 459.333 596 460 c 0
 744.667 461.333 819 383 819 225 c 2
 819 -10 l 1
 12 -10 l 1
EndSplineSet
EndChar
StartChar: 24
Encoding: 65566 -1
Width: 758
Flags: HW
Fore
691 -246 m 1
 121 -246 l 1
 121 -218 l 1
 562 -10 l 1
 9 -10 l 1
 9 60 l 1
 230 60 l 1
 250.667 64 267.333 75.6667 280 95 c 0
 291.333 112.333 297.333 132 298 154 c 0
 298.667 173.333 292.5 190.333 279.5 205 c 0
 266.5 219.667 250.333 227.333 231 228 c 0
 209.667 228.667 192.667 220.667 180 204 c 1
 170 186.667 164.667 166.667 164 144 c 0
 164 132 166 118.333 170 103 c 1
 86 103 l 1
 82 124 l 1
 81 149 l 1
 79 191 93.3333 226.333 124 255 c 0
 152.667 283 188.333 297.333 231 298 c 0
 274.333 298.667 310.667 284.333 340 255 c 0
 369.333 225.667 384 189.333 384 146 c 0
 384 112.667 374.333 84 355 60 c 1
 608 60 l 1
 608 460 l 1
 691 460 l 1
 691 -246 l 1
618 -186 m 1
 608 -186 l 1
 608 -52 l 1
 350 -176 l 1
 618 -176 l 1
 618 -186 l 1
EndSplineSet
EndChar
StartChar: 25
Encoding: 65567 -1
Width: 577
Flags: HW
Fore
434 60 m 1
 434 225 l 2
 434 313.667 403.333 367.333 342 386 c 1
 366.667 361.333 379.333 330.667 380 294 c 0
 380.667 254.667 366 211.667 336 165 c 0
 312 126.333 282 91.3333 246 60 c 1
 434 60 l 1
154 60 m 1
 191.333 84 224 117 252 159 c 0
 282.667 205 298 248.333 298 289 c 0
 298 332.333 275.667 357.667 231 365 c 1
 196.333 365 173.667 342.333 163 297 c 0
 157 273.667 154 237.333 154 188 c 2
 154 60 l 1
104 -134 m 0
 88 -133.333 76.1667 -137 68.5 -145 c 0
 60.8333 -153 56.6667 -163 56 -175 c 0
 55.3333 -194.333 63.8333 -215.833 81.5 -239.5 c 0
 99.1667 -263.167 117.333 -275.333 136 -276 c 0
 156.667 -276.667 170 -261.667 176 -231 c 0
 177.333 -225 178 -218.667 178 -212 c 0
 178 -161.333 153.333 -135.333 104 -134 c 0
445 1 m 1
 475 -10.3333 499 -36.6667 517 -78 c 0
 531.667 -113.333 539 -149.333 539 -186 c 0
 539 -232 528 -268.667 506 -296 c 0
 486 -320.667 458.333 -333 423 -333 c 0
 334.333 -333 289.333 -279.667 288 -173 c 0
 287.333 -142.333 278.333 -116.333 261 -95 c 0
 243.667 -73.6667 220 -62.6667 190 -62 c 0
 170 -61.3333 154 -67 142 -79 c 1
 172.667 -85 197.333 -100.333 216 -125 c 0
 232.667 -148.333 241.333 -176.333 242 -209 c 0
 242.667 -241.667 233.167 -270.333 213.5 -295 c 0
 193.833 -319.667 168 -332.333 136 -333 c 0
 98.6667 -333.667 69 -319.667 47 -291 c 0
 27.6667 -265.667 17.6667 -233.667 17 -195 c 0
 16.3333 -140.333 33.5 -96.1667 68.5 -62.5 c 0
 103.5 -28.8333 148.667 -11.6667 204 -11 c 0
 252.667 -10.3333 290.333 -24.8333 317 -54.5 c 0
 343.667 -84.1667 357.333 -124 358 -174 c 0
 358.667 -208 361.333 -231.333 366 -244 c 0
 375.333 -265.333 394 -276 422 -276 c 1
 458 -272 476.667 -244.333 478 -193 c 0
 478.667 -166.333 473.333 -140 462 -114 c 0
 449.333 -85.3333 432.333 -65 411 -53 c 1
 445 1 l 1
294 460 m 0
 442.667 461.333 517 383 517 225 c 2
 517 -10 l 1
 72 -10 l 1
 72 225 l 2
 72 380.333 146 458.667 294 460 c 0
EndSplineSet
EndChar
StartChar: 26
Encoding: 65568 -1
Width: 816
Flags: HW
Fore
744 491 m 0
 744 474.333 740.333 457.333 733 440 c 1
 728.333 423.333 719.333 406.667 706 390 c 1
 732 366 753 333.667 769 293 c 0
 783.667 255 791 217.333 791 180 c 0
 791 125.333 778.333 81 753 47 c 0
 724.333 9.66667 683.333 -9 630 -9 c 0
 584 -9 549 8.66667 525 44 c 0
 505 74 494.667 113 494 161 c 0
 493.333 201 500.667 240.333 516 279 c 0
 532.667 321.667 555.667 354 585 376 c 1
 566.333 384 546.333 388.333 525 389 c 0
 493 389.667 464.667 381 440 363 c 0
 415.333 345 403 320.333 403 289 c 2
 403 -9 l 1
 320 -9 l 1
 320 290 l 2
 320 319.333 312.167 343.5 296.5 362.5 c 0
 280.833 381.5 258.667 391.333 230 392 c 0
 187.333 392.667 154 372.667 130 332 c 0
 110 298.667 99.6667 259 99 213 c 0
 98.3333 129.667 127.667 67 187 25 c 1
 116 -11 l 1
 51.3333 39 18.6667 111.667 18 207 c 0
 17.3333 275 35.3333 333 72 381 c 0
 111.333 433.667 164 460.333 230 461 c 0
 280.667 461.667 322.667 439.667 356 395 c 1
 372.667 415 396 430.333 426 441 c 0
 456 451.667 486 457.333 516 458 c 0
 559.333 458.667 600 448.667 638 428 c 1
 653 462 l 1
 662 491 l 1
 664 505.667 658.667 521.833 646 539.5 c 0
 633.333 557.167 619.667 566 605 566 c 0
 582.333 566 561.333 555.333 542 534 c 2
 507 496 l 1
 494 519 l 1
 473 551 l 1
 507.667 607 551.667 635.333 605 636 c 0
 643 636.667 675.667 622.167 703 592.5 c 0
 730.333 562.833 744 529 744 491 c 0
647 342 m 1
 632 346 l 1
 609.333 346 591 322 577 274 c 0
 567 238.667 562 205.667 562 175 c 0
 562 99.6667 584.667 61.6667 630 61 c 0
 683.333 59.6667 710.667 98 712 176 c 0
 712.667 204.667 707.667 235 697 267 c 0
 684.333 304.333 667.667 329.333 647 342 c 1
EndSplineSet
EndChar
StartChar: 27
Encoding: 65569 -1
Width: 732
Flags: HW
Fore
668 -10 m 1
 236 -10 l 1
 236 58 l 1
 256 62 271.167 71.6667 281.5 87 c 0
 291.833 102.333 297 119.667 297 139 c 0
 297 167.667 287.833 191.5 269.5 210.5 c 0
 251.167 229.5 227.667 239.333 199 240 c 0
 168.333 240.667 143.5 232.167 124.5 214.5 c 0
 105.5 196.833 95.6667 172.667 95 142 c 0
 94.3333 100 111.667 66.3333 147 41 c 1
 112 -12 l 1
 82 -3.33333 58 17.6667 40 51 c 0
 24 80.3333 15.6667 112 15 146 c 0
 14.3333 200.667 33.6667 242.333 73 271 c 0
 108.333 297 154.333 310 211 310 c 0
 257.667 310 297 291.833 329 255.5 c 0
 361 219.167 377.333 177.333 378 130 c 0
 378.667 105.333 373.333 82 362 60 c 1
 585 60 l 1
 585 460 l 1
 668 460 l 1
 668 -10 l 1
492 1 m 1
 522 -10.3333 546 -36.6667 564 -78 c 0
 578.667 -113.333 586 -149.333 586 -186 c 0
 586 -232 575 -268.667 553 -296 c 0
 533 -320.667 505.333 -333 470 -333 c 0
 381.333 -333 336.333 -279.667 335 -173 c 0
 334.333 -142.333 325.333 -116.333 308 -95 c 0
 290.667 -73.6667 267 -62.6667 237 -62 c 0
 217 -61.3333 201 -67 189 -79 c 1
 219.667 -85 244.333 -100.333 263 -125 c 0
 279.667 -148.333 288.333 -176.333 289 -209 c 0
 289.667 -241.667 280.167 -270.333 260.5 -295 c 0
 240.833 -319.667 215 -332.333 183 -333 c 0
 145.667 -333.667 116 -319.667 94 -291 c 0
 74.6667 -265.667 64.6667 -233.667 64 -195 c 0
 63.3333 -140.333 80.5 -96.1667 115.5 -62.5 c 0
 150.5 -28.8333 195.667 -11.6667 251 -11 c 0
 299.667 -10.3333 337.333 -24.8333 364 -54.5 c 0
 390.667 -84.1667 404.333 -124 405 -174 c 0
 405.667 -208 408.333 -231.333 413 -244 c 0
 422.333 -265.333 441 -276 469 -276 c 1
 507.667 -272 527 -243.667 527 -191 c 0
 527 -162.333 520.5 -135.167 507.5 -109.5 c 0
 494.5 -83.8333 477.333 -65.3333 456 -54 c 1
 492 1 l 1
183 -276 m 0
 195 -276.667 205 -269.333 213 -254 c 0
 219.667 -241.333 223 -228.667 223 -216 c 0
 223 -191.333 216 -171.667 202 -157 c 0
 188 -142.333 169 -134.667 145 -134 c 1
 145 -124 l 1
 152 -131 l 1
 136 -147 128 -169.333 128 -198 c 0
 128 -248.667 146.333 -274.667 183 -276 c 0
EndSplineSet
EndChar
StartChar: 28
Encoding: 65570 -1
Width: 663
Flags: HW
Fore
482 -12 m 1
 427 44 l 1
 464.333 54.6667 494 83.3333 516 130 c 0
 535.333 170 545.333 211.667 546 255 c 0
 546.667 292.333 539.667 323 525 347 c 0
 507.667 375 481.333 389.333 446 390 c 0
 386.667 390.667 356.667 344 356 250 c 0
 355.333 159.333 346 96.3333 328 61 c 0
 304 14.3333 260 -9.33333 196 -10 c 0
 137.333 -10.6667 91.6667 9.33333 59 50 c 0
 28.3333 87.3333 13 135.667 13 195 c 0
 13 306.333 57.6667 395.333 147 462 c 1
 219 426 l 1
 179 406 148 374.667 126 332 c 0
 105.333 292.667 94.6667 249.333 94 202 c 0
 93.3333 163.333 100.333 131.333 115 106 c 0
 133 75.3333 160 60 196 60 c 0
 232 60 255.333 79.3333 266 118 c 0
 270.667 136 273.333 176 274 238 c 0
 274.667 322 293.333 381.667 330 417 c 0
 359.333 445 398 459.333 446 460 c 0
 504 460.667 548.667 438.667 580 394 c 0
 608 354.667 622 305 622 245 c 0
 622 186.333 609.667 132.5 585 83.5 c 0
 560.333 34.5 526 2.66667 482 -12 c 1
493 1 m 1
 523 -10.3333 547 -36.6667 565 -78 c 0
 579.667 -113.333 587 -149.333 587 -186 c 0
 587 -232 576 -268.667 554 -296 c 0
 534 -320.667 506.333 -333 471 -333 c 0
 382.333 -333 337.333 -279.667 336 -173 c 0
 335.333 -142.333 326.333 -116.333 309 -95 c 0
 291.667 -73.6667 268 -62.6667 238 -62 c 0
 218 -61.3333 202 -67 190 -79 c 1
 220.667 -85 245.333 -100.333 264 -125 c 0
 280.667 -148.333 289.333 -176.333 290 -209 c 0
 290.667 -241.667 281.167 -270.333 261.5 -295 c 0
 241.833 -319.667 216 -332.333 184 -333 c 0
 146.667 -333.667 117 -319.667 95 -291 c 0
 75.6667 -265.667 65.6667 -233.667 65 -195 c 0
 64.3333 -140.333 81.5 -96.1667 116.5 -62.5 c 0
 151.5 -28.8333 196.667 -11.6667 252 -11 c 0
 300.667 -10.3333 338.333 -24.8333 365 -54.5 c 0
 391.667 -84.1667 405.333 -124 406 -174 c 0
 406.667 -208 409.333 -231.333 414 -244 c 0
 423.333 -265.333 442 -276 470 -276 c 1
 508.667 -272 528 -243.667 528 -191 c 0
 528 -162.333 521.5 -135.167 508.5 -109.5 c 0
 495.5 -83.8333 478.333 -65.3333 457 -54 c 1
 493 1 l 1
184 -276 m 0
 196 -276.667 206 -269.333 214 -254 c 0
 220.667 -241.333 224 -228.667 224 -216 c 0
 224 -191.333 217 -171.667 203 -157 c 0
 189 -142.333 170 -134.667 146 -134 c 1
 146 -124 l 1
 153 -131 l 1
 137 -147 129 -169.333 129 -198 c 0
 129 -248.667 147.333 -274.667 184 -276 c 0
EndSplineSet
EndChar
StartChar: 29
Encoding: 65571 -1
Width: 856
Flags: HW
Fore
848 203 m 1
 787 203 l 1
 787 143 775.667 94.6667 753 58 c 0
 725 13.3333 682.667 -9 626 -9 c 0
 584 -9 550.667 5.33333 526 34 c 0
 502.667 60.6667 491 95.3333 491 138 c 0
 491 178.667 505.333 211.333 534 236 c 0
 562.667 260.667 597.333 273 638 273 c 2
 689 273 l 1
 677.667 309 662.667 332.667 644 344 c 1
 616 374.667 574.333 390.333 519 391 c 0
 485 391.667 457 383.333 435 366 c 0
 411 347.333 399 321.333 399 288 c 2
 399 -9 l 1
 316 -9 l 1
 316 288 l 2
 316 355.333 290 389.333 238 390 c 0
 194.667 390.667 160.667 370.333 136 329 c 0
 115.333 295 104.667 254.667 104 208 c 0
 103.333 129.333 131.667 69 189 27 c 1
 113 -11 l 1
 51 36.3333 20 105.667 20 197 c 0
 20 267 38.3333 327 75 377 c 0
 116.333 431.667 170.667 459.333 238 460 c 0
 290.667 460.667 330.667 439.667 358 397 c 1
 382.667 427.667 419.333 447.333 468 456 c 0
 481.333 458.667 496.667 460 514 460 c 0
 548.667 460.667 583 455 617 443 c 0
 649 431.667 674.667 416.333 694 397 c 1
 727.333 371.667 754 330.333 774 273 c 1
 848 273 l 1
 848 203 l 1
704 203 m 1
 626 203 l 2
 606.667 203 591.667 192.667 581 172 c 0
 575.667 163.333 573 152.333 573 139 c 0
 571.667 86.3333 589.333 60 626 60 c 0
 654 60 674 71.3333 686 94 c 0
 700 120 706.333 148.333 705 179 c 2
 704 203 l 1
EndSplineSet
EndChar
StartChar: 30
Encoding: 65572 -1
Width: 1026
Flags: HW
Fore
968 -10 m 1
 553 -9 l 1
 553 58 l 1
 616.333 81.3333 648.667 136.333 650 223 c 0
 650.667 261.667 641.667 299.667 623 337 c 0
 605.667 371.667 585.667 389.333 563 390 c 0
 530.333 390.667 502.667 382.333 480 365 c 0
 455.333 345.667 443 320 443 288 c 2
 443 -10 l 1
 361 -10 l 1
 361 288 l 2
 361 318 350.167 342.5 328.5 361.5 c 0
 306.833 380.5 281 390 251 390 c 0
 209.667 390 173.833 376 143.5 348 c 0
 113.167 320 94.6667 285 88 243 c 1
 118 263 147.333 273 176 273 c 0
 216 273 248.333 259.5 273 232.5 c 0
 297.667 205.5 310.333 171.667 311 131 c 0
 311.667 94.3333 299.333 61.6667 274 33 c 0
 248.667 4.33333 211.667 -10 163 -10 c 0
 115 -10 77.6667 8 51 44 c 0
 26.3333 78 13.6667 123.667 13 181 c 0
 12.3333 255 33 318.667 75 372 c 0
 120.333 430 179 459.333 251 460 c 0
 315.667 460.667 369.667 437.667 413 391 c 1
 452.333 437 498.333 460 551 460 c 0
 609 460 655.333 435.667 690 387 c 0
 720 343.667 735 291.667 735 231 c 0
 735 167.667 717.667 111 683 61 c 1
 886 60 l 1
 886 460 l 1
 968 460 l 1
 968 -10 l 1
879 1 m 1
 909 -10.3333 933 -36.6667 951 -78 c 0
 965.667 -113.333 973 -149.333 973 -186 c 0
 973 -232 962 -268.667 940 -296 c 0
 920 -320.667 892.333 -333 857 -333 c 0
 768.333 -333 723.333 -279.667 722 -173 c 0
 721.333 -142.333 712.333 -116.333 695 -95 c 0
 677.667 -73.6667 654 -62.6667 624 -62 c 0
 604 -61.3333 588 -67 576 -79 c 1
 606.667 -85 631.333 -100.333 650 -125 c 0
 666.667 -148.333 675.333 -176.333 676 -209 c 0
 676.667 -241.667 667.167 -270.333 647.5 -295 c 0
 627.833 -319.667 602 -332.333 570 -333 c 0
 532.667 -333.667 503 -319.667 481 -291 c 0
 461.667 -265.667 451.667 -233.667 451 -195 c 0
 450.333 -140.333 467.5 -96.1667 502.5 -62.5 c 0
 537.5 -28.8333 582.667 -11.6667 638 -11 c 0
 686.667 -10.3333 724.333 -24.8333 751 -54.5 c 0
 777.667 -84.1667 791.333 -124 792 -174 c 0
 792.667 -208 795.333 -231.333 800 -244 c 0
 809.333 -265.333 828 -276 856 -276 c 1
 895.333 -272 915 -242.667 915 -188 c 0
 915 -163.333 910 -138.667 900 -114 c 0
 888 -86 872.333 -67.3333 853 -58 c 1
 857 -49 l 1
 849 -44 l 1
 879 1 l 1
570 -276 m 0
 582 -276.667 592 -269.333 600 -254 c 0
 606.667 -241.333 610 -228.667 610 -216 c 0
 610 -191.333 603 -171.667 589 -157 c 0
 575 -142.333 556 -134.667 532 -134 c 1
 532 -124 l 1
 539 -131 l 1
 523 -147 515 -169.333 515 -198 c 0
 515 -248.667 533.333 -274.667 570 -276 c 0
228 138 m 0
 228.667 153.333 221.833 168 207.5 182 c 0
 193.167 196 178.333 203 163 203 c 0
 121.667 203 100 181.333 98 138 c 1
 98 138 l 1
 98 119.333 104.333 102 117 86 c 0
 129.667 70 145 61.6667 163 61 c 0
 205 59.6667 226.667 85.3333 228 138 c 0
EndSplineSet
EndChar
StartChar: 31
Encoding: 65573 -1
Width: 1086
Flags: HW
Fore
952 -11 m 1
 881 25 l 1
 937.667 61 966.333 123 967 211 c 0
 967.667 259 956.667 299.667 934 333 c 0
 908 370.333 872 389.333 826 390 c 0
 759.333 390.667 709.667 351.667 677 273 c 1
 738 273 l 2
 783.333 273 819.667 258 847 228 c 0
 871 201.333 883.333 168 884 128 c 0
 884.667 86 871.167 52.8333 843.5 28.5 c 0
 815.833 4.16667 780.667 -8.33333 738 -9 c 0
 679.333 -9.66667 636.333 12.3333 609 57 c 0
 589 89.6667 578.333 138.667 577 204 c 1
 523 203 l 1
 523 63.6667 469.667 -6.66667 363 -8 c 0
 307 -8.66667 266 5 240 33 c 1
 234 21 223.333 10.6667 208 2 c 1
 192.667 -4 169.333 -7.33333 138 -8 c 0
 101.333 -8.66667 71.6667 4.66667 49 32 c 0
 27.6667 56.6667 16.6667 88 16 126 c 0
 15.3333 170 26.8333 205.5 50.5 232.5 c 0
 74.1667 259.5 107.667 273 151 273 c 2
 191 273 l 1
 191 328.333 206 373.333 236 408 c 0
 266 442.667 308.333 460.333 363 461 c 0
 415 461.667 455.333 442.667 484 404 c 0
 509.333 370 522.333 326.333 523 273 c 1
 593 274 l 1
 613 331.333 636.667 373.667 664 401 c 0
 702.667 439.667 756.667 459.333 826 460 c 0
 894.667 460.667 949.667 436.667 991 388 c 0
 1029.67 342.667 1049.33 285 1050 215 c 0
 1050.67 125 1018 49.6667 952 -11 c 1
739 61 m 1
 738 51 l 1
 737 61 l 1
 756.333 63 772.167 71.3333 784.5 86 c 0
 796.833 100.667 803 117.667 803 137 c 0
 803 156.333 797 172.167 785 184.5 c 0
 773 196.833 757.333 203 738 203 c 2
 659 203 l 1
 656 182 l 1
 655 160 l 2
 652.333 104.667 680.333 71.6667 739 61 c 1
450 263 m 1
 440 263 l 1
 440 348.333 410.333 391 351 391 c 0
 299 391 273 351.667 273 273 c 1
 450 273 l 1
 450 263 l 1
440 204 m 1
 273 204 l 1
 273 160.667 277.667 129 287 109 c 0
 300.333 79 325.667 63.3333 363 62 c 1
 363 62 l 1
 393.667 62 414.667 74.6667 426 100 c 0
 434 118 438.667 152.667 440 204 c 1
190 204 m 1
 151 204 l 1
 132.333 202 118 193.833 108 179.5 c 0
 98 165.167 93 148.333 93 129 c 0
 93 86.3333 112.333 64 151 62 c 1
 151 52 l 1
 149 62 l 1
 177.667 65.3333 193 85.3333 195 122 c 1
 192 165 l 1
 190 204 l 1
EndSplineSet
EndChar
StartChar: 32
Encoding: 65574 -1
Width: 807
Flags: HW
Fore
621 -176 m 1
 621 -37 l 1
 360 -176 l 1
 621 -176 l 1
324 63 m 2
 360.667 65.6667 389.667 75.6667 411 93 c 0
 429.667 107.667 439 126 439 148 c 0
 439.667 192.667 406 244.167 338 302.5 c 0
 270 360.833 213.667 390 169 390 c 0
 142.333 390 122 374.333 108 343 c 0
 96.6667 318.333 90.6667 291 90 261 c 0
 89.3333 207.667 104 162.667 134 126 c 0
 173.333 77.3333 223.333 55.3333 284 60 c 2
 324 63 l 2
418 81 m 0
 429.333 75 441 72 453 72 c 0
 477.667 72 496 88.6667 508 122 c 0
 516 145.333 520 172 520 202 c 0
 520 244.667 513.333 283.333 500 318 c 0
 481.333 365.333 454.333 389.333 419 390 c 0
 385.667 390.667 359.667 376.333 341 347 c 0
 325 322.333 317 292.333 317 257 c 0
 317 175 350.667 116.333 418 81 c 0
704 -247 m 1
 134 -247 l 1
 134 -218 l 1
 515 -10 l 1
 496.333 -10 484.667 -9.83333 480 -9.5 c 0
 475.333 -9.16667 465.333 -6.66667 450 -2 c 2
 421 7 l 1
 411 3.66667 392.667 -0.333333 366 -5 c 1
 303 -10 l 2
 218.333 -16.6667 146.333 14.3333 87 83 c 0
 41 136.333 17.6667 200.667 17 276 c 0
 16.3333 326.667 28.3333 369 53 403 c 0
 81 441 119.333 460 168 460 c 0
 219.333 460 261.333 437.333 294 392 c 1
 316.667 424.667 358 447.333 418 460 c 1
 472.667 460 515.667 440.333 547 401 c 0
 575 365 589.333 318.667 590 262 c 0
 590.667 223.333 583.5 186.5 568.5 151.5 c 0
 553.5 116.5 531.667 88 503 66 c 1
 560.333 66 607 85 643 123 c 0
 673.667 155.667 689.333 199.667 690 255 c 0
 690.667 318.333 665.333 375.667 614 427 c 1
 693 463 l 1
 748.333 399.667 776.667 330 778 254 c 0
 778.667 186 754 127 704 77 c 1
 704 -247 l 1
EndSplineSet
EndChar
StartChar: 33
Encoding: 65575 -1
Width: 1159
Flags: HW
Fore
1083 489 m 1
 1083 483.667 1082.33 476.333 1081 467 c 0
 1081 460.333 1078.67 452.333 1074 443 c 1
 1068 422.333 1059.67 405.333 1049 392 c 1
 1075.67 370 1096.67 338.333 1112 297 c 0
 1126.67 258.333 1134 220.333 1134 183 c 0
 1134 127 1120.67 81.6667 1094 47 c 0
 1064.67 9.66667 1022.67 -9.33333 968 -10 c 0
 921.333 -10.6667 886 9 862 49 c 0
 841.333 81.6667 831 122.667 831 172 c 0
 831 261.333 858.333 329.333 913 376 c 1
 895 384.667 875 389.333 853 390 c 0
 822.333 390.667 798.167 382 780.5 364 c 0
 762.833 346 754 321.333 754 290 c 1
 753 -10 l 1
 671 -10 l 1
 671 290 l 2
 671 315.333 662.167 338.333 644.5 359 c 0
 626.833 379.667 605.667 390 581 390 c 0
 548.333 390 521 381.333 499 364 c 0
 477 346.667 466 322 466 290 c 2
 466 -10 l 1
 383 -10 l 1
 384 290 l 1
 384 316 373.167 339.167 351.5 359.5 c 0
 329.833 379.833 302 390 268 390 c 0
 225.333 390 189.667 376.5 161 349.5 c 0
 132.333 322.5 113.667 287.667 105 245 c 1
 130.333 265 160 275 194 275 c 0
 232 275 263 264.333 287 243 c 0
 315 218.333 329 184 329 140 c 0
 329 98 315.667 62.6667 289 34 c 0
 262.333 5.33333 226.333 -9.33333 181 -10 c 0
 129.667 -10.6667 89.6667 9.33333 61 50 c 0
 35 86 22 130.667 22 184 c 0
 22 255.333 42.6667 317.667 84 371 c 0
 129.333 429.667 190.667 459.333 268 460 c 0
 312.667 460.667 351.333 451.333 384 432 c 0
 400.667 422.667 416.333 409.667 431 393 c 1
 469 437 519 459.333 581 460 c 0
 641.667 460.667 687 439.333 717 396 c 1
 738.333 427.333 772.333 447.333 819 456 c 0
 832.333 458.667 848 460 866 460 c 0
 905.333 460.667 942 454 976 440 c 1
 989 461 l 1
 1000 492 l 1
 1001 503 l 1
 1001 516.333 996.667 529.833 988 543.5 c 0
 979.333 557.167 968.667 564.333 956 565 c 0
 927.333 565.667 903 555.333 883 534 c 2
 848 496 l 1
 832 520 l 1
 806 552 l 1
 842 606.667 892 634.333 956 635 c 0
 992.667 635.667 1023 623.333 1047 598 c 0
 1071 572.667 1083.33 541.333 1084 504 c 1
 1083 489 l 1
1050 215 m 1
 1048.67 234.333 1042 255.333 1030 278 c 0
 1018 300.667 1002.67 321.333 984 340 c 1
 960 324.667 940.667 297 926 257 c 0
 914 223.667 908 190 908 156 c 0
 908 92.6667 928 60.6667 968 60 c 0
 1006 59.3333 1032.33 82.6667 1047 130 c 0
 1052.33 146.667 1054.33 162.667 1053 178 c 2
 1050 215 l 1
246 140 m 0
 246.667 155.333 239.833 170 225.5 184 c 0
 211.167 198 196.333 205 181 205 c 0
 139.667 205 118 183.333 116 140 c 1
 116 140 l 1
 116 122.667 121.667 105 133 87 c 0
 144.333 69 160.333 60 181 60 c 0
 223 60 244.667 86.6667 246 140 c 0
EndSplineSet
EndChar
StartChar: 34
Encoding: 65576 -1
Width: 1297
Flags: HW
Fore
758 -12 m 2
 768 -12 l 2
 808.667 -12 840.5 -7 863.5 3 c 0
 886.5 13 909.667 33 933 63 c 1
 951 13.6667 990.333 -11.3333 1051 -12 c 0
 1120.33 -12.6667 1175.67 13.6667 1217 67 c 0
 1255.67 115.667 1275 175.333 1275 246 c 0
 1275 296 1264.33 342 1243 384 c 0
 1220.33 428.667 1188.33 462.667 1147 486 c 1
 1137 488 l 2
 1131 488 1121.67 479.667 1109 463 c 0
 1096.33 446.333 1093 435.667 1099 431 c 0
 1165 381.667 1198 324 1198 258 c 0
 1198 212 1185.33 171.333 1160 136 c 0
 1132 96.6667 1095.67 76.6667 1051 76 c 0
 1033 76 1017.17 86.6667 1003.5 108 c 0
 989.833 129.333 983 152 983 176 c 2
 983 487 l 1
 886 487 l 1
 886 137 l 1
 879.333 117.667 865.5 102 844.5 90 c 0
 823.5 78 802 71.6667 780 71 c 0
 738 70.3333 709 87.3333 693 122 c 0
 682.333 145.333 676.667 181 676 229 c 0
 675.333 299 666.667 354.667 650 396 c 0
 625.333 456.667 584.333 487 527 487 c 2
 520 487 l 2
 480.667 487 448.5 480 423.5 466 c 0
 398.5 452 375 428.667 353 396 c 1
 329.667 456 290 486.333 234 487 c 0
 163.333 487.667 107.333 460.333 66 405 c 0
 28 355 9 293.667 9 221 c 0
 9 103.667 52 21 138 -27 c 1
 144.667 -29 152 -23.6667 160 -11 c 0
 168 1.66667 172 11.6667 172 19 c 0
 172 23 170.667 26.3333 168 29 c 0
 157.333 37 146.167 48 134.5 62 c 0
 122.833 76 113.333 92 106 110 c 0
 92 143.333 85 180.333 85 221 c 0
 85 268.333 97.6667 309.667 123 345 c 0
 151 384.333 188 404 234 404 c 0
 254 404 271 389.667 285 361 c 0
 297 336.333 303 313 303 291 c 2
 303 -12 l 1
 399 -12 l 1
 399 312 l 1
 412.333 348.667 434 375 464 391 c 0
 474.667 397 486.667 401.333 500 404 c 2
 512 405 l 2
 538 407 556.333 387.333 567 346 c 0
 574.333 318 578 274.5 578 215.5 c 0
 578 156.5 593 105.333 623 62 c 0
 657 12.6667 702 -12 758 -12 c 2
EndSplineSet
EndChar
StartChar: 35
Encoding: 65577 -1
Width: 1000
Flags: HW
Fore
843 -12 m 1
 777 37 l 1
 846.333 90.3333 881.667 160 883 246 c 0
 883.667 285.333 874.667 318.333 856 345 c 0
 835.333 375 806 390.333 768 391 c 0
 743.333 391.667 723.667 381 709 359 c 0
 696.333 340.333 690 318.333 690 293 c 2
 690 -10 l 1
 608 -10 l 1
 608 293 l 2
 608 346.333 577.333 379 516 391 c 1
 482 391 453.333 383.333 430 368 c 0
 403.333 350 390 324.667 390 292 c 2
 390 -10 l 1
 308 -10 l 1
 308 292 l 2
 308 320.667 300 344.167 284 362.5 c 0
 268 380.833 246 390.333 218 391 c 0
 181.333 391.667 152.333 376.333 131 345 c 0
 113 317.667 103.667 284.667 103 246 c 0
 102.333 207.333 111.5 168.333 130.5 129 c 0
 149.5 89.6667 176.333 59.3333 211 38 c 1
 144 -13 l 1
 63.3333 43 22.6667 126 22 236 c 0
 21.3333 299.333 37.6667 351.667 71 393 c 0
 107 437 156 459.333 218 460 c 0
 244.667 460 270 453.667 294 441 c 0
 312 431 328.667 415.667 344 395 c 1
 376 438.333 434 460 518 460 c 0
 567.333 460 609 439 643 397 c 1
 655 413 671.333 427.667 692 441 c 1
 716 453.667 741.333 460 768 460 c 0
 830.667 460.667 879.667 439 915 395 c 0
 948.333 355 965 303 965 239 c 0
 965 128.333 924.333 44.6667 843 -12 c 1
EndSplineSet
EndChar
StartChar: 36
Encoding: 65578 -1
Width: 779
Flags: HW
Fore
751 192 m 0
 751 60.6667 697.667 -5.66667 591 -7 c 0
 494.333 -8.33333 445.333 57.3333 444 190 c 0
 443.333 228 453 264.667 473 300 c 0
 490.333 330.667 514 358.667 544 384 c 1
 523 387 l 1
 500 388 l 2
 458 390 426 378.5 404 353.5 c 0
 382 328.5 371 294.667 371 252 c 0
 370.333 165.333 359.667 102.667 339 64 c 0
 313 15.3333 266.333 -9.33333 199 -10 c 0
 140.333 -10.6667 94.3333 10.6667 61 54 c 0
 31.6667 93.3333 16.6667 143.333 16 204 c 0
 15.3333 269.333 30 324.333 60 369 c 0
 82.6667 403.667 117 435 163 463 c 1
 217 410 l 1
 179 394 149.333 365.667 128 325 c 0
 108 288.333 97.6667 248 97 204 c 0
 96.3333 166.667 104.333 135.667 121 111 c 0
 139 83 165.667 66 201 60 c 1
 260.333 60 290 124.667 290 254 c 0
 290 318 307.667 368.167 343 404.5 c 0
 378.333 440.833 428 459 492 459 c 0
 534 459 572 452.333 606 439 c 1
 616 465 l 2
 618 470.333 619 478.667 619 490 c 0
 619 503.333 612.333 519.167 599 537.5 c 0
 585.667 555.833 573 565 561 565 c 0
 545 565 528 558 510 544 c 1
 464 499 l 1
 430 552 l 1
 462 606.667 505.667 634.333 561 635 c 0
 601 635.667 634.167 622 660.5 594 c 0
 686.833 566 700.333 531.667 701 491 c 0
 701.667 453.667 690.667 420 668 390 c 1
 723.333 330.667 751 264.667 751 192 c 0
669 215 m 2
 667.667 234.333 661 255.167 649 277.5 c 0
 637 299.833 621.667 320.667 603 340 c 1
 563 308.667 537.333 266.667 526 214 c 1
 523 174 l 1
 521 145.333 526.667 118.667 540 94 c 0
 551.333 74 568.667 63.6667 592 63 c 0
 616.667 62.3333 636.333 72.3333 651 93 c 0
 667 116.333 674 143.333 672 174 c 1
 669 215 l 2
EndSplineSet
EndChar
StartChar: 37
Encoding: 65579 -1
Width: 1241
Flags: HW
Fore
1169 -10 m 1
 541 -10 l 1
 541 60 l 1
 799 60 l 1
 829.667 69.3333 854.667 94.6667 874 136 c 0
 890.667 172 899 208 899 244 c 0
 899 286.667 889.333 320.667 870 346 c 0
 848.667 375.333 817.333 390 776 390 c 1
 757 384 l 1
 799.667 343.333 821.333 293.667 822 235 c 0
 822.667 192.333 809.167 157.667 781.5 131 c 0
 753.833 104.333 718.667 91 676 91 c 0
 637.333 91 605 106.667 579 138 c 0
 555 167.333 543 201.667 543 241 c 0
 543 265 548.833 289.333 560.5 314 c 0
 572.167 338.667 589.333 360.667 612 380 c 1
 587 387 l 2
 579.667 389 572 390 564 390 c 0
 534 390 507 380.667 483 362 c 0
 457 342 444 317.333 444 288 c 2
 444 -10 l 1
 362 -10 l 1
 362 288 l 2
 362 318 351.167 342.5 329.5 361.5 c 0
 307.833 380.5 281.667 390 251 390 c 0
 210.333 390 175 375.833 145 347.5 c 0
 115 319.167 96.6667 284.333 90 243 c 1
 114.667 262.333 143.333 272 176 272 c 0
 214 272 245.833 259 271.5 233 c 0
 297.167 207 310.333 175 311 137 c 0
 312.333 41 263.333 -7.66667 164 -9 c 0
 114 -9.66667 75.6667 10.3333 49 51 c 0
 27 85 15.6667 128.333 15 181 c 0
 14.3333 254.333 34.6667 318 76 372 c 0
 121.333 430 179.667 459.333 251 460 c 0
 315 460.667 369.333 437.667 414 391 c 1
 452 437 497.667 460 551 460 c 0
 605 460 651 452 689 436 c 1
 731 453 l 1
 751.667 457.667 766.667 460 776 460 c 0
 874 461.333 938.667 415.333 970 322 c 0
 978 298 982 269.333 982 236 c 0
 982 162 963.333 103.333 926 60 c 1
 1087 60 l 1
 1087 460 l 1
 1169 460 l 1
 1169 -10 l 1
683 347 m 1
 644.333 319 625 281.667 625 235 c 0
 625 215.667 628.667 199.333 636 186 c 0
 645.333 168.667 658.667 160 676 160 c 1
 676 160 l 1
 696.667 160 713.167 167.5 725.5 182.5 c 0
 737.833 197.5 744.333 216.667 745 240 c 0
 745.667 280.667 725 316.333 683 347 c 1
229 137 m 0
 229.667 153.667 223.167 168.5 209.5 181.5 c 0
 195.833 194.5 180.667 201.333 164 202 c 0
 144 202.667 128.167 197 116.5 185 c 0
 104.833 173 99 157 99 137 c 1
 99 137 l 1
 99 118.333 105.333 101.167 118 85.5 c 0
 130.667 69.8333 146 61.6667 164 61 c 0
 206 59.6667 227.667 85 229 137 c 0
EndSplineSet
EndChar
StartChar: 38
Encoding: 65580 -1
Width: 782
Flags: HW
Fore
744 -10 m 1
 312 -12 l 1
 312 316 l 2
 312 339.333 300 358 276 372 c 0
 256.667 383.333 234.333 389.333 209 390 c 0
 171.667 390.667 142.333 375 121 343 c 0
 103 315.667 94 282.333 94 243 c 0
 94 199 103.667 158 123 120 c 0
 143.667 79.3333 172 48.3333 208 27 c 1
 134 -12 l 1
 54 43.3333 13.6667 124.667 13 232 c 0
 12.3333 296 28.6667 349 62 391 c 0
 98 437 147 460 209 460 c 0
 267 460 313.333 437.333 348 392 c 1
 388.667 436.667 446.667 459.333 522 460 c 0
 591.333 460.667 644.667 443 682 407 c 0
 723.333 367 744 306.333 744 225 c 2
 744 -10 l 1
382 60 m 1
 419.333 84 452 117 480 159 c 0
 510.667 205 526 248.333 526 289 c 0
 526 332.333 503.333 357.667 458 365 c 1
 427.333 365 406 347.333 394 312 c 0
 386 288.667 382 247.333 382 188 c 2
 382 60 l 1
569 386 m 1
 597 358 611 324.667 611 286 c 0
 611 215.333 564.667 140 472 60 c 1
 662 60 l 1
 662 225 l 2
 662 313.667 631 367.333 569 386 c 1
EndSplineSet
EndChar
StartChar: 39
Encoding: 65581 -1
Width: 732
Flags: HW
Fore
673 -334 m 1
 344 -334 l 1
 344 -279 l 1
 374.667 -270.333 390 -250.333 390 -219 c 0
 390 -197.667 383.5 -180.333 370.5 -167 c 0
 357.5 -153.667 340.333 -147 319 -147 c 0
 297 -147 278.5 -153.5 263.5 -166.5 c 0
 248.5 -179.5 240.667 -196.667 240 -218 c 0
 239.333 -249.333 254.333 -274.333 285 -293 c 1
 256 -335 l 1
 232.667 -335 212.667 -322.667 196 -298 c 0
 182 -277.333 174.667 -252 174 -222 c 0
 173.333 -179.333 188.333 -146 219 -122 c 0
 247 -100 283.333 -89 328 -89 c 0
 364 -89 393.833 -102 417.5 -128 c 0
 441.167 -154 453 -185.333 453 -222 c 1
 450 -248 l 1
 442 -274 l 1
 591 -274 l 1
 591 -10 l 1
 241 -10 l 1
 241 61 l 1
 261 65 276.167 74.6667 286.5 90 c 0
 296.833 105.333 302 122.667 302 142 c 0
 302 170.667 292.833 194.5 274.5 213.5 c 0
 256.167 232.5 232.667 242.333 204 243 c 0
 173.333 243.667 148.333 234.5 129 215.5 c 0
 109.667 196.5 100 171.667 100 141 c 0
 100 99 117 66.3333 151 43 c 1
 118 -11 l 1
 86.6667 -7.66667 61.6667 10 43 42 c 0
 27 69.3333 18.6667 100.333 18 135 c 0
 17.3333 191.667 36.6667 236 76 268 c 0
 112 298 159 313 217 313 c 0
 263.667 313 303.333 294 336 256 c 0
 366.667 220.667 382.333 179 383 131 c 0
 383.667 105.667 378.333 82 367 60 c 1
 591 60 l 1
 591 460 l 1
 673 460 l 1
 673 -334 l 1
EndSplineSet
EndChar
StartChar: 40
Encoding: 65582 -1
Width: 751
Flags: HW
Fore
723 138 m 0
 723.667 40.6667 678.333 -8.66667 587 -10 c 0
 577 -10 563.667 -3.66667 547 9 c 1
 528 27 l 1
 528 86 l 1
 541.333 72.6667 555.333 64.3333 570 61 c 0
 574.667 60.3333 580.667 60 588 60 c 0
 604 60 616.667 66.6667 626 80 c 0
 635.333 93.3333 640 108.333 640 125 c 0
 640 143.667 636 160.333 628 175 c 0
 618 193.667 604.667 203 588 203 c 2
 523 203 l 1
 523 62.3333 469.667 -8.66667 363 -10 c 0
 311 -10.6667 270 3 240 31 c 1
 234 19.6667 223 9.33333 207 0 c 1
 191.667 -6 168.667 -9.33333 138 -10 c 0
 101.333 -10.6667 72 2.33333 50 29 c 0
 28 55.6667 16.6667 87.6667 16 125 c 0
 15.3333 169 26.8333 204.5 50.5 231.5 c 0
 74.1667 258.5 107.667 272 151 272 c 2
 191 272 l 1
 191 327.333 206 372.333 236 407 c 0
 266 441.667 308.333 459.333 363 460 c 1
 363 460 l 1
 415 460 455.333 441 484 403 c 0
 509.333 369.667 522.333 326 523 272 c 1
 575 272 l 2
 624.333 272 661.167 261.667 685.5 241 c 0
 709.833 220.333 722.333 186 723 138 c 0
584 1 m 1
 614.667 -10.3333 638.667 -36.6667 656 -78 c 0
 671.333 -112.667 679 -148.667 679 -186 c 0
 679 -232 668 -268.667 646 -296 c 0
 626 -320.667 598.333 -333 563 -333 c 0
 515 -333 479.333 -316.667 456 -284 c 0
 438 -258.667 428.667 -221.667 428 -173 c 0
 427.333 -142.333 418.667 -116.667 402 -96 c 0
 383.333 -74 359 -62.6667 329 -62 c 0
 311.667 -61.3333 296 -67 282 -79 c 1
 312.667 -85 336.833 -100.167 354.5 -124.5 c 0
 372.167 -148.833 381 -177 381 -209 c 0
 381 -242.333 371.333 -271.167 352 -295.5 c 0
 332.667 -319.833 307 -332.333 275 -333 c 0
 237.667 -333.667 208 -319.667 186 -291 c 0
 166.667 -265.667 156.667 -233.667 156 -195 c 0
 155.333 -141 172.833 -97 208.5 -63 c 0
 244.167 -29 289.333 -11.6667 344 -11 c 0
 392.667 -10.3333 430.333 -24.8333 457 -54.5 c 0
 483.667 -84.1667 497.333 -124 498 -174 c 0
 498.667 -208 501.333 -231.333 506 -244 c 0
 515.333 -265.333 534 -276 562 -276 c 1
 601.333 -272 621 -242.667 621 -188 c 0
 621 -163.333 616 -138.667 606 -114 c 0
 594 -86 578.333 -67.3333 559 -58 c 1
 563 -49 l 1
 555 -44 l 1
 584 1 l 1
450 262 m 1
 440 262 l 1
 440 347.333 410.333 390 351 390 c 0
 299 390 273 350.667 273 272 c 1
 450 272 l 1
 450 262 l 1
440 203 m 1
 273 203 l 1
 273 154.333 279.833 118.333 293.5 95 c 0
 307.167 71.6667 330.333 60 363 60 c 1
 363 60 l 1
 393.667 60 414.667 73 426 99 c 0
 434 117.667 438.667 152.333 440 203 c 1
190 203 m 1
 151 203 l 1
 133 201 119 192.5 109 177.5 c 0
 99 162.5 93.6667 145.333 93 126 c 0
 91.6667 84 110.333 62 149 60 c 1
 177.667 63.3333 193 83.6667 195 121 c 1
 192 164 l 1
 190 203 l 1
275 -276 m 0
 290.333 -276 298.667 -261 300 -231 c 0
 300.667 -209 296 -186 286 -162 c 0
 276.667 -140 266.333 -128.667 255 -128 c 0
 252.333 -128 248 -130 242 -134 c 1
 227.333 -151.333 220 -172.333 220 -197 c 0
 220 -216.333 224.333 -233.667 233 -249 c 0
 243 -267 257 -276 275 -276 c 0
EndSplineSet
EndChar
StartChar: 41
Encoding: 65583 -1
Width: 1018
Flags: HW
Fore
867 -13 m 1
 815 24 l 1
 873 82 902.333 145.667 903 215 c 0
 903.667 257 890.667 296 864 332 c 0
 834.667 370.667 799.667 390.333 759 391 c 0
 741 391 724 385.667 708 375 c 1
 732.667 355 753 326 769 288 c 0
 783.667 252.667 791.333 214.667 792 174 c 0
 792.667 120 779.667 76.6667 753 44 c 0
 723.667 8.66667 682.667 -9.33333 630 -10 c 0
 582 -10.6667 545 8.33333 519 47 c 0
 497.667 79.6667 486.667 121.333 486 172 c 0
 485.333 210 492.333 246.667 507 282 c 0
 522.333 320.667 544 351 572 373 c 1
 546.667 383.667 519.667 389.333 491 390 c 0
 423 391.333 389 357.333 389 288 c 2
 389 -10 l 1
 307 -10 l 1
 307 288 l 2
 307 317.333 299.167 341.5 283.5 360.5 c 0
 267.833 379.5 245.667 389.333 217 390 c 0
 179 390.667 149.667 374.667 129 342 c 0
 111 314.667 102 281 102 241 c 0
 102 199 111.667 158.167 131 118.5 c 0
 150.333 78.8333 177.333 47.3333 212 24 c 1
 142 -12 l 1
 103.333 14.6667 73.3333 50.6667 52 96 c 0
 32 138.667 21.6667 184.667 21 234 c 0
 20.3333 297.333 36.6667 350 70 392 c 0
 106 437.333 155 460 217 460 c 0
 269 460 310.667 438 342 394 c 1
 374.667 436.667 430.333 458.667 509 460 c 0
 556.333 460.667 600.667 448.667 642 424 c 1
 686 448 729 460.333 771 461 c 0
 834.333 461.667 885 434 923 378 c 0
 957 328.667 974 271 974 205 c 0
 974 108.333 938.333 35.6667 867 -13 c 1
706 213 m 2
 704.667 231 697.833 252 685.5 276 c 0
 673.167 300 658.667 320.333 642 337 c 1
 604 307 578.667 265 566 211 c 1
 562 170 l 1
 562 142 566.667 118.333 576 99 c 0
 588.667 74.3333 607.333 61.6667 632 61 c 0
 656 60.3333 675.333 70.3333 690 91 c 1
 701.333 111.667 707.667 139 709 173 c 1
 706 213 l 2
EndSplineSet
EndChar
StartChar: 42
Encoding: 65584 -1
Width: 783
Flags: HW
Fore
725 139 m 0
 725.667 42.3333 680.667 -7 590 -9 c 1
 561 0 l 2
 546.333 6 534.333 13.3333 525 22 c 1
 525 98 l 1
 555 76 l 2
 568.333 66 580 61 590 61 c 0
 606 61 618.667 67.6667 628 81 c 0
 637.333 94.3333 642 109.333 642 126 c 0
 642 144.667 638 161.333 630 176 c 0
 620 194.667 606.667 204 590 204 c 2
 525 204 l 1
 525 63.3333 472 -7.66667 366 -9 c 0
 311.333 -9.66667 270 4 242 32 c 1
 236 20 225.333 9.66667 210 1 c 1
 194.667 -5 171.667 -8.33333 141 -9 c 0
 104.333 -9.66667 74.3333 3.66667 51 31 c 0
 29.6667 56.3333 18.6667 88 18 126 c 0
 17.3333 177.333 35.3333 217.333 72 246 c 1
 78 238 l 1
 72 230 l 1
 34 257.333 14.6667 291.333 14 332 c 0
 13.3333 365.333 26.3333 395.167 53 421.5 c 0
 79.6667 447.833 110 461.333 144 462 c 0
 160.667 462 177.833 457.333 195.5 448 c 0
 213.167 438.667 228.333 424.333 241 405 c 1
 274.333 441 315.667 459.333 365 460 c 0
 416.333 460.667 456.333 442 485 404 c 0
 511 370 524.333 326.333 525 273 c 1
 577 273 l 2
 626.333 273 663.167 262.667 687.5 242 c 0
 711.833 221.333 724.333 187 725 139 c 0
452 263 m 1
 442 263 l 1
 442 347.667 412.333 390 353 390 c 0
 301 390 275 351 275 273 c 1
 452 273 l 1
 452 263 l 1
442 204 m 1
 275 204 l 1
 275 155.333 281.833 119.333 295.5 96 c 0
 309.167 72.6667 332.333 61 365 61 c 1
 365 61 l 1
 395.667 61 416.667 74 428 100 c 0
 436 118.667 440.667 153.333 442 204 c 1
204 337 m 1
 198.667 358.333 186 374 166 384 c 0
 161.333 385.333 155.667 386.667 149 388 c 0
 134.333 388 122 382.667 112 372 c 0
 102 361.333 96.6667 348.333 96 333 c 0
 96 326.333 96.1667 320.833 96.5 316.5 c 0
 96.8333 312.167 103 302.667 115 288 c 0
 121 282 126.333 277 131 273 c 1
 193 273 l 1
 196 304 l 1
 204 337 l 1
192 204 m 1
 153 204 l 1
 114.333 200 95 174.667 95 128 c 0
 95 85.3333 114.333 63 153 61 c 1
 153 51 l 1
 151 61 l 1
 179.667 64.3333 195 84.6667 197 122 c 1
 194 165 l 1
 192 204 l 1
EndSplineSet
EndChar
StartChar: 43
Encoding: 65585 -1
Width: 1166
Flags: HW
Fore
1086 228 m 1
 1117.33 210 1133.33 178.333 1134 133 c 0
 1134.67 89 1119 54 1087 28 c 0
 1057.67 3.33333 1020.33 -9.33333 975 -10 c 0
 963 -10 947 -6.66667 927 0 c 0
 904.333 8 892.333 16.3333 891 25 c 1
 891 99 l 1
 897.667 92.3333 910.5 84.1667 929.5 74.5 c 0
 948.5 64.8333 963.667 60 975 60 c 0
 995.667 59.3333 1013.67 66.1667 1029 80.5 c 0
 1044.33 94.8333 1052.33 112.333 1053 133 c 0
 1053.67 148.333 1047.33 161.833 1034 173.5 c 0
 1020.67 185.167 1001 191 975 191 c 2
 878 191 l 1
 878 261 l 1
 975 261 l 2
 994.333 261 1011.33 266.667 1026 278 c 0
 1040.67 289.333 1048 304.333 1048 323 c 0
 1048 346.333 1037 364 1015 376 c 0
 997 385.333 975.333 390.333 950 391 c 0
 913.333 391.667 885.167 379.833 865.5 355.5 c 0
 845.833 331.167 836 300.333 836 263 c 2
 836 -10 l 1
 753 -10 l 1
 753 263 l 2
 753 307 737 341.667 705 367 c 0
 684.333 383 651.667 391.667 607 393 c 1
 649.667 363.667 671.667 324.333 673 275 c 0
 673.667 261.667 669 248 659 234 c 0
 649 220 638 209.333 626 202 c 1
 642 194 653.833 182 661.5 166 c 0
 669.167 150 673 132.333 673 113 c 0
 673 75.6667 657.333 45.6667 626 23 c 0
 598 2.33333 564.667 -8.33333 526 -9 c 0
 466 -9.66667 420.333 10.3333 389 51 c 0
 361 87 346.667 135.667 346 197 c 0
 345.333 231.667 350.333 265.333 361 298 c 0
 373 336 390.333 364.667 413 384 c 1
 371 389 l 1
 326 391 l 2
 275.333 393 229.667 381.333 189 356 c 0
 148.333 330.667 120.333 294.667 105 248 c 1
 122.333 262 146 270.333 176 273 c 1
 216 273 248.667 260.167 274 234.5 c 0
 299.333 208.833 312 176 312 136 c 0
 312 94.6667 299.5 60.3333 274.5 33 c 0
 249.5 5.66667 216.667 -8.33333 176 -9 c 0
 127.333 -9.66667 88.3333 9.33333 59 48 c 0
 33 82.6667 20 125.333 20 176 c 0
 20 262.667 51.6667 332.667 115 386 c 0
 175 435.333 249.333 460 338 460 c 0
 373.333 460 405.667 457.667 435 453 c 0
 455 449.667 481.333 443.667 514 435 c 1
 574 454 l 2
 586.667 458 608 460 638 460 c 0
 715.333 460 770 434.333 802 383 c 1
 840 433.667 889.333 459.333 950 460 c 0
 997.333 460.667 1038.67 449.333 1074 426 c 0
 1114.67 400 1135.33 364.333 1136 319 c 0
 1136.67 284.333 1120 254 1086 228 c 1
591 113 m 0
 591 123 585.167 134.167 573.5 146.5 c 0
 561.833 158.833 546 165 526 165 c 2
 479 165 l 1
 479 235 l 1
 526 235 l 2
 542 235 556.833 240 570.5 250 c 0
 584.167 260 591 272.667 591 288 c 0
 591 312 580 331.667 558 347 c 0
 546.667 354.333 531.667 360.333 513 365 c 1
 482.333 358.333 458.333 336.333 441 299 c 0
 427 268.333 419.667 235 419 199 c 0
 418.333 161 426.333 129.333 443 104 c 0
 461.667 75.3333 489.333 61 526 61 c 0
 542.667 61 557.667 65.6667 571 75 c 0
 584.333 84.3333 591 97 591 113 c 0
164 203 m 1
 125.333 194.333 106 170 106 130 c 0
 106 113.333 111 97 121 81 c 1
 130.333 69 144.333 62.3333 163 61 c 1
 163 61 l 1
 183.667 61 200 67.8333 212 81.5 c 0
 224 95.1667 230 112.333 230 133 c 0
 230 153.667 224 170.5 212 183.5 c 0
 200 196.5 184 203 164 203 c 1
EndSplineSet
EndChar
StartChar: 44
Encoding: 65586 -1
Width: 807
Flags: HW
Fore
641 -176 m 1
 641 -37 l 1
 368 -176 l 1
 641 -176 l 1
724 -247 m 1
 141 -247 l 1
 141 -205 l 1
 557 -10 l 1
 291 -10 l 1
 291 61 l 1
 349.667 96.3333 379.333 150.333 380 223 c 0
 380.667 268.333 368.333 307.167 343 339.5 c 0
 317.667 371.833 283 388.333 239 389 c 0
 195 389.667 159.667 373.833 133 341.5 c 0
 106.333 309.167 92.6667 270.667 92 226 c 0
 91.3333 162 116.333 110 167 70 c 0
 178.333 61.3333 191.333 53.3333 206 46 c 1
 153 -13 l 1
 105.667 13.6667 70.5 47.1667 47.5 87.5 c 0
 24.5 127.833 12.6667 171.667 12 219 c 0
 11.3333 285.667 32.5 342.333 75.5 389 c 0
 118.5 435.667 173 459.333 239 460 c 0
 308.333 460.667 362.667 438.833 402 394.5 c 0
 441.333 350.167 461 293 461 223 c 0
 461 189.667 456.333 159.333 447 132 c 0
 437.667 104.667 424.333 82.3333 407 65 c 1
 641 65 l 1
 641 460 l 1
 724 460 l 1
 724 -247 l 1
EndSplineSet
EndChar
